<svg xmlns="http://www.w3.org/2000/svg" xmlns:xlink="http://www.w3.org/1999/xlink" viewBox="0 0 566.93 566.93"><defs><style>.cls-1{fill:none;}.cls-2{isolation:isolate;}.cls-3,.cls-6{opacity:0.75;}.cls-4{opacity:0.8;}.cls-5{fill:#fff;}.cls-6{mix-blend-mode:screen;}.cls-7{clip-path:url(#clip-path);}.cls-8{opacity:0.25;}.cls-9{clip-path:url(#clip-path-2);}</style><clipPath id="clip-path"><rect class="cls-1" x="-1001.32" y="566.93" width="725.67" height="408.19"/></clipPath><clipPath id="clip-path-2"><rect class="cls-1" x="-1001.32" y="-620.77" width="725.67" height="408.19"/></clipPath></defs><title>Logo-White-Final-l</title><g class="cls-2"><g id="Logo-White"><g class="cls-3"><g class="cls-4"><path class="cls-5" d="M495.75,203.39c0,2.35,0,5,.1,7.9,0,1.44-.09,3-.14,4.54,0,.79,0,1.59-.06,2.41l0,1.23-.11,1.25c-.29,3.35-.5,6.94-1.11,10.63-.43,3.73-1.3,7.54-2.07,11.52a173.18,173.18,0,0,1-7.67,24.36,194.32,194.32,0,0,1-12,24.42,207.09,207.09,0,0,1-15.32,22.83,220.58,220.58,0,0,1-17.22,20A212.46,212.46,0,0,1,407,362.56c-.88.67-1.76,1.29-2.66,1.88l-2.61,1.76c-1.72,1.15-3.35,2.32-5,3.32l-4.81,3-2.29,1.39c-.76.44-1.52.84-2.26,1.26L383,377.47l-2.05,1.1-2,1c-2.65,1.27-5.08,2.45-7.37,3.45-2,.79-2.31.89-1.32.4s3.29-1.62,6.66-3.31A259.27,259.27,0,0,0,407,362.56c5.4-3.94,11.21-8.38,17.17-13.67a230.76,230.76,0,0,0,18.58-18.12c-17.6,15.66-36.55,27.34-50.73,34a209.21,209.21,0,0,1-30,16.85,216,216,0,0,1-35.69,12.92A159.31,159.31,0,0,1,308,398.29a90.73,90.73,0,0,1-18.33.66,84.22,84.22,0,0,1-34.68-9.9,86.81,86.81,0,0,1-14.95-10.21,96.44,96.44,0,0,1-12.66-13,128,128,0,0,1-9.51-13.46,130.21,130.21,0,0,1-9.22-18.17,135.78,135.78,0,0,1-6.33-19.32c-.36-1.55-.74-3-1-4.5s-.54-2.87-.79-4.22-.36-2.59-.53-3.79-.3-2.31-.32-3.36c.11,1.08.35,2.15.54,3.22s.37,2.13.6,3.22c.52,2.17.95,4.37,1.54,6.53s1.11,4.33,1.81,6.45l1,3.21,1.1,3.16c1.44,4.22,3.18,8.32,5,12.38a131.8,131.8,0,0,0,6.21,11.76c9,15.24,21.45,28.36,36.65,36.85L257,387.3c1,.48,2,.92,2.94,1.39l1.47.7,1.51.6c1,.4,2,.83,3,1.21,2.07.67,4.1,1.45,6.21,2,1.05.27,2.08.61,3.15.83l3.19.68a81.78,81.78,0,0,0,13,1.49,93.28,93.28,0,0,0,13.15-.42l3.29-.42,1.64-.22,1.63-.3,3.27-.6c1.1-.21,2.21-.51,3.32-.76,2.21-.53,4.43-1,6.64-1.58L331,390a201.56,201.56,0,0,0,25.61-9.63c-1.87.68-3.74,1.34-5.59,1.95A224.73,224.73,0,0,1,323.68,391c-4.65,1-9.35,2.12-13.85,2.75a93.52,93.52,0,0,1-13.64.93c-2.27.06-4.53-.16-6.78-.27-1.12-.09-2.24-.25-3.35-.37l-1.68-.19-1.65-.29a78.53,78.53,0,0,1-13-3.26l-3.14-1.13-3.07-1.3c-1-.41-2-.9-3-1.4s-2-1-3-1.52a88.64,88.64,0,0,1-11.18-7.25A74.26,74.26,0,0,1,232.94,365a94.11,94.11,0,0,0,13.44,12.67,75.26,75.26,0,0,0,20.87,10.6,83.81,83.81,0,0,0,23.95,3.92,107.66,107.66,0,0,0,16.67-.28c.72,0,1.43-.12,2.15-.23l2.14-.29,2.15-.3,2.19-.43,4.33-.89c1.42-.29,2.83-.59,4.18-1,2.22-.6,4.43-1.12,6.62-1.59l6.49-1.55,3.23-.73,3.2-.85c2.13-.58,4.28-1.15,6.42-1.79L358.9,379c2.6-1.19,5.19-2.44,7.79-3.66,1.44-.85,2.92-1.9,4.51-2.83a.75.75,0,0,1-.24,0,26.11,26.11,0,0,0-4.17,1c-1.83.48-4.05,1.15-6.59,2-5.12,1.64-11.67,3.66-19.21,5.71-1.88.52-3.86.94-5.86,1.44s-4.06,1-6.19,1.4l-6.49,1.31-6.75,1.06c-2.32.43-4.48.6-6.68.84-1.1.15-2.21.13-3.32.21s-2.22.17-3.32.13a88.2,88.2,0,0,1-13.23-.78,82,82,0,0,1-12.66-2.89,77.49,77.49,0,0,1-11.58-4.84,79.49,79.49,0,0,1-10.18-6.34l-2.3-1.75c-.77-.56-1.46-1.23-2.19-1.82-1.46-1.17-2.77-2.48-4.1-3.69A104.77,104.77,0,0,1,233.75,351c-3.16-4.36-5.3-8.06-6.79-10.21-4.52-7-9.19-13.92-13.38-21.66A104.09,104.09,0,0,1,208,306.74c-.4-1.08-.83-2.21-1.19-3.31s-.64-2.17-1-3.27a32.09,32.09,0,0,1-.79-3.39c-.21-1.15-.5-2.31-.61-3.49a34.61,34.61,0,0,1-.27-4.59c0-1.47.06-2.88.15-4.25a38.13,38.13,0,0,0,.17-3.94,18.72,18.72,0,0,0-.19-3.75c-.79-.54-1-3-1.3-5.58a59.87,59.87,0,0,1,5.7-17.92c2.57-5.45,5.32-10.28,7-15.07a9.67,9.67,0,0,1,1.9-2.5,29.09,29.09,0,0,1,3.22-2.48c1.25-.8,2.65-1.54,4.05-2.26s2.93-1.31,4.35-1.89c5.8-2.28,11.05-3.17,10.8-4.53-.78-4.84-.74-5.56.88-6.11a48.67,48.67,0,0,0,11.72-4.26,5.64,5.64,0,0,0,1.61-1.31l1-1.11,1.18-1.19a14.08,14.08,0,0,1,5.48-3.8c3.15-.58,5.67-1.13,7.92-1.71,1.12-.26,2.19-.59,3.2-.91s2-.61,3-.93c2-.59,4-1.28,6.41-1.77a33.14,33.14,0,0,1,8.51-.77,29.28,29.28,0,0,1,6.73.54,28,28,0,0,1,5.34,1.6,33,33,0,0,1,7.76,4.66c2.21,1.73,4.23,3.51,6.6,5.55s5.1,4.35,8.53,7.67a30.38,30.38,0,0,1,3.33,4.86,45.84,45.84,0,0,1,4.3,10.07,48.54,48.54,0,0,1,1.94,10.59c.06,1.46.13,2.69.1,3.55v1.34c-2.18,11.9-6.7,21-12.93,28a37.56,37.56,0,0,1-24.65,12.61c-1.17.85-2.44,1.58-3.74,2.34s-2.7,1.39-4.14,2-2.93,1.18-4.48,1.62l-2.34.7c-.8.22-1.65.41-2.48.61a134.58,134.58,0,0,1-21.09,3c-14.5,1-29.15.27-42,.31a88.25,88.25,0,0,1-30.19-4.89c-2-.75-4-1.54-6-2.35s-4-1.82-6-2.76c-4-2-8.23-4.19-12.85-6.84-.68-.32-1.36-.58-2-.89l-1.84-.87-3.33-1.53a19.1,19.1,0,0,1-2.78-1.56,14.64,14.64,0,0,1-2.21-1.74,10.6,10.6,0,0,0-2.91-1.63c-1.22-.53-2.69-1-4.24-1.52a33.22,33.22,0,0,1-4.6-1.85c-.75-.35-1.47-.73-2.15-1.12-.34-.2-.67-.4-1-.61s-.58-.47-.85-.71c.83-.36,1.63-.68,2.47-1.08-1.43-1.26-4.18-3.8-5.55-5.06s-.42-1.65.41-2c1.67-.59,3.26-1.27,1.71-4.14a113.29,113.29,0,0,1-12.34-18l-1-1c-.33-.31-.6-.68-.91-1l-1.8-2.08-1.86-2.08c-.58-.72-1.11-1.49-1.69-2.23l-1.71-2.24a23.85,23.85,0,0,1-1.69-2.3q-1.55-2.4-3.18-4.81a6.14,6.14,0,0,1-3.53-.87l-3.92-6.19c-2.65-.72-4.89.43-6.65-.12-3.15.92-6.94-.85-10.64-2.55s-7.26-3.25-9.86-1.21c-.7.75-.15,5.24.48,10.64.41,2.67,1,5.54,1.36,8.3s.78,5.33.83,7.44c-.18,2.07-3.79-1.05-6.69-2,4.1,9.83,2.15,11.55-1.57,8.23.42,1.24.84,2.48,1.15,3.41.15.46.33.83.44,1.1l.17.42c-.49-.13-1.51-.38-2.35-.62L65.18,249l.4,1.29.49,1.28c.32.86.65,1.71,1,2.58l2,5.22c.62,1.78,1.52,3.47,2.3,5.22s1.65,3.49,2.47,5.25a29.14,29.14,0,0,0,1.37,2.59L76.64,275q1.5,2.57,3,5.15c1.09,1.66,2.24,3.29,3.38,4.93s2.28,3.31,3.55,4.86,2.58,3.07,3.89,4.59a54.76,54.76,0,0,0,4.08,4.39,91,91,0,0,0,8.83,7.9c1.54,1.2,3.1,2.37,4.66,3.51s3.21,2.07,4.83,3.06,3.25,1.92,4.89,2.78,3.34,1.56,5,2.27a46.12,46.12,0,0,0,4.89,2c1.84.62,3.81,1.25,5.81,1.84,1,.29,2,.61,3,.86l3,.68,5.42,1.17a32.65,32.65,0,0,1,6.33,2.45l3.28,1.61c1,.45,1.86.83,2.47,1.06,5-.77,5-3.38,7.43-5.09,2.26.92,4.88,1.83,7.73,2.86,1.43.53,2.91,1,4.44,1.42l4.7,1.38c3.2.87,6.51,1.6,9.81,2.32s6.57,1.16,9.7,1.52,6.1.59,8.79.61a52.43,52.43,0,0,0,7.08-.4c4-.65,6.3-1.93,6-4a51.08,51.08,0,0,0,16.46-1.88,107.84,107.84,0,0,1,16.58-3.41l7.78-1.12c2.66-.45,5.4-.84,8.18-1.38l4.23-.79,4.31-.89c1.45-.29,2.91-.62,4.39-1s2.92-.64,4.51-1.08A117.65,117.65,0,0,0,308,312.8a92.07,92.07,0,0,0,18.17-10.52,85.17,85.17,0,0,0,16.25-16.6,69.39,69.39,0,0,0,6.12-9.9A66.24,66.24,0,0,0,353,265a70.31,70.31,0,0,0,3-16.51,73.37,73.37,0,0,0-9.45-40.4,69.75,69.75,0,0,0-28.66-27.64A71.06,71.06,0,0,0,299.35,174a79.86,79.86,0,0,0-18.91-1.44,92.08,92.08,0,0,0-18.05,2.59,114.32,114.32,0,0,0-16.85,5.48,115.89,115.89,0,0,0-15.71,8.08c-1.24.79-2.52,1.54-3.72,2.39l-3.64,2.53c-2.35,1.78-4.71,3.57-6.94,5.53a108.55,108.55,0,0,0-23.06,27.45,104.32,104.32,0,0,0-12.89,34.73,105.72,105.72,0,0,0-1.54,19,101.2,101.2,0,0,0,2,19.26c.59,3.23,1.44,6.39,2.25,9.54s1.76,6.06,2.82,9,2.11,6,3.22,8.92,2.36,5.87,3.72,8.74,2.75,5.72,4.16,8.56,3,5.58,4.71,8.28a140.59,140.59,0,0,0,10.92,15.66A118.2,118.2,0,0,0,240.15,394a99.77,99.77,0,0,0,35.26,14.11,106.75,106.75,0,0,0,18.72,1.82,120.24,120.24,0,0,0,18.46-1.49l4.5-.82c1.5-.28,2.9-.65,4.35-1l4.31-1c.71-.17,1.43-.32,2.14-.51l2.12-.59c2.82-.81,5.65-1.52,8.43-2.39l8.26-2.71a251.63,251.63,0,0,0,31.19-13.48l3.68-1.92,1.84-1,1.79-1,7.12-4.09,6.88-4.3c2.29-1.41,4.45-3,6.67-4.45a261.82,261.82,0,0,0,24.5-19,268,268,0,0,0,20.86-20.44c1.6-1.73,3.09-3.53,4.62-5.26l2.26-2.61,2.14-2.67c1.4-1.78,2.85-3.49,4.18-5.27s2.63-3.57,3.92-5.31a204.07,204.07,0,0,0,13.34-21.09,159.16,159.16,0,0,0,15.62-39.09,115.9,115.9,0,0,0,3.52-29c-.69-2.74-1.46-5.46-2.21-8.13C497.7,208.63,496.72,206,495.75,203.39Z"/></g></g><g class="cls-3"><g class="cls-4"><path class="cls-5" d="M491.62,204.31c.06,2.22.19,4.74.36,7.52,0,1.38,0,2.83,0,4.35v3.5c0,.39-.05.8-.07,1.2-.22,3.24-.33,6.7-.86,10.29-.34,3.63-1.12,7.34-1.81,11.23a165.73,165.73,0,0,1-7.17,23.94,187.83,187.83,0,0,1-11.57,24.18,204.49,204.49,0,0,1-14.94,22.71,221.56,221.56,0,0,1-16.88,20,217.76,217.76,0,0,1-32.54,28.26c-.86.67-1.74,1.3-2.62,1.89l-2.57,1.79c-1.71,1.15-3.31,2.33-4.95,3.35l-4.75,3L389,372.87c-.75.45-1.5.86-2.24,1.28l-4.26,2.4-2,1.13-2,1c-2.61,1.3-5,2.52-7.27,3.56-1.93.84-2.27.95-1.29.45s3.27-1.64,6.6-3.36a250.12,250.12,0,0,0,29.62-17.88c5.33-4,11.07-8.43,16.95-13.73a230,230,0,0,0,18.3-18.13A225,225,0,0,1,392.23,365a212.23,212.23,0,0,1-30,17,215.45,215.45,0,0,1-35.73,13.13,157.23,157.23,0,0,1-18.37,3.87,91.6,91.6,0,0,1-18.49.75A85.73,85.73,0,0,1,254.54,390a89.38,89.38,0,0,1-15.21-10.23,98.74,98.74,0,0,1-12.93-13.09,124.89,124.89,0,0,1-9.74-13.55,133.94,133.94,0,0,1-9.44-18.33,140.83,140.83,0,0,1-6.54-19.49c-.38-1.56-.78-3.06-1.09-4.53s-.58-2.9-.86-4.25-.41-2.64-.6-3.85-.36-2.34-.4-3.41c.11,1.1.37,2.19.56,3.28s.38,2.18.62,3.28c.53,2.2,1,4.42,1.58,6.6s1.14,4.39,1.85,6.53l1,3.24,1.12,3.2c1.47,4.28,3.25,8.43,5.09,12.54s4,8.08,6.34,11.91c9.14,15.43,21.88,28.77,37.41,37.38l2.93,1.57c1,.49,2,.94,3,1.42l1.51.7,1.54.61c1,.41,2.05.84,3.09,1.22,2.11.68,4.18,1.47,6.33,2,1.08.27,2.13.61,3.22.84l3.25.68a83.84,83.84,0,0,0,13.24,1.48,94.87,94.87,0,0,0,13.37-.47l3.34-.44,1.66-.22,1.66-.31,3.32-.61c1.1-.23,2.22-.53,3.34-.78,2.22-.54,4.46-1.05,6.68-1.62l6.61-1.92a203.88,203.88,0,0,0,25.77-9.76q-2.81,1.08-5.58,2.09a227.27,227.27,0,0,1-27.44,9c-4.69,1-9.4,2.2-14,2.88a95.8,95.8,0,0,1-13.91,1.06c-2.32.08-4.63-.12-6.93-.22-1.15-.08-2.3-.24-3.44-.35l-1.72-.18-1.7-.28a81.09,81.09,0,0,1-13.34-3.24l-3.23-1.13-3.17-1.31c-1.06-.41-2.09-.91-3.11-1.42s-2.07-.95-3.06-1.53A90.83,90.83,0,0,1,245,379.64a79.92,79.92,0,0,1-13.9-12.89A95.23,95.23,0,0,0,245,379.64a79.53,79.53,0,0,0,21.44,11,85.24,85.24,0,0,0,24.68,4.18,102.28,102.28,0,0,0,17.11-.5,20.33,20.33,0,0,0,2.2-.27l2.19-.33,2.19-.34,2.21-.46,4.36-.94c1.44-.31,2.86-.63,4.22-1,2.25-.62,4.47-1.18,6.67-1.7s4.34-1.18,6.5-1.72l3.23-.83,3.19-1c2.12-.65,4.26-1.28,6.39-2l8-3.42c2.61-1.22,5.2-2.5,7.81-3.75,1.47-.83,3-1.86,4.58-2.77-.07,0-.18.05-.23.05a34.26,34.26,0,0,0-4.06,1.26c-1.79.57-4,1.35-6.5,2.29-5.07,1.84-11.61,4.09-19.17,6.37-1.89.58-3.88,1.05-5.89,1.61s-4.08,1.15-6.24,1.58l-6.54,1.49-6.83,1.23c-2.34.49-4.57.72-6.85,1-1.13.18-2.28.2-3.43.31s-2.29.22-3.45.21a91.25,91.25,0,0,1-13.83-.5A85.9,85.9,0,0,1,275.52,388a80.71,80.71,0,0,1-12.37-4.86,83.94,83.94,0,0,1-10.9-6.51l-2.47-1.82c-.82-.58-1.57-1.27-2.35-1.88-1.56-1.21-3-2.57-4.39-3.83a104.53,104.53,0,0,1-13.23-15.14c-3.35-4.55-5.59-8.41-7.11-10.69a244.44,244.44,0,0,1-13-22.81,120.27,120.27,0,0,1-5.25-12.81c-.37-1.13-.77-2.28-1.11-3.42s-.6-2.26-.91-3.41-.53-2.33-.75-3.52a36.11,36.11,0,0,1-.58-3.63,43.89,43.89,0,0,1-.32-4.75c0-1.53,0-3,.09-4.42s.15-2.78.14-4.11a25,25,0,0,0-.07-3.88c-.59-.55-.67-3.1-.79-5.72a67,67,0,0,1,5.68-18.6c2.55-5.7,5.38-10.75,7.39-15.52,1.57-3.29,7.41-7.57,12.9-10.41l4-2c1.27-.56,2.41-1.08,3.37-1.56,2-.9,3.21-1.59,3.2-2.17,0-4.12.13-4.71,1.73-5.43a84.75,84.75,0,0,0,11.9-5.17,8.17,8.17,0,0,0,1.76-1.28l1.16-1,1.33-1.09a18.58,18.58,0,0,1,5.92-3.61c3.25-.77,5.89-1.4,8.25-2,1.19-.28,2.31-.61,3.39-.92s2.12-.59,3.18-.88a70.43,70.43,0,0,1,6.89-1.56,39.31,39.31,0,0,1,9.13-.52,34.66,34.66,0,0,1,7.21.81,33.35,33.35,0,0,1,5.75,1.77,37.55,37.55,0,0,1,8.49,4.92c2.43,1.82,4.66,3.75,7.16,6a113,113,0,0,1,8.56,8.68,36.42,36.42,0,0,1,3.28,5.26,49.56,49.56,0,0,1,4.13,10.72,51.44,51.44,0,0,1,1.66,11.09c0,1.53,0,2.8,0,3.69l-.05,1.39c-2.16,12.41-7.12,21.78-13.59,29a43.63,43.63,0,0,1-25,13.77c-1.23.79-2.57,1.47-3.92,2.19s-2.81,1.3-4.3,1.86-3,1.13-4.61,1.56l-2.39.68c-.82.21-1.67.4-2.51.6a154.58,154.58,0,0,1-21.25,3.15c-14.59,1.21-29.37.81-42.41.72a105.79,105.79,0,0,1-30.63-4.5c-2.09-.68-4.14-1.38-6.2-2.09s-4.08-1.64-6.19-2.48c-4.18-1.79-8.57-3.8-13.41-6.29-.71-.31-1.42-.56-2.07-.87l-1.91-.87-3.46-1.54a24,24,0,0,1-2.92-1.54,19.33,19.33,0,0,1-2.37-1.65,16.28,16.28,0,0,0-3.05-1.65c-1.25-.59-2.74-1.16-4.31-1.77a39.2,39.2,0,0,1-4.67-2.13c-.76-.4-1.5-.8-2.2-1.22-.35-.21-.7-.42-1-.64s-.61-.48-.89-.73c.73-.18,1.44-.34,2.19-.56-1.53-1.27-4.49-3.85-6-5.13s-.63-1.52.1-1.65c1.46-.27,2.86-.59,1-3.39a108.94,108.94,0,0,1-14.11-18.77l-1-1.08c-.34-.36-.61-.77-.92-1.15l-1.83-2.33-1.86-2.33c-.59-.8-1.12-1.65-1.69-2.47l-1.69-2.48A26.88,26.88,0,0,1,104.7,231q-1.55-2.62-3.07-5.25a4.86,4.86,0,0,1-2.88-1.23l-3.6-6.64C93,217,91.4,218,90,217.29c-2.36.69-5.39-1.35-8.33-3.25s-5.74-3.61-7.6-1.74c-.5.7.19,5.12,1,10.41.49,2.62,1.16,5.42,1.64,8.1s1,5.16,1.23,7.17c0,1.93-3.06-1.31-5.4-2.4,4,9.57,2.59,11-.58,7.61.43,1.18.85,2.37,1.17,3.26a10.88,10.88,0,0,0,.43,1.05l.18.4c-.4-.15-1.23-.46-1.91-.76l-1.26-.56.41,1.23.49,1.21c.34.81.67,1.63,1,2.44l2,5c.63,1.69,1.53,3.27,2.32,4.92l2.47,4.93a23.17,23.17,0,0,0,1.36,2.43l1.44,2.41L85,275.91c1.06,1.56,2.19,3.08,3.31,4.61s2.21,3.1,3.45,4.54c9.63,11.77,21.86,21.37,34.47,27,5.29,2.76,14.71,5.48,20.91,6.94a41.1,41.1,0,0,1,6.12,2.32l3.19,1.46c1,.4,1.82.74,2.41,1,4.68-.29,4.56-2.29,6.78-3.45,2.22.82,4.8,1.65,7.59,2.58,1.39.48,2.85.86,4.35,1.28l4.6,1.25c3.13.78,6.38,1.43,9.6,2.09s6.43,1.06,9.48,1.4,6,.56,8.59.61a66.06,66.06,0,0,0,6.93-.22c3.9-.47,6.17-1.42,5.89-3a62.28,62.28,0,0,0,16.22-1.47A152.36,152.36,0,0,1,255.32,322l7.69-1.05c2.63-.43,5.34-.8,8.1-1.32l4.18-.75,4.26-.85c1.43-.28,2.87-.6,4.33-.93s2.89-.63,4.43-1.05a113.1,113.1,0,0,0,18.39-6.2,88.31,88.31,0,0,0,17.57-10.11,79.17,79.17,0,0,0,15.65-15.86,66.23,66.23,0,0,0,5.86-9.46A63.85,63.85,0,0,0,350,264.08a66.61,66.61,0,0,0,2.86-15.79,69.92,69.92,0,0,0-9-38.67,66.41,66.41,0,0,0-27.43-26.34,67.79,67.79,0,0,0-17.65-6.13,76.14,76.14,0,0,0-18.12-1.3,87.77,87.77,0,0,0-17.4,2.57,107.14,107.14,0,0,0-31.51,13.25c-1.21.77-2.44,1.5-3.61,2.32l-3.52,2.46c-2.28,1.74-4.56,3.47-6.72,5.37a106.16,106.16,0,0,0-22.37,26.59,99.28,99.28,0,0,0-7.75,16.08,101,101,0,0,0-4.91,17.5,104.72,104.72,0,0,0-1.66,18.45,101.8,101.8,0,0,0,1.75,18.76c.53,3.16,1.33,6.25,2.07,9.34s1.66,6,2.66,8.93,2,5.9,3.07,8.82,2.25,5.81,3.57,8.65,2.64,5.66,4,8.46,2.93,5.53,4.56,8.2a137,137,0,0,0,10.63,15.49,114.76,114.76,0,0,0,27.66,25.32,97.08,97.08,0,0,0,34.57,13.88,103.86,103.86,0,0,0,18.39,1.78,117.56,117.56,0,0,0,18.14-1.51l4.43-.82c1.47-.28,2.86-.65,4.29-1l4.27-1c.71-.17,1.42-.32,2.12-.5l2.1-.6c2.78-.81,5.59-1.54,8.33-2.41l8.17-2.72A247.36,247.36,0,0,0,376.79,384l3.63-1.94,1.81-1,1.77-1,7-4.11,6.77-4.31c2.26-1.42,4.38-3,6.56-4.47a256.29,256.29,0,0,0,24-19.06,261,261,0,0,0,20.35-20.42c1.55-1.72,3-3.51,4.48-5.24l2.19-2.6c.7-.88,1.39-1.77,2.07-2.65,1.36-1.77,2.77-3.47,4.05-5.24l3.79-5.27a200.88,200.88,0,0,0,12.79-20.86,155.4,155.4,0,0,0,14.7-38.22,114.06,114.06,0,0,0,3.1-27.87c-.56-2.63-1.2-5.23-1.81-7.8C493.29,209.35,492.45,206.81,491.62,204.31Z"/></g></g><g class="cls-3"><g class="cls-4"><path class="cls-5" d="M487.49,205.22c.15,2.1.36,4.49.62,7.14,0,1.32.07,2.71.11,4.16,0,.73,0,1.46.07,2.22l0,1.14,0,1.16c-.13,3.12-.16,6.46-.6,10-.25,3.52-.95,7.14-1.54,10.93a159,159,0,0,1-6.68,23.53,181.86,181.86,0,0,1-11.12,23.93A200.1,200.1,0,0,1,453.78,312a219.61,219.61,0,0,1-16.54,19.92,224.7,224.7,0,0,1-32,28.44c-.86.68-1.72,1.31-2.59,1.91l-2.54,1.8c-1.68,1.16-3.26,2.35-4.88,3.38l-4.69,3-2.23,1.43-2.21,1.3-4.2,2.45-2,1.15-2,1c-2.58,1.34-5,2.6-7.18,3.68-1.89.87-2.23,1-1.25.5s3.24-1.66,6.54-3.42a242.07,242.07,0,0,0,29.19-18.23c5.26-4,10.92-8.48,16.71-13.79a227.53,227.53,0,0,0,18-18.14,230,230,0,0,1-47.56,36.94,216,216,0,0,1-29.95,17.22,213.8,213.8,0,0,1-35.78,13.34,159.15,159.15,0,0,1-18.44,4,92.46,92.46,0,0,1-18.65.83A86.82,86.82,0,0,1,254.06,391a90.83,90.83,0,0,1-15.48-10.24,101.23,101.23,0,0,1-13.21-13.14,122.74,122.74,0,0,1-10-13.63,132.87,132.87,0,0,1-9.66-18.5A146.12,146.12,0,0,1,199,315.8c-.39-1.57-.81-3.08-1.15-4.56s-.62-2.92-.91-4.29-.47-2.67-.68-3.9-.41-2.38-.48-3.46c.12,1.13.38,2.23.58,3.34s.4,2.22.64,3.34c.55,2.22,1,4.47,1.62,6.68s1.16,4.43,1.89,6.6l1,3.28,1.14,3.23c1.51,4.33,3.31,8.53,5.2,12.69a135.45,135.45,0,0,0,6.45,12.07c9.32,15.63,22.32,29.17,38.18,37.91l3,1.59c1,.5,2,1,3.07,1.44l1.54.71,1.57.62c1,.41,2.1.85,3.15,1.24,2.15.69,4.27,1.49,6.47,2,1.09.28,2.17.63,3.28.85l3.32.69a87,87,0,0,0,13.48,1.47,95.13,95.13,0,0,0,13.6-.52l3.39-.45,1.69-.23,1.68-.32,3.36-.63c1.12-.23,2.24-.54,3.37-.8,2.24-.55,4.49-1.07,6.73-1.64l6.65-2a204,204,0,0,0,25.92-9.89l-5.55,2.23a229.31,229.31,0,0,1-27.6,9.26c-4.72,1.07-9.45,2.29-14.13,3a98.06,98.06,0,0,1-14.18,1.19c-2.37.09-4.73-.09-7.09-.17-1.17-.08-2.35-.22-3.52-.33l-1.76-.17-1.74-.28a82.24,82.24,0,0,1-13.71-3.21l-3.33-1.13c-1.09-.43-2.17-.88-3.26-1.32s-2.15-.92-3.21-1.43-2.13-1-3.15-1.55a93.46,93.46,0,0,1-11.91-7.45,87.2,87.2,0,0,1-14.36-13.11,98.49,98.49,0,0,0,14.36,13.11,84.1,84.1,0,0,0,22,11.36A86.32,86.32,0,0,0,291,397.37a100.91,100.91,0,0,0,17.56-.71A142.1,142.1,0,0,0,326.2,393c2.27-.65,4.5-1.25,6.71-1.81s4.35-1.29,6.51-1.9l3.22-.93,3.18-1.06c2.12-.72,4.25-1.42,6.38-2.18l8-3.5c2.62-1.25,5.22-2.56,7.84-3.83,1.49-.81,3-1.82,4.64-2.73l-.22.07c-.89.27-2.21.81-3.94,1.53s-3.92,1.55-6.42,2.59c-5,2.05-11.55,4.52-19.13,7-1.9.64-3.9,1.17-5.92,1.79s-4.11,1.26-6.28,1.76l-6.6,1.65-6.91,1.41c-2.36.54-4.67.84-7,1.2-1.17.22-2.36.26-3.55.4s-2.37.29-3.57.3a95.4,95.4,0,0,1-14.44-.21A90,90,0,0,1,274.54,392a85.13,85.13,0,0,1-13.14-4.89,86.08,86.08,0,0,1-11.64-6.69l-2.63-1.87c-.88-.6-1.68-1.31-2.51-1.95-1.67-1.26-3.18-2.67-4.69-4a106.77,106.77,0,0,1-14.05-15.75c-3.55-4.75-5.89-8.78-7.44-11.17a197.49,197.49,0,0,1-12.65-24,131.72,131.72,0,0,1-4.87-13.29c-.35-1.16-.72-2.34-1-3.52s-.57-2.36-.86-3.55-.49-2.42-.71-3.65-.46-2.49-.55-3.76c-.78-6.83-.08-12.58-.16-17.8-.4-.56-.32-3.18-.29-5.86A76,76,0,0,1,203,251c2.54-5.93,5.45-11.2,7.8-16,1.73-3.31,7.09-8.18,12.27-11.7l3.76-2.46c1.21-.71,2.31-1.38,3.24-2,1.91-1.13,3.18-2,3.27-2.44.81-3.39,1-3.86,2.59-4.74s4.63-2.22,12.07-6.09a13.54,13.54,0,0,0,1.92-1.23l1.29-1,1.47-1a26.69,26.69,0,0,1,6.36-3.43c3.35-.94,6.1-1.67,8.59-2.32,1.25-.3,2.43-.63,3.58-.93l3.39-.84a73.44,73.44,0,0,1,7.36-1.35,46.6,46.6,0,0,1,9.75-.25,41.49,41.49,0,0,1,7.69,1.06,38.86,38.86,0,0,1,6.16,2,42.87,42.87,0,0,1,9.22,5.17,73.44,73.44,0,0,1,7.72,6.52,82.53,82.53,0,0,1,8.58,9.68,41.47,41.47,0,0,1,3.24,5.68,52.67,52.67,0,0,1,4,11.36,53.71,53.71,0,0,1,1.37,11.6c0,1.58,0,2.9-.12,3.82l-.09,1.44a57.27,57.27,0,0,1-14.23,29.94,51.32,51.32,0,0,1-25.29,14.94A68.14,68.14,0,0,1,281.59,303a181.23,181.23,0,0,1-21.41,3.3c-14.67,1.41-29.59,1.34-42.77,1.13a130.58,130.58,0,0,1-31.07-4.11L180,301.52c-2.11-.68-4.21-1.44-6.39-2.19-4.34-1.6-8.9-3.41-14-5.73-.74-.31-1.47-.56-2.15-.86l-2-.87-3.6-1.55a28.88,28.88,0,0,1-3.05-1.53c-.92-.51-1.77-1-2.53-1.54a33.42,33.42,0,0,0-3.19-1.69c-1.29-.64-2.79-1.31-4.38-2a48.08,48.08,0,0,1-4.74-2.42c-.77-.43-1.53-.87-2.25-1.31l-1.06-.67c-.33-.24-.64-.5-.95-.74.64,0,1.26,0,1.92-.06-1.64-1.28-4.81-3.89-6.39-5.2s-.85-1.37-.22-1.34c1.26.07,2.48.09.21-2.63a106.76,106.76,0,0,1-15.86-19.57l-1-1.22c-.35-.4-.63-.85-.94-1.27l-1.86-2.59L103.68,242c-.59-.88-1.12-1.81-1.68-2.71l-1.68-2.72a31.46,31.46,0,0,1-1.62-2.75l-3-5.69a4.49,4.49,0,0,1-2.21-1.6l-3.3-7.09c-1.58-1.16-2.6-.32-3.62-1.14-1.58.46-3.84-1.85-6-3.95s-4.22-4-5.36-2.26c-.28.64.54,5,1.49,10.18.58,2.56,1.33,5.29,1.92,7.89s1.25,5,1.63,6.89-2.33-1.56-4.1-2.8c3.9,9.31,3,10.43.41,7,.43,1.13.85,2.27,1.17,3.12.15.43.34.76.44,1l.18.38c-.31-.19-1-.56-1.47-.91l-1-.65c4.8,12.3,11.64,25.12,21,36a101.14,101.14,0,0,0,32.77,25.48c5,2.7,13.84,5.63,19.71,7.29,1.46.44,3.73,1.27,5.91,2.2l3.1,1.3c1,.36,1.77.66,2.35.85,4.37.17,4.12-1.21,6.13-1.83,2.18.74,4.71,1.47,7.44,2.3,1.37.44,2.8.78,4.26,1.15l4.51,1.11c3.06.7,6.24,1.28,9.39,1.88s6.28.95,9.27,1.26,5.82.54,8.39.61,4.87.06,6.78,0c3.81-.28,6-.91,5.75-1.94a81.86,81.86,0,0,0,16-1.06c4.38-.67,8.8-1.47,16.24-2.27l7.6-1c2.61-.41,5.29-.75,8-1.25l4.14-.71,4.2-.82c1.42-.27,2.84-.58,4.28-.9s2.86-.6,4.36-1c11.84-2.89,24.22-7.76,34.84-15.64A74.15,74.15,0,0,0,337.45,282a63.17,63.17,0,0,0,5.6-9,60.73,60.73,0,0,0,4-9.84,63.21,63.21,0,0,0,2.75-15,66.53,66.53,0,0,0-8.64-37,63.11,63.11,0,0,0-26.2-25,64.39,64.39,0,0,0-16.83-5.77,72.46,72.46,0,0,0-17.33-1.17,84.77,84.77,0,0,0-16.74,2.55A108.62,108.62,0,0,0,248.32,187a109.77,109.77,0,0,0-14.7,7.68c-1.16.75-2.36,1.46-3.49,2.26l-3.4,2.39c-2.21,1.68-4.42,3.37-6.51,5.21a104.13,104.13,0,0,0-21.67,25.73,101,101,0,0,0-12.43,32.43,103.76,103.76,0,0,0-1.78,17.86,99.81,99.81,0,0,0,1.47,18.26c.47,3.08,1.2,6.11,1.89,9.14s1.54,5.91,2.5,8.83,1.9,5.82,2.9,8.72,2.16,5.74,3.42,8.55,2.54,5.59,3.86,8.37,2.83,5.47,4.42,8.11a132.91,132.91,0,0,0,10.34,15.31,111.33,111.33,0,0,0,27.05,25,94.5,94.5,0,0,0,33.89,13.67,100.82,100.82,0,0,0,18,1.72,113.37,113.37,0,0,0,17.82-1.52l4.36-.82c1.45-.28,2.83-.66,4.25-1l4.22-1c.7-.17,1.41-.32,2.1-.51l2.08-.6c2.75-.82,5.53-1.55,8.24-2.43l8.08-2.74A239.47,239.47,0,0,0,375.69,382l3.58-1.94,1.79-1,1.74-1,6.9-4.12,6.66-4.33c2.22-1.43,4.31-3,6.44-4.49A250.23,250.23,0,0,0,426.35,346a257.3,257.3,0,0,0,19.83-20.4c1.51-1.72,2.91-3.5,4.35-5.22l2.12-2.59c.68-.88,1.34-1.76,2-2.64,1.31-1.76,2.67-3.46,3.91-5.21l3.65-5.23a196.77,196.77,0,0,0,12.26-20.63,151.66,151.66,0,0,0,13.77-37.35A111.7,111.7,0,0,0,490.93,220c-.43-2.5-.94-5-1.42-7.45C488.87,210.07,488.17,207.64,487.49,205.22Z"/></g></g><g class="cls-3"><g class="cls-4"><path class="cls-5" d="M483.36,206.14c.25,2,.55,4.23.87,6.75.08,1.26.16,2.59.25,4,0,.69.08,1.4.13,2.12l.06,1.09v1.12c0,3,0,6.23-.34,9.61-.16,3.41-.77,6.94-1.28,10.64a149.15,149.15,0,0,1-6.18,23.11,176,176,0,0,1-10.67,23.69A197.75,197.75,0,0,1,452,310.73a217.57,217.57,0,0,1-16.21,19.89,230.92,230.92,0,0,1-31.41,28.61q-1.26,1-2.55,1.92L399.34,363c-1.66,1.17-3.22,2.37-4.82,3.42l-4.62,3.05-2.2,1.46c-.74.44-1.47.88-2.18,1.32l-4.15,2.49-2,1.18L377.46,377c-2.54,1.37-4.88,2.66-7.07,3.79-1.87.9-2.19,1.05-1.22.55s3.22-1.68,6.48-3.47a234,234,0,0,0,28.75-18.59c5.19-4,10.78-8.53,16.49-13.85a228.41,228.41,0,0,0,17.75-18.15,234.84,234.84,0,0,1-46,38.43,220.64,220.64,0,0,1-29.91,17.41,213.65,213.65,0,0,1-35.83,13.54,161.65,161.65,0,0,1-18.52,4.07,94,94,0,0,1-18.81.91,88.19,88.19,0,0,1-36-9.67,93,93,0,0,1-15.73-10.26,103.05,103.05,0,0,1-13.49-13.18,119.6,119.6,0,0,1-10.18-13.73,134.24,134.24,0,0,1-9.87-18.65,147.07,147.07,0,0,1-10.49-36.2c.13,1.15.39,2.27.6,3.4s.41,2.27.66,3.39c.56,2.26,1,4.53,1.65,6.76s1.2,4.48,1.93,6.68l1,3.32,1.17,3.27c1.53,4.37,3.37,8.63,5.29,12.84s4.14,8.28,6.58,12.21c9.5,15.84,22.75,29.59,38.94,38.45l3,1.62c1,.5,2.09,1,3.14,1.45l1.57.72,1.6.63c1.07.42,2.14.86,3.22,1.25,2.19.7,4.35,1.51,6.6,2,1.11.28,2.21.63,3.34.85l3.39.7a87.72,87.72,0,0,0,13.73,1.45,95.27,95.27,0,0,0,13.82-.56l3.44-.47,1.71-.23,1.71-.33,3.4-.65c1.14-.24,2.27-.54,3.4-.81,2.26-.56,4.52-1.09,6.78-1.68l6.7-2a206.82,206.82,0,0,0,26.07-10l-5.54,2.38a231.76,231.76,0,0,1-27.75,9.53c-4.76,1.12-9.5,2.37-14.28,3.16a100.15,100.15,0,0,1-14.44,1.32c-2.42.11-4.83-.05-7.24-.12-1.21-.07-2.41-.21-3.61-.31l-1.8-.17-1.79-.26a84.76,84.76,0,0,1-14.07-3.19l-3.42-1.14c-1.13-.42-2.24-.88-3.36-1.32s-2.21-.93-3.3-1.45-2.2-1-3.25-1.56a94.86,94.86,0,0,1-27.09-20.87,100.6,100.6,0,0,0,14.81,13.32A86.5,86.5,0,0,0,291,399.94a98.09,98.09,0,0,0,18-.93,156.15,156.15,0,0,0,17.83-3.89l6.75-1.92c2.21-.65,4.36-1.4,6.52-2.08l3.22-1,3.17-1.16c2.11-.79,4.23-1.55,6.35-2.37l8-3.59c2.63-1.27,5.24-2.61,7.86-3.91,1.52-.78,3.07-1.77,4.71-2.68l-.21.09c-.84.36-2.13,1-3.83,1.81s-3.86,1.74-6.34,2.89c-5,2.26-11.48,4.95-19.09,7.7-1.9.69-3.91,1.29-5.94,2s-4.13,1.38-6.32,1.94L325,394.6l-7,1.59a104.72,104.72,0,0,1-14.53,2.25,96.91,96.91,0,0,1-15.05.07A92.55,92.55,0,0,1,273.57,396a87.85,87.85,0,0,1-13.92-4.91,90.14,90.14,0,0,1-12.37-6.86l-2.8-1.94c-.94-.62-1.79-1.35-2.67-2-1.78-1.31-3.38-2.76-5-4.12a108,108,0,0,1-14.89-16.35c-3.74-5-6.18-9.14-7.76-11.65a168.34,168.34,0,0,1-12.29-25.13c-1.64-4.43-3.22-9-4.49-13.76a94.15,94.15,0,0,1-3-15,117,117,0,0,1-.16-18.44c-.21-.55,0-3.26.21-6a85.46,85.46,0,0,1,5.63-20,145.68,145.68,0,0,1,8.2-16.41c1.89-3.33,6.77-8.78,11.65-13l3.54-3,3.12-2.39a20.51,20.51,0,0,0,3.34-2.7c1.6-2.67,1.88-3,3.44-4.06s4.47-2.83,12.26-7c.48-.23,1.19-.66,2.07-1.19l1.41-.87,1.61-.91a45.49,45.49,0,0,1,6.8-3.23c3.46-1.12,6.33-1.94,8.94-2.63l3.76-1,3.6-.78a74.3,74.3,0,0,1,7.84-1.14,54,54,0,0,1,10.36,0,48.55,48.55,0,0,1,8.18,1.33,47.64,47.64,0,0,1,6.58,2.11,48.36,48.36,0,0,1,9.94,5.44,61.11,61.11,0,0,1,8.27,7,66.9,66.9,0,0,1,8.62,10.69,49.27,49.27,0,0,1,3.19,6.09,57.34,57.34,0,0,1,4.88,24.1c-.06,1.65-.12,3-.23,4l-.14,1.49a58,58,0,0,1-5.64,17.67,53.37,53.37,0,0,1-4.28,7.11,57.89,57.89,0,0,1-5,6.11,61.19,61.19,0,0,1-25.6,16.11A84,84,0,0,1,282,305.07a213.22,213.22,0,0,1-21.56,3.44,324.1,324.1,0,0,1-43.14,1.55,168.73,168.73,0,0,1-31.51-3.72l-6.53-1.58c-2.17-.59-4.34-1.25-6.6-1.91-4.48-1.4-9.23-3-14.54-5.18-.77-.3-1.52-.54-2.23-.84l-2.05-.87-3.73-1.56c-1.17-.46-2.21-1-3.18-1.51s-1.87-1-2.7-1.45-2-1-3.32-1.71-2.86-1.46-4.46-2.26a54.3,54.3,0,0,1-4.8-2.7l-2.31-1.41-1.1-.7c-.34-.25-.67-.51-1-.76.55.16,1.07.35,1.64.46-1.74-1.29-5.12-3.93-6.81-5.27s-1.06-1.24-.53-1c1,.4,2.08.78-.54-1.86a106.68,106.68,0,0,1-17.63-20.39l-1-1.34c-.35-.44-.64-.94-1-1.41l-1.88-2.83-1.88-2.82c-.59-1-1.11-2-1.67-3l-1.66-3a32.67,32.67,0,0,1-1.59-3c-1-2-1.91-4.09-2.86-6.12a5.75,5.75,0,0,1-1.56-2c-1-2.52-2-5-3-7.54-1-1.38-1.45-.7-2.12-1.65-.78.23-2.28-2.35-3.69-4.65s-2.7-4.33-3.11-2.79c-.07.6.89,4.88,2,10,.66,2.51,1.5,5.17,2.2,7.69s1.49,4.82,2,6.61-1.6-1.81-2.81-3.2c3.8,9,3.47,9.87,1.4,6.33l1.19,3c.15.41.34.73.44,1l.18.37c-.22-.22-.68-.65-1-1l-.65-.75a119.45,119.45,0,0,0,20.88,33.58,107.89,107.89,0,0,0,31.07,24c4.67,2.63,13,5.79,18.51,7.64,1.38.48,3.58,1.24,5.7,2.07l3,1.15,2.28.75c4.08.64,3.68-.13,5.49-.21,2.14.66,4.62,1.29,7.3,2,1.33.39,2.73.68,4.17,1l4.41,1c3,.61,6.1,1.11,9.17,1.65s6.14.84,9.06,1.13,5.69.52,8.2.62,4.76.14,6.62.14c3.72-.1,5.91-.4,5.62-.92a120.67,120.67,0,0,0,15.74-.64l16.07-1.7a272.75,272.75,0,0,0,32.18-5.38c11.54-2.75,23.53-7.44,33.72-15A69,69,0,0,0,335,280.2a61.06,61.06,0,0,0,5.33-8.61,58.79,58.79,0,0,0,3.84-9.36,60.64,60.64,0,0,0,2.64-14.33,62.94,62.94,0,0,0-8.25-35.23,59.75,59.75,0,0,0-25-23.73,61,61,0,0,0-16-5.41,69.37,69.37,0,0,0-16.55-1A82.05,82.05,0,0,0,265,185a105.38,105.38,0,0,0-15.23,5.16,107.51,107.51,0,0,0-14.21,7.48c-1.12.73-2.27,1.41-3.37,2.19l-3.28,2.32c-2.13,1.64-4.27,3.27-6.29,5.06a102.08,102.08,0,0,0-21,24.86,95.43,95.43,0,0,0-7.37,15,97,97,0,0,0-4.83,16.31,100.08,100.08,0,0,0-.72,35c.41,3,1.09,6,1.71,8.93.77,2.91,1.44,5.85,2.34,8.73s1.79,5.75,2.75,8.62,2.05,5.68,3.26,8.45,2.44,5.54,3.72,8.29,2.73,5.4,4.27,8a128.18,128.18,0,0,0,10.05,15.14,108.12,108.12,0,0,0,26.44,24.69,91.66,91.66,0,0,0,33.21,13.45,98.77,98.77,0,0,0,17.7,1.68,111.93,111.93,0,0,0,17.5-1.54,210.72,210.72,0,0,0,32.94-9.14,232.49,232.49,0,0,0,30-13.73l3.53-1.95,1.76-1,1.71-1,6.8-4.15c2.2-1.45,4.38-2.91,6.55-4.35s4.23-3,6.33-4.5a242.28,242.28,0,0,0,23.07-19.13,250.35,250.35,0,0,0,19.32-20.38c1.46-1.71,2.82-3.48,4.21-5.2l2.06-2.57,1.93-2.63c1.27-1.75,2.59-3.44,3.78-5.18l3.52-5.19a193.12,193.12,0,0,0,11.71-20.39,147.53,147.53,0,0,0,12.86-36.49A109.77,109.77,0,0,0,486,220.24c-.31-2.38-.68-4.75-1-7.1C484.45,210.79,483.89,208.46,483.36,206.14Z"/></g></g><g class="cls-6"><g class="cls-4"><path class="cls-5" d="M125.48,104.46c4.68-2.72,10.35-6.65,17.3-10.81s15-8.8,23.92-13.44l7-3.32,3.57-1.7L181,73.62c2.5-1,5-2.14,7.59-3.19l7.91-2.93a239.69,239.69,0,0,1,69.48-13.84,232.91,232.91,0,0,1,34.56,1l8.15.94,7.86,1.3c1.28.23,2.57.39,3.82.68l3.72.81c2.46.55,4.88,1,7.21,1.63l6.8,1.85c1.1.31,2.2.58,3.26.92l3.13,1,6,2c1.92.65,3.72,1.43,5.47,2.1C361.33,69.78,366.28,72,371,74c2.32,1,4.51,2.19,6.66,3.24s4.21,2,6.13,3.19c3.87,2.21,7.52,4.15,10.72,6.31s6.24,4,8.84,6c2.22,1.64,2.57,2,1.36,1.17s-3.93-2.79-8.15-5.34a234.49,234.49,0,0,0-40.64-20.71,222.87,222.87,0,0,0-61.34-13.15A220.33,220.33,0,0,1,337,65.5a213.4,213.4,0,0,1,32.72,15.19,211.55,211.55,0,0,1,39.09,22.43,227.07,227.07,0,0,1,36.86,33.44,214.46,214.46,0,0,1,28.23,40.23,208.86,208.86,0,0,1,25.47,93.62c.39,11.84,0,30.77-3.59,49.15-.46,2.29-.93,4.58-1.39,6.85s-1.11,4.48-1.65,6.69c-1,4.43-2.46,8.63-3.71,12.63-.59,2-1.38,3.9-2.06,5.75l-2,5.31c-1.44,3.34-2.83,6.33-4,8.9a215.09,215.09,0,0,0,9.73-139.84,220.87,220.87,0,0,0-12.17-33.62l-1.9-4.06c-.63-1.36-1.26-2.71-2-4l-4.21-7.91-4.59-7.69c-.74-1.31-1.59-2.54-2.42-3.78L460.91,161a222.66,222.66,0,0,0-22.52-27.93,226,226,0,0,0-26.87-23.83c2.07,1.59,3.92,3.42,5.8,5.15a218.52,218.52,0,0,1,26.78,26.43,222.68,222.68,0,0,1,21.66,30.59,209.14,209.14,0,0,1,16,33.71,215.65,215.65,0,0,1,9.72,35.89,166.12,166.12,0,0,1,3.05,25.43,220,220,0,0,0-3.05-25.43c-1-5.42-2.46-10.69-3.91-16q-1.24-3.9-2.52-7.82c-.39-1.32-.92-2.59-1.4-3.88s-1-2.58-1.48-3.87a233.58,233.58,0,0,0-14.93-30.87l-5.67-9.88-3.12-5-1.56-2.52-.78-1.27-.85-1.22a173.54,173.54,0,0,0-14.14-18.55c-7.9-9.2-15.26-17.76-23.81-25.78L413,110.84l-4.51-3.38c-1.52-1.11-3-2.29-4.54-3.36L399.25,101c-1.92-1.08-3.94-2.28-6.08-3.4a2.08,2.08,0,0,1,.21.22c.41.46,1,1,1.64,1.62s1.45,1.4,2.36,2.21,1.93,1.73,3.07,2.7l1.78,1.51,1,.79.95.88c5.2,4.7,12,10.57,19,18.06l2.72,2.8c.91.95,1.77,2,2.67,3,1.78,2.06,3.69,4.08,5.5,6.28l5.47,6.78c1.82,2.33,3.54,4.81,5.36,7.25a223.58,223.58,0,0,1,19.3,32.52,215.73,215.73,0,0,1,13.42,35.52,207.38,207.38,0,0,1,6.54,34,220.46,220.46,0,0,1,1.39,27.71c0,1.93,0,3.75-.05,5.45s-.15,3.3-.21,4.76-.09,2.8-.13,4-.14,2.26-.17,3.19c-.51,11.74-.82,23.13-2.35,34.88a133.88,133.88,0,0,1-9.43,36.29c-1.67,4.19-4,7.7-5.84,11.1-.92,1.71-2,3.28-2.82,4.89a37,37,0,0,0-2.25,4.84c.38,1-1.06,4.21-2.44,7.49L458,401.14c-.62.95-1.31,1.84-2,2.76q-2,2.72-4.08,5.36c-1.41,1.74-2.91,3.38-4.35,5s-2.82,3.31-4.35,4.81c-3,3.05-5.69,6.16-8.47,8.95-1.35,1.43-2.63,2.86-3.82,4.3-.59.73-1.19,1.42-1.79,2.1s-1.15,1.39-1.69,2.09a18.87,18.87,0,0,1-3.37,2.84c-.71.47-1.45,1-2.28,1.43s-1.72.89-2.64,1.33c-1.84.89-3.81,1.75-5.81,2.59-1,.43-2,.8-3.06,1.15l-3.09,1.05-5.78,1.91c-1.85.52-3.53,1-4.95,1.47-2.85.92-4.67,1.76-4.79,2.51-.85,5.48-1,6.28-3.37,7l-5.56,1.59c-1.34.41-2.92.95-4.78,1.7l-3,1.27c-1.11.43-2.29.92-3.56,1.48a11.86,11.86,0,0,0-2.53,1.68c-1,.82-2.22,1.88-3.55,2.83s-2.74,2-4.15,2.88a16,16,0,0,1-4.12,2c-2.26.53-4.29,1.07-6.16,1.62l-2.69.81c-.88.24-1.72.48-2.54.73-1.63.49-3.17,1-4.66,1.56-.74.26-1.47.57-2.21.82l-2.23.77L332,483.28l-2.44.9-2.63.82c-1.81.56-3.77,1.15-5.91,1.76s-4.52,1-7.14,1.59a94.35,94.35,0,0,1-10.65,2c-1.62.25-3.18.45-4.68.53s-2.94.19-4.33.26-2.72.14-4,.15l-3.78-.08c-2.46-.1-4.79-.09-7.09-.27s-4.58-.33-6.92-.42l-1.76-.06-1.8-.12c-1.21-.07-2.45-.13-3.73-.17s-2.6-.05-4,0l-4.29-.08c-3,0-6.26.13-9.87.07-.44,0-1.52-.08-3.08-.21s-3.6-.27-5.91-.65l-7.76-1.13-8.53-1.7c-1.45-.26-2.86-.65-4.25-1l-4.07-1c-1.32-.35-2.61-.62-3.79-1l-3.34-1-5-1.52c-1.21-.35-1.87-.62-1.87-.62-16.11-7.41-28.91-14.06-40-21.65s-20.44-16.2-27.87-28.12c-12.87-9.56-24.41-24.71-33.11-41.4L95.3,382.7c-.5-1.06-1-2.11-1.52-3.18l-1.37-3.25c-.9-2.17-1.84-4.31-2.71-6.47s-1.61-4.35-2.4-6.51c-.4-1.08-.83-2.14-1.19-3.22s-.71-2.17-1.06-3.24l-2.14-6.38q-.93-3.19-1.9-6.29c-.33-1-.65-2.06-1-3.08L79.17,338q-.87-3-1.63-5.87c-.27-.95-.47-1.89-.65-2.82l-.55-2.75c-.35-1.8-.68-3.54-1-5.24s-.42-3.37-.6-5-.31-3.2-.44-4.75-.12-3.07-.16-4.57l0-4.41c0-.72,0-1.44,0-2.16l.14-2.15c.58-11.38,2.57-22.15,5.79-36.15.14-1,.33-2,.51-2.92s.33-1.86.49-2.74c.29-1.77.57-3.42.83-5a41.1,41.1,0,0,1,2.34-7.91,10.3,10.3,0,0,0,.62-2,24.42,24.42,0,0,0,.52-2.53c.29-1.84.5-4,.71-6.24s.65-4.57,1.06-6.85q.31-1.71.72-3.33a25.31,25.31,0,0,1,1.06-3l1.56,2.62c.53-1.25,1.31-3.11,2.09-5s1.54-3.72,2.16-4.92c1.17-2.43,1.63-1.52,2.12-.62,1,1.79,1.94,3.51,4.68-.31a298.89,298.89,0,0,1,17.36-28.22,238,238,0,0,1,16.4-28.88,7.37,7.37,0,0,1-.29-4.19l1.32-2.17c.45-.71.94-1.39,1.41-2.09l2.87-4.18c-.24-3.08-2.49-4.38-2.61-6.48-2.33-2.35-1.88-7.14-1.58-11.75s.47-8.93-2.89-9.93c-.57-.07-2,.78-4,2.17-1,.7-2.15,1.53-3.39,2.45s-2.61,1.9-3.93,3c-2.66,2.23-5.61,4.57-8.37,6.79a67.44,67.44,0,0,1-7.54,5.69c-2.27,1.14-.33-4.3-.5-7.62a67.1,67.1,0,0,1-5.44,5.6,8.69,8.69,0,0,1-3.12,2.17c-1.44.37-1.61-1.28-.68-4.15l-4.3,4.79-.41-4.45c-12.1,12.74-24.09,27.46-33.62,43.8s-16.37,34.19-19,51.56c-.34,1.84-.66,4-1,6.35s-.38,4.89-.53,7.44c-.39,5.09-.24,10.32-.23,14.45a62.88,62.88,0,0,1-1.05,8.46c-.56,3.15-1.25,6.21-1.36,7.86,1.9,5.88,4.44,5.11,6.67,7.58a193.81,193.81,0,0,0-1.33,22.87c0,1.07,0,2.16,0,3.25L40.6,307l.35,6.58c0,1.1.15,2.19.29,3.27s.25,2.16.37,3.23c.26,2.14.53,4.25.82,6.3.71,4.07,1.54,7.92,2.38,11.37a77.09,77.09,0,0,0,3,8.89,27.91,27.91,0,0,0,1.54,3.22A14,14,0,0,0,51,352c1.06,1.12,2.06,1.5,3,1,.69,2.39,1.37,4.52,2,6.46s1.51,3.63,2.24,5.22a69,69,0,0,0,4.57,8.43c1.63,2.59,3.19,5.22,5.05,8.28,1,1.51,1.94,3.15,3,5s2.06,3.88,3.36,6.08a243.91,243.91,0,0,0,60.31,72.1,273.08,273.08,0,0,0,45.26,28.77l2.21,1.12,2.25,1,4.43,2c1.47.64,2.91,1.32,4.36,1.91l4.34,1.68a246.57,246.57,0,0,0,92.06,16.8,234.23,234.23,0,0,0,85.53-17.06,225.41,225.41,0,0,0,38.41-20.09,217.82,217.82,0,0,0,34.23-27.58A214,214,0,0,0,497.76,376c.79-1.88,1.38-3.84,2.06-5.76l2-5.79c1.22-3.89,2.29-7.83,3.45-11.74.94-4,2-7.91,2.84-11.89l1.17-6c.38-2,.82-4,1.08-6a250,250,0,0,0,3.08-48.61A246.09,246.09,0,0,0,507,232.22,240,240,0,0,0,363.53,65.61a245.38,245.38,0,0,0-77-17,256.79,256.79,0,0,0-35.54.75l-8.36.91c-2.75.33-5.44.83-8.1,1.23l-4,.63c-1.31.24-2.6.53-3.88.79l-7.61,1.58a242.88,242.88,0,0,0-50.15,17.8,209.51,209.51,0,0,0-30.29,17.79l-3.42,3.5c-.56.59-1.14,1.15-1.69,1.76l-1.62,1.83Z"/></g></g><g class="cls-6"><g class="cls-4"><path class="cls-5" d="M49.4,268.87c1.16-5.16,2.17-11.85,4-19.62,1.62-7.78,4-16.62,6.86-26.13l2.45-7.21q.63-1.83,1.26-3.69l1.45-3.71c1-2.48,1.95-5,3-7.55s2.26-5,3.4-7.61a234.75,234.75,0,0,1,38.46-58.58A232.44,232.44,0,0,1,135,111.06l6.34-5.09,6.39-4.65c1.06-.75,2.07-1.54,3.14-2.23L154,97c2.1-1.35,4.11-2.74,6.17-4l6-3.52c1-.57,1.94-1.16,2.92-1.67L172,86.35l5.55-2.85c1.79-.91,3.59-1.65,5.28-2.43C188,78.54,193,76.6,197.73,74.69c2.37-.91,4.7-1.67,6.94-2.46s4.39-1.56,6.54-2.14c4.26-1.21,8.18-2.45,11.94-3.22s7.16-1.7,10.39-2.17c2.71-.45,3.18-.5,1.77-.2s-4.73.84-9.49,2.06a229.19,229.19,0,0,0-43,14.51,221.83,221.83,0,0,0-52.08,34.16A216.9,216.9,0,0,1,201,78.72a213.38,213.38,0,0,1,43.54-12,226.84,226.84,0,0,1,49.84-2.61A215.88,215.88,0,0,1,343,72.5a211.74,211.74,0,0,1,84.88,48,228.36,228.36,0,0,1,32.61,37.38l3.92,5.85c1.3,1.94,2.42,4,3.62,5.93,2.44,3.88,4.44,7.87,6.43,11.6,1,1.85,1.83,3.75,2.68,5.54s1.63,3.55,2.4,5.21c1.39,3.39,2.57,6.49,3.59,9.17A216.69,216.69,0,0,0,250.64,68.35c2.59-.37,5.21-.43,7.78-.6a220.09,220.09,0,0,1,37.9-.46,224.53,224.53,0,0,1,37.3,6.16,210.76,210.76,0,0,1,35.56,12.44,217.37,217.37,0,0,1,32.7,18.51,177.68,177.68,0,0,1,20.46,15.89,219.88,219.88,0,0,0-20.46-15.89c-4.58-3.18-9.4-5.89-14.2-8.64l-7.39-3.82c-1.22-.66-2.51-1.2-3.77-1.78l-3.82-1.73A230.55,230.55,0,0,0,340,76.91L328.83,74,323,72.68,320.09,72l-1.47-.33-1.48-.25a186.33,186.33,0,0,0-23.38-3,283.63,283.63,0,0,0-35.34-.75l-5.65.57-5.62.84c-1.87.29-3.75.51-5.61.87L236,71.15c-2.14.57-4.44,1.12-6.76,1.84a1.62,1.62,0,0,1,.3,0c.6,0,1.37-.07,2.28-.16s2-.14,3.23-.25,2.58-.26,4.07-.43l2.34-.27,1.24-.15,1.3-.1c7-.57,16-1.42,26.42-1.31l3.95,0c1.33,0,2.69.1,4.06.15,2.75.14,5.57.18,8.45.4l8.79.78c3,.31,6,.81,9.07,1.2a223.6,223.6,0,0,1,37.4,8.92A217,217,0,0,1,377.6,97.2a209.15,209.15,0,0,1,29.49,19.51,216.69,216.69,0,0,1,21.2,18.89c1.39,1.41,2.73,2.71,3.94,4l3.29,3.6,2.8,3c.84.9,1.53,1.75,2.17,2.45,8.06,8.94,15.75,17.65,22.8,27.42a150.65,150.65,0,0,1,18.58,33.27,110,110,0,0,1,3.87,12.15c.6,1.88,1,3.75,1.51,5.53a52.35,52.35,0,0,0,1.75,5.13c.81.51,1.92,3.87,3.12,7.25l.76,3.36c.23,1.12.38,2.26.56,3.39.35,2.26.67,4.52,1,6.77s.38,4.5.57,6.71.41,4.4.42,6.57c.09,4.32.41,8.5.41,12.49.05,2,.14,3.94.27,5.83.09.94.13,1.87.16,2.79s.11,1.82.18,2.7a25.82,25.82,0,0,1-.32,4.46c-.14.84-.26,1.74-.48,2.67s-.48,1.88-.76,2.86c-.55,2-1.18,4-1.85,6.07-.31,1-.7,2.06-1.11,3.07s-.8,2-1.2,3l-2.27,5.64c-.8,1.74-1.52,3.34-2.1,4.73-1.18,2.77-1.79,4.73-1.49,5.32,2.22,4.34,2.51,5,1.51,7.25-.52,1.12-1.25,2.69-2.5,5.26-.6,1.29-1.28,2.84-2,4.75-.38.95-.74,2-1.19,3.13s-.95,2.34-1.46,3.67a15.83,15.83,0,0,0-.71,3c-.24,1.32-.44,2.9-.81,4.51s-.73,3.35-1.18,5a20.43,20.43,0,0,1-1.6,4.39c-1.18,2-2.21,3.92-3.14,5.68-.46.88-.87,1.74-1.32,2.55l-1.3,2.36c-.82,1.54-1.56,3-2.26,4.48-.36.72-.68,1.46-1,2.17l-1.1,2.14-2.2,4.44-1.17,2.37L460,397.36l-3.11,5.45c-1.16,1.95-2.58,3.95-4.09,6.21-2.1,3.45-4.38,6.29-6.38,9-1,1.33-2,2.59-3,3.72l-2.93,3.3c-1,1-1.86,2.06-2.77,3l-2.76,2.68c-1.81,1.71-3.47,3.41-5.24,5s-3.5,3.08-5.24,4.7l-1.32,1.23-1.38,1.2c-.93.81-1.87,1.65-2.83,2.53s-1.94,1.8-2.95,2.77-2.11,1.89-3.22,2.92c-2.23,2-4.54,4.4-7.27,6.81-.33.3-1.18,1-2.41,2s-2.83,2.31-4.79,3.65L391.84,468l-7.41,4.73c-1.24.83-2.53,1.53-3.79,2.25l-3.68,2.1c-1.2.67-2.33,1.37-3.45,1.93l-3.14,1.59L365.69,483a19.22,19.22,0,0,1-1.79.85c-16.75,6.31-30.71,10.48-44,12.95s-26.09,3.08-39.94.64c-16,1.69-35-.82-53.22-6.33l-6.77-2.26c-1.13-.38-2.27-.74-3.38-1.15l-3.32-1.3c-2.2-.88-4.41-1.71-6.59-2.61l-6.41-2.87c-1.06-.48-2.13-.91-3.17-1.42L194,478l-6.11-3L182,471.84l-2.9-1.51-2.8-1.58-5.35-3.07c-.87-.49-1.68-1-2.48-1.56l-2.36-1.57-4.46-3c-1.41-1-2.73-2.09-4-3.11l-3.76-3c-1.22-1-2.32-2.07-3.45-3.08l-3.25-3.06c-.53-.5-1.06-1-1.58-1.51l-1.48-1.59c-8-8.31-14.68-17.09-22.85-29.22L114.78,406a57.39,57.39,0,0,1-4.22-7.27,14.53,14.53,0,0,0-1-1.85c-.4-.69-.89-1.43-1.44-2.21-1.09-1.57-2.42-3.31-3.82-5.13s-2.7-3.86-4-5.83c-.64-1-1.25-2-1.82-3s-1-2-1.43-2.94l2.46,1.06-2.18-5.07c-.82-1.89-1.65-3.77-2.1-5.08-1-2.58-.15-2.18.65-1.79,1.61.78,3.19,1.5,2.1-3.16a269.83,269.83,0,0,1-8.77-33.11,232,232,0,0,1-8-33.31,7,7,0,0,1-2.43-2.9L78.21,292c-.14-.85-.25-1.7-.37-2.55l-.72-5.12c-1.77-2.06-3.65-1.37-4.83-2.79-2.49,0-4.75-3.75-7-7.21s-4.42-6.56-6.76-4.84c-.34.35-.68,2-1,4.36-.18,1.2-.36,2.59-.54,4.11s-.41,3.17-.49,4.88c-.22,3.44-.54,7.15-.8,10.63a82.79,82.79,0,0,1-.84,9.24c-.56,2.36-2.5-2.84-4.38-5.06.22,3.29.22,5.82.21,7.67a10.73,10.73,0,0,1-.41,3.65c-.54,1.23-1.53.18-2.64-2.48l.43,6.29-2.66-2.87a237.07,237.07,0,0,0,8.08,53C58.4,380.54,66.12,397.4,76,411.28c1,1.51,2.26,3.24,3.62,5.08s3,3.69,4.59,5.59c3.11,3.84,6.69,7.43,9.44,10.35,1.34,1.49,3.3,4,5.13,6.53s3.53,5,4.61,6.23c5,3.05,5.81,1.16,8.67,1.69a198.27,198.27,0,0,0,15.21,16.44c.75.73,1.49,1.49,2.27,2.21l2.39,2.13,4.84,4.25c.8.72,1.63,1.39,2.47,2l2.51,1.94,4.93,3.76c3.31,2.31,6.54,4.39,9.49,6.23s5.78,3.14,8.12,4.21a31.87,31.87,0,0,0,3.21,1.3,16.41,16.41,0,0,0,2.54.58c1.43.18,2.3-.08,2.49-.85,2.14,1.17,4.09,2.18,5.89,3.08s3.55,1.51,5.15,2.13a74.58,74.58,0,0,0,8.9,2.95l9.15,2.55c1.7.44,3.51.93,5.5,1.52s4.11,1.32,6.54,1.95a238.39,238.39,0,0,0,92.27,8.56,260.19,260.19,0,0,0,51.66-11.41l2.33-.76,2.26-.87,4.48-1.71c1.47-.58,2.94-1.1,4.37-1.71l4.21-1.84a240.64,240.64,0,0,0,75.89-52.61,230.79,230.79,0,0,0,47.48-71.68,224.7,224.7,0,0,0,12.67-40.76,217.77,217.77,0,0,0-13.52-132A241.66,241.66,0,0,0,404.29,90.76,235.51,235.51,0,0,0,187.11,75.13a240.61,240.61,0,0,0-65.27,42.44,250.85,250.85,0,0,0-24,25.51l-5.11,6.51c-1.66,2.16-3.16,4.39-4.72,6.54l-2.29,3.23c-.73,1.08-1.41,2.19-2.12,3.27-1.39,2.17-2.76,4.32-4.12,6.43a238.87,238.87,0,0,0-21.94,47.4,209.81,209.81,0,0,0-8.34,33.39l-.11,4.77c0,.79,0,1.58,0,2.38l.06,2.38Z"/></g></g><g class="cls-6"><g class="cls-4"><path class="cls-5" d="M110.8,435.85c-2.93-4.24-7-9.48-11.33-16S90.4,405.67,85.64,397.1q-1.67-3.28-3.4-6.69c-.57-1.14-1.16-2.29-1.74-3.44s-1.08-2.37-1.62-3.58c-1.07-2.4-2.2-4.83-3.27-7.32s-2-5.07-3-7.66a238.46,238.46,0,0,1-9.8-32.92A244.57,244.57,0,0,1,58,300.66a231.48,231.48,0,0,1,.49-33.94q.42-4.07.82-8c.39-2.62.78-5.21,1.16-7.75.21-1.27.34-2.53.61-3.77s.49-2.46.73-3.68c.51-2.42.93-4.81,1.49-7.12s1.15-4.54,1.7-6.73c.29-1.09.53-2.18.85-3.23l1-3.11,1.83-5.92c.6-1.9,1.32-3.69,1.94-5.43,1.8-5.42,3.94-10.34,5.86-15,1-2.31,2.09-4.49,3.08-6.63s2-4.21,3-6.13c2.11-3.87,4-7.53,6-10.74s3.76-6.29,5.67-8.92c1.55-2.25,1.84-2.63,1-1.42s-2.71,3.94-5.17,8.18A225.07,225.07,0,0,0,70.54,212a221.13,221.13,0,0,0-12.2,60.61,220.13,220.13,0,0,1,8.45-42.34A223.17,223.17,0,0,1,80,196.88a215.77,215.77,0,0,1,22.23-39.42,226,226,0,0,1,33.35-37.31A216.54,216.54,0,0,1,270.25,64.81,227.89,227.89,0,0,1,320.09,68l7,1.35c2.31.44,4.56,1.08,6.81,1.6,4.5,1,8.79,2.4,12.87,3.61,2.06.56,4,1.34,5.88,2l5.44,1.95c3.42,1.39,6.49,2.72,9.15,3.86A218.37,218.37,0,0,0,107,153.73c1.55-2.13,3.33-4.07,5-6a222.26,222.26,0,0,1,26.53-27.48A226.2,226.2,0,0,1,169.4,97.83a213,213,0,0,1,34.17-16.7A219.29,219.29,0,0,1,240.1,70.79a193.69,193.69,0,0,1,26-3.42,222.79,222.79,0,0,0-26,3.42c-5.54,1-10.92,2.51-16.33,4l-8,2.52c-1.35.4-2.65.93-4,1.41l-4,1.48a228.05,228.05,0,0,0-31.71,15.06l-10,5.93-5,3.29-2.54,1.65-1.28.83-1.23.89a202.18,202.18,0,0,0-18.69,14.75A256.17,256.17,0,0,0,112,147.68l-3.59,4.45L105,156.74c-1.11,1.55-2.28,3.06-3.34,4.64l-3.15,4.78c-1.15,1.91-2.41,3.93-3.57,6.08l.19-.24c.38-.46.84-1.07,1.38-1.82l2-2.55,2.47-3.3,1.41-1.9.74-1,.83-1a253.75,253.75,0,0,1,17.45-20.23l2.75-2.89c.94-1,2-1.9,3-2.87,2-1.9,4-3.93,6.22-5.87l6.76-5.87c2.33-2,4.82-3.81,7.27-5.77a223.68,223.68,0,0,1,33-21A217.9,217.9,0,0,1,217,81a211.35,211.35,0,0,1,35.32-7.57,215.53,215.53,0,0,1,29-1.88c2,0,3.93,0,5.72,0l5,.21,4.19.14c1.26.06,2.38.17,3.34.23a272.75,272.75,0,0,1,36.15,4.2,170,170,0,0,1,37,11.33c4.31,1.78,8,4,11.55,5.86,1.79.91,3.43,2,5.08,2.87s3.26,1.77,4.88,2.54c.84,0,4,1.7,7.17,3.38l2.94,1.88c1,.64,1.9,1.34,2.84,2l5.58,4.11c1.81,1.4,3.53,2.91,5.27,4.34s3.48,2.82,5.06,4.34c3.21,3,6.45,5.74,9.31,8.62,1.46,1.4,2.9,2.75,4.33,4,.72.63,1.4,1.28,2.06,1.94l2,1.87a40.15,40.15,0,0,1,3,3.39c.54.68,1.12,1.38,1.66,2.17l1.65,2.49c1.11,1.71,2.25,3.54,3.38,5.4.59.91,1.11,1.87,1.62,2.84l1.52,2.87,2.85,5.4c.81,1.74,1.57,3.33,2.24,4.7,1.35,2.74,2.4,4.55,2.92,4.85,3.79,2.15,4.33,2.48,5.37,4.75.5,1.14,1.23,2.72,2.31,5.4.57,1.34,1.27,2.92,2.16,4.8.44.95,1,2,1.48,3.09l1.64,3.68a25.58,25.58,0,0,0,1.56,2.75c.71,1.15,1.61,2.48,2.4,4s1.7,3,2.48,4.55a28.67,28.67,0,0,1,1.94,4.35c.69,2.3,1.34,4.38,2,6.31.31,1,.65,1.88.92,2.78s.53,1.78.78,2.64c.52,1.7,1,3.3,1.57,4.87.25.78.54,1.55.78,2.33s.46,1.56.7,2.34l1.48,4.83c.26.83.52,1.69.79,2.57l.71,2.76c.47,1.91,1,3.95,1.54,6.19s.91,4.71,1.41,7.43c.88,4,1.24,7.69,1.69,11,.22,1.69.41,3.3.47,4.85s.18,3,.27,4.47.16,2.82.19,4.16,0,2.64,0,3.91c0,2.53,0,4.95-.12,7.33s-.26,4.73-.36,7.15l-.06,1.83c0,.61-.09,1.23-.14,1.86-.09,1.25-.17,2.53-.26,3.85s-.13,2.69-.2,4.1-.23,2.87-.33,4.4c-.24,3.06-.34,6.39-.74,10.05A190.9,190.9,0,0,1,491,346.64c-.32,1.46-.78,2.88-1.19,4.29s-.82,2.78-1.21,4.1-.74,2.63-1.16,3.82-.81,2.31-1.17,3.35c-.72,2.07-1.33,3.79-1.75,5a19.55,19.55,0,0,1-.7,1.86c-7.37,16.51-14.55,29.34-22.35,40.58a133.6,133.6,0,0,1-27.45,29.52c-10.73,12.19-26,23.95-42.82,33.19l-6.41,3.3c-1.08.54-2.13,1.11-3.22,1.62l-3.28,1.48c-2.19,1-4.36,2-6.54,2.93l-6.61,2.61c-1.09.42-2.17.88-3.27,1.28l-3.3,1.13L352.1,489l-6.44,2-3.16,1-3.14.85-6,1.6c-1,.28-1.94.48-2.89.66l-2.81.57-5.36,1c-1.74.28-3.44.48-5.1.71l-4.84.6c-1.58.19-3.14.24-4.67.35l-4.5.26c-.75,0-1.48.08-2.22.1h-2.19c-11.66.13-22.79-.85-37.48-3.22-1.06-.11-2.07-.28-3.06-.44l-2.86-.44-5.19-.78a83.72,83.72,0,0,1-8.34-2c-.59-.18-1.3-.33-2.1-.52s-1.68-.39-2.64-.57c-1.91-.38-4.11-.75-6.43-1.13s-4.69-1-7-1.54c-1.16-.28-2.32-.56-3.43-.86s-2.15-.71-3.15-1.08l2.35-.43-5.28-2c-2-.73-3.95-1.47-5.23-2.06-2.59-1.13-1.78-1.23-1-1.33,1.59-.21,3.12-.44-1.18-2.75a252.42,252.42,0,0,1-31-17.06,229.4,229.4,0,0,1-29.6-19.36,7.55,7.55,0,0,1-3.34-.94l-2.12-1.57c-.69-.54-1.35-1.11-2-1.67l-4.07-3.35c-2.33-.65-2.72.73-4.3.27-1.18,1.18-4.88-.46-8.34-1.86s-6.61-2.56-6.49-.19a19,19,0,0,0,2.56,3.6l2.59,3.17c1,1.17,2,2.46,3.18,3.69l7.12,7.78c2.4,2.45,4.6,4.79,6.19,6.71,1.4,1.86-3.26-.81-5.74-1.45,2.44,2.13,4.22,3.86,5.54,5.11a14.52,14.52,0,0,1,2.42,2.62c.61,1.06-.64.8-3.09-.46l4.71,4-3.38-.71a232.49,232.49,0,0,0,42.65,30,172,172,0,0,0,48.68,17.63c1.73.35,3.75.73,5.94,1.12s4.56.59,6.94.87c4.75.65,9.66.82,13.55,1.07,1.93.17,5,.5,8,.91s5.9.88,7.47.94c5.52-.85,4.76-2.14,7.09-3.21a207.85,207.85,0,0,0,21.88.43c1,0,2.06,0,3.09-.09l3.12-.23,6.27-.48c1-.07,2.08-.19,3.1-.34l3.07-.41,6-.85c3.88-.71,7.55-1.5,10.85-2.23s6.18-1.74,8.56-2.53c1.19-.41,2.26-.78,3.16-1.17a23.15,23.15,0,0,0,2.22-1.15c1.15-.72,1.63-1.31,1.3-1.75,2.29-.68,4.35-1.32,6.23-1.94s3.52-1.36,5.07-2a87.3,87.3,0,0,0,8.34-3.85c2.58-1.37,5.22-2.66,8.26-4.29,1.51-.83,3.13-1.71,4.93-2.65s3.82-1.89,5.95-3.13a232.87,232.87,0,0,0,70.48-58.08,247.77,247.77,0,0,0,28.16-43.94l1.09-2.15,1-2.18c.64-1.45,1.29-2.89,1.93-4.32s1.29-2.82,1.86-4.24,1.11-2.83,1.65-4.22a234.54,234.54,0,0,0,16.15-89.66,227.91,227.91,0,0,0-17.17-83,223.42,223.42,0,0,0-19.64-37.16,219,219,0,0,0-101-83.07,235.48,235.48,0,0,0-140.63-10.9A231.11,231.11,0,0,0,70.42,205.16a235.72,235.72,0,0,0-15.28,75.33A246.08,246.08,0,0,0,56.55,315c.36,2.72.72,5.41,1.06,8.07s.92,5.24,1.36,7.81l.69,3.83c.26,1.26.57,2.5.84,3.74.57,2.47,1.14,4.91,1.69,7.31A233.35,233.35,0,0,0,80.4,393.62,209.9,209.9,0,0,0,98,422.35l3.09,3.49c.52.57,1,1.17,1.56,1.73l1.63,1.66Z"/></g></g><g class="cls-6"><g class="cls-4"><path class="cls-5" d="M269.39,509.09c-5-.7-11.5-1.29-19.08-2.68a256.56,256.56,0,0,1-25.56-5.74l-7.07-2.2-3.63-1.13L210.41,496c-2.43-.91-4.92-1.78-7.42-2.75l-7.49-3.16a232.51,232.51,0,0,1-30-15.89,240.94,240.94,0,0,1-27.91-20.79,228.43,228.43,0,0,1-23.61-24l-5.11-6.16-4.66-6.22c-.75-1-1.56-2-2.25-3L99.88,411c-1.36-2-2.77-4-4-6l-3.58-5.9c-.58-1-1.18-1.89-1.71-2.84L89,393.39c-1-1.86-2-3.67-2.93-5.41s-1.71-3.51-2.52-5.15c-2.57-5.06-4.57-10-6.54-14.61-.94-2.32-1.73-4.61-2.55-6.81s-1.63-4.31-2.24-6.42c-1.28-4.19-2.6-8.05-3.46-11.75s-1.87-7.05-2.44-10.23c-.53-2.67-.61-3.13-.31-1.73s.89,4.68,2.19,9.38c.31,1.18.64,2.45,1,3.82l.55,2.1c.19.73.44,1.45.67,2.21l1.49,4.77c.54,1.67,1,3.44,1.7,5.21l2,5.57c.35,1,.71,1.93,1.07,2.93s.82,2,1.24,3c.85,2,1.72,4.07,2.61,6.19s2,4.21,3,6.4a221.39,221.39,0,0,0,34.31,50.9,221.54,221.54,0,0,1-24.73-35.05A226.34,226.34,0,0,1,78,366.25a218.36,218.36,0,0,1-12.36-43.63,225.72,225.72,0,0,1-3-50.11,218.7,218.7,0,0,1,55.8-135.22,226.12,226.12,0,0,1,37.57-33.41l5.9-4c1.95-1.34,4-2.5,6-3.74,3.92-2.52,7.94-4.6,11.7-6.68,1.87-1.08,3.79-1.92,5.59-2.81l5.25-2.54c3.41-1.49,6.53-2.77,9.22-3.9a220.52,220.52,0,0,0-107.92,95,221.28,221.28,0,0,0-26.2,141.53c-.46-2.61-.62-5.26-.89-7.85a223.58,223.58,0,0,1-.89-38.46,228.57,228.57,0,0,1,5.85-38A214.55,214.55,0,0,1,81.91,196a221.35,221.35,0,0,1,18.53-33.59,209.45,209.45,0,0,1,16-21.11,227.8,227.8,0,0,0-16,21.11c-3.23,4.68-6,9.61-8.85,14.5l-4,7.52c-.69,1.25-1.24,2.56-1.85,3.85s-1.2,2.59-1.81,3.89A228.58,228.58,0,0,0,72,225.6c-1,3.7-1.91,7.54-2.87,11.45q-.58,3-1.2,6l-.6,3-.3,1.51-.23,1.52A215,215,0,0,0,64.13,273a232.67,232.67,0,0,0,.55,35.9l.64,5.72.91,5.69c.32,1.89.57,3.8,1,5.68l1.2,5.63c.51,2.18,1,4.53,1.72,6.89l-.06-.3-.46-2.24c-.16-.92-.34-2-.55-3.21s-.47-2.58-.74-4.08c-.13-.75-.28-1.53-.43-2.35L67.63,325l-.18-1.31a236.14,236.14,0,0,1-2.62-26.86c-.06-1.33-.12-2.68-.18-4s0-2.77,0-4.17c0-2.82,0-5.72.09-8.68s.33-6,.49-9.06.62-6.2.92-9.37a224.71,224.71,0,0,1,8.08-38.9,219.75,219.75,0,0,1,15.15-37.28,222.59,222.59,0,0,1,39.19-53.64c1.46-1.46,2.81-2.88,4.13-4.15l3.75-3.46,3.15-2.92c.95-.87,1.85-1.59,2.59-2.24a240.55,240.55,0,0,1,29.63-22.38A194.1,194.1,0,0,1,207,78.81c4.38-1.79,8.6-2.92,12.48-4.17,1.93-.66,3.86-1.09,5.7-1.62s3.63-1,5.36-1.57c.62-.43,4.15-1.28,7.68-2.22l3.46-.76c1.15-.24,2.32-.4,3.48-.6l6.93-1.1c2.3-.31,4.61-.5,6.88-.75s4.51-.52,6.74-.59c4.44-.2,8.74-.59,12.85-.56l6-.15c1,0,1.93,0,2.87,0h2.77c1.28,0,2.83.1,4.58.23.88.07,1.8.11,2.76.24l3,.43,6.36,1c1.08.15,2.16.38,3.24.63l3.19.7,6,1.34,5.1,1.37A39.18,39.18,0,0,0,330,71.89c4.06-.1,4.63-.11,7.06.63,1.2.39,2.91.85,5.67,1.87,1.38.49,3.05,1,5.08,1.72,1,.34,2.13.66,3.32,1.09L355,78.62c.67.25,1.75.58,3.07,1s2.89.8,4.5,1.39,3.33,1.15,5,1.74a44.09,44.09,0,0,1,4.5,1.83l6,3c.92.46,1.83.87,2.68,1.32l2.47,1.32,4.63,2.42c.75.39,1.5.74,2.23,1.15L392.29,95l4.48,2.52,2.38,1.34,2.46,1.54,5.48,3.46c2,1.27,4,2.81,6.3,4.42,3.46,2.33,6.33,4.76,9.05,6.88,1.36,1.06,2.65,2.09,3.81,3.16l3.4,3c1.08,1,2.14,1.9,3.13,2.83l2.81,2.81c1.81,1.84,3.6,3.51,5.23,5.31l4.92,5.37L447,139l1.22,1.44,2.56,3,2.74,3.14c.94,1.09,1.84,2.28,2.83,3.48,1.94,2.42,4.17,5,6.36,8a204.28,204.28,0,0,1,14.33,22.2c.79,1.3,1.46,2.65,2.14,4l2,3.84c.64,1.25,1.3,2.42,1.83,3.58l1.49,3.26,2.23,4.86c.55,1.16.79,1.84.79,1.84a232.44,232.44,0,0,1,12.83,44.93,167.43,167.43,0,0,1,2.29,40.63c.37,16.38-2.05,35.59-7.28,54.28a234.43,234.43,0,0,1-22.13,51.85c-1.1,1.89-2.17,3.7-3.2,5.46-.5.88-1,1.71-1.6,2.53s-1.07,1.63-1.6,2.42l-3.07,4.6c-1,1.45-2.09,2.82-3.1,4.18s-2,2.66-3,3.95-2,2.45-3,3.64l-3,3.49c-.49.57-1,1.14-1.46,1.7l-1.53,1.61a214.21,214.21,0,0,1-28.34,25.61c-.82.7-1.67,1.31-2.49,1.92l-2.37,1.77-4.28,3.21c-2.75,1.89-5.16,3.48-7.31,4.79l-4.2,2.67-5.56,3.67c-2,1.29-4.18,2.53-6.29,3.78l-3.12,1.8c-1,.55-2.07,1-3,1.51l1.66-1.47-5.21,2.47c-1.95.93-3.9,1.86-5.24,2.38-2.67,1.11-2.08.64-1.5.18,1.16-.93,2.3-1.85-2.41-.11a236.25,236.25,0,0,1-34.88,11,226.81,226.81,0,0,1-35.91,6.45,12.91,12.91,0,0,1-3.16.95l-2.69.28c-.89.07-1.79.1-2.69.16l-5.38.29c-2.15.61-1.43,1.23-2.89,1.63,0,.85-3.82,1.5-7.23,2.17s-6.41,1.3-4.61,2.14a36.11,36.11,0,0,0,4.35.45l4.06.28c1.5.09,3.12.23,4.82.22,3.38,0,7,.14,10.44.15s6.56-.14,9-.1c2.26.09-2.91,1-5.11,1.68,3.18-.22,5.62-.29,7.39-.4a27.94,27.94,0,0,1,3.48-.13c1.14.1.05.51-2.54,1.08l6-.59-2.9,1.11a228.21,228.21,0,0,0,49.66-9.86,192,192,0,0,0,45.38-21.4l4.9-3.2c1.76-1.25,3.6-2.63,5.47-4,3.8-2.69,7.38-5.81,10.32-8.2l6.11-4.93c2.29-1.84,4.56-3.57,5.66-4.63,3.54-4,2.55-3.93,3.8-5.88,4.32-3.93,9.74-9.18,15.1-15.13.67-.74,1.37-1.47,2-2.24l2-2.33,3.92-4.72c.67-.77,1.29-1.58,1.89-2.39s1.21-1.62,1.81-2.42l3.52-4.74c2.17-3.18,4.15-6.24,6-9s3.13-5.42,4.3-7.57c.58-1.08,1.11-2,1.51-2.9s.7-1.62.93-2.23c.45-1.21.55-1.86.23-1.81,1.1-2.08,2.08-3.95,3-5.66s1.53-3.37,2.2-4.88c1.32-3,2.46-5.62,3.38-8.33s2-5.39,3.08-8.6c.52-1.6,1.09-3.33,1.71-5.24s1.39-3.94,2-6.29a227.26,227.26,0,0,0,9-89.55,235.65,235.65,0,0,0-10.91-50.29c-.24-.76-.49-1.51-.74-2.26l-.83-2.21-1.66-4.36c-.56-1.43-1.06-2.87-1.65-4.26l-1.79-4.1a228.33,228.33,0,0,0-51.37-73.74A223.42,223.42,0,0,0,328.94,62.71,220.61,220.61,0,0,0,200.55,74.58,226.6,226.6,0,0,0,60,295.66a225.12,225.12,0,0,0,19.79,82,231.31,231.31,0,0,0,42.48,62.87,242.08,242.08,0,0,0,25.22,22.74l6.41,4.81c2.12,1.56,4.31,3,6.42,4.42l3.17,2.14c1.06.69,2.15,1.32,3.21,2l6.29,3.83a229.37,229.37,0,0,0,46.1,20.07,210.39,210.39,0,0,0,32.17,7.36l4.54.45c.75.07,1.5.16,2.26.21l2.28.1Z"/></g></g></g></g></svg>