<?xml version="1.0" standalone="no"?>
<!DOCTYPE svg PUBLIC "-//W3C//DTD SVG 20010904//EN"
 "http://www.w3.org/TR/2001/REC-SVG-20010904/DTD/svg10.dtd">
<svg version="1.0" xmlns="http://www.w3.org/2000/svg"
 width="700.000000pt" height="700.000000pt" viewBox="0 0 700.000000 700.000000"
 preserveAspectRatio="xMidYMid meet">
<metadata>
Created by potrace 1.11, written by Peter Selinger 2001-2013
</metadata>
<g transform="translate(0.000000,700.000000) scale(0.100000,-0.100000)"
fill="#000000" stroke="none">
<path d="M3380 6089 c-74 -4 -153 -10 -175 -13 -22 -3 -60 -8 -85 -11 -140
-18 -413 -88 -525 -135 -11 -4 -60 -25 -110 -45 -158 -65 -378 -189 -516 -292
-35 -26 -66 -50 -69 -53 -3 -3 -27 -23 -55 -45 -246 -195 -508 -525 -659 -828
-86 -173 -174 -407 -201 -535 -2 -9 -10 -46 -19 -82 -8 -36 -17 -83 -21 -105
-3 -22 -10 -67 -15 -100 -20 -134 -30 -470 -16 -540 2 -11 7 -56 11 -100 3
-43 8 -82 10 -85 1 -3 6 -27 9 -54 4 -28 16 -88 27 -135 124 -536 400 -1004
800 -1360 118 -105 130 -114 225 -183 358 -254 786 -417 1214 -463 30 -3 69
-8 85 -11 35 -5 355 -5 400 0 17 2 62 7 100 11 39 3 93 11 120 16 28 5 66 12
85 15 97 14 325 83 480 144 180 70 445 222 590 336 196 155 365 326 497 501
282 374 463 829 509 1273 3 30 7 66 10 80 5 31 5 374 0 415 -2 17 -7 59 -11
95 -3 36 -8 72 -10 80 -2 8 -7 35 -11 60 -3 25 -7 50 -8 55 -2 6 -6 28 -11 50
-65 337 -243 724 -468 1020 -82 107 -96 124 -212 244 -252 261 -564 469 -905
603 -101 40 -237 86 -273 92 -7 1 -21 5 -32 9 -22 7 -22 7 -175 36 -119 22
-171 29 -285 37 -137 9 -166 9 -305 3z m360 -173 c25 -3 65 -8 90 -11 60 -8
286 -54 314 -65 11 -4 48 -16 81 -25 128 -37 346 -133 485 -213 220 -127 478
-343 650 -547 76 -90 189 -257 256 -377 136 -246 226 -515 278 -828 34 -203
25 -593 -18 -795 -2 -5 -8 -37 -15 -70 -123 -584 -497 -1136 -1002 -1477 -356
-241 -741 -376 -1179 -414 -54 -5 -322 -5 -366 0 -109 12 -213 26 -234 31 -8
2 -31 7 -50 10 -181 30 -446 123 -650 228 -83 43 -331 200 -363 231 -7 6 -37
31 -67 56 -55 44 -228 214 -286 281 -155 177 -309 431 -407 669 -34 83 -91
254 -101 301 -3 13 -14 67 -26 118 -36 163 -48 301 -45 531 5 396 79 694 251
1016 307 575 889 1077 1459 1257 129 40 337 82 468 93 34 3 63 6 64 8 5 5 369
-2 413 -8z"/>
<path d="M3719 5699 c-16 -17 -29 -43 -30 -58 -6 -181 -19 -254 -63 -355 -12
-28 -20 -59 -18 -68 3 -17 50 -38 84 -38 10 0 46 -11 80 -25 126 -51 216 -40
265 34 25 38 29 79 12 147 -11 41 -10 47 16 84 35 51 43 115 20 160 -29 56
-48 69 -144 100 -33 10 -73 26 -90 34 -50 26 -99 21 -132 -15z m213 -119 c43
-12 59 -35 48 -66 -10 -25 -51 -34 -108 -25 -33 6 -37 10 -40 37 -3 34 18 64
46 64 9 0 34 -5 54 -10z m-45 -223 c28 -25 42 -85 22 -98 -56 -35 -167 29
-139 80 26 50 74 57 117 18z"/>
<path d="M2971 5658 c-16 -16 -48 -89 -56 -128 -5 -19 -28 -103 -41 -145 -15
-47 -56 -95 -81 -95 -27 0 -33 -36 -11 -76 40 -77 58 -101 84 -113 33 -15 57
4 85 64 36 77 41 80 132 82 75 2 87 -1 135 -29 77 -44 103 -34 118 47 2 14 13
34 23 44 12 12 17 27 14 40 -5 21 -19 28 -68 35 -54 7 -64 17 -151 148 -101
151 -137 176 -183 126z m127 -256 c19 -29 9 -40 -48 -50 -84 -15 -85 -13 -54
98 l16 54 35 -39 c20 -22 42 -50 51 -63z"/>
<path d="M2441 5458 c-37 -39 -64 -92 -59 -116 2 -9 14 -22 27 -28 36 -18 108
-93 152 -158 21 -32 39 -62 39 -66 0 -10 -56 -30 -85 -30 -35 0 -46 -38 -24
-81 28 -56 41 -62 117 -56 75 7 103 28 121 92 18 67 -5 128 -79 211 -44 48
-95 128 -133 207 -15 31 -32 57 -37 57 -5 0 -23 -15 -39 -32z"/>
<path d="M4403 5455 c-153 -47 -246 -164 -247 -310 -2 -165 85 -253 239 -243
71 4 106 26 99 61 -7 41 -30 52 -110 53 -87 2 -115 19 -116 73 -2 55 20 66
104 54 87 -12 118 -4 118 31 0 23 -27 55 -89 103 -17 14 -22 25 -17 40 16 49
116 52 116 3 0 -23 39 -68 60 -71 37 -4 61 2 80 21 19 19 19 23 6 55 -20 47
-75 114 -108 131 -33 17 -79 17 -135 -1z"/>
<path d="M4761 5227 c-22 -27 -24 -76 -6 -118 16 -35 17 -42 4 -66 -27 -52
-119 -140 -178 -171 -32 -18 -62 -39 -65 -48 -12 -30 44 -113 94 -139 41 -21
66 -3 101 71 22 46 55 90 104 141 82 83 108 91 170 49 37 -25 82 -27 97 -3 5
7 7 32 6 57 -3 41 -7 47 -58 85 -105 79 -223 155 -240 155 -10 0 -23 -6 -29
-13z"/>
<path d="M2090 5130 c-83 -26 -127 -50 -142 -78 -8 -15 -13 -56 -13 -101 1
-87 30 -163 91 -238 75 -91 158 -125 267 -109 57 9 86 37 132 129 38 75 44
120 20 154 -33 47 -75 12 -110 -92 -14 -40 -29 -64 -44 -71 -49 -25 -111 27
-95 80 4 11 17 35 30 52 49 63 13 136 -42 86 -66 -60 -115 -68 -139 -22 -8 16
-15 34 -15 40 0 21 41 50 71 50 58 0 96 42 83 94 -9 39 -34 45 -94 26z"/>
<path d="M3398 5032 l-27 -3 2 -355 c2 -308 0 -354 -13 -355 -8 0 -177 -2
-374 -2 l-360 -2 -21 23 c-12 12 -57 76 -101 142 -43 66 -82 120 -85 120 -8 0
-49 -205 -49 -242 0 -34 -11 -41 -74 -43 -28 -1 -54 -3 -58 -4 -5 0 -8 -50 -8
-111 0 -81 3 -110 13 -111 6 0 37 -1 68 -1 l56 0 13 -57 c21 -99 73 -193 149
-268 77 -77 98 -106 105 -146 7 -40 -7 -70 -68 -152 -90 -117 -112 -176 -122
-315 -5 -64 -3 -94 8 -121 l15 -35 -118 1 c-140 1 -135 10 -88 -129 138 -415
501 -694 979 -753 25 -3 52 -7 60 -9 8 -1 25 -3 36 -3 19 -1 21 -7 21 -59 1
-101 -11 -92 113 -92 81 0 110 3 111 13 1 6 2 37 3 69 0 31 3 58 6 61 3 3 41
7 85 11 44 3 89 7 100 10 11 2 36 6 55 10 38 7 68 13 100 21 11 3 28 7 38 9
46 11 174 63 238 96 250 131 431 362 499 637 14 54 22 100 19 103 -3 2 -261 5
-572 5 l-567 0 0 545 0 545 545 2 c300 1 556 2 570 2 l26 1 -1 113 0 112 -565
2 c-311 0 -567 1 -570 2 -3 1 -5 161 -5 356 0 195 -2 355 -5 356 -16 3 -159 4
-182 1z m-42 -1489 c0 -299 -2 -544 -5 -544 -3 -1 -196 -2 -428 -3 -482 -1
-438 -14 -357 101 61 86 133 146 285 238 212 128 271 193 287 314 11 75 8 94
-25 158 -29 59 -59 89 -164 164 -41 29 -89 67 -108 84 l-33 32 273 -1 274 -1
1 -542z"/>
<path d="M5075 4800 c-36 -70 -111 -132 -233 -194 -67 -34 -80 -71 -42 -119
33 -41 71 -43 137 -8 31 17 67 31 79 31 26 0 54 -33 49 -58 -2 -9 -4 -20 -4
-24 -1 -4 -27 -24 -58 -45 -86 -55 -113 -83 -113 -114 0 -45 55 -54 145 -24
47 16 267 123 362 176 75 42 73 88 -7 168 -47 46 -74 52 -91 19 -20 -40 -62
-78 -85 -78 -12 0 -36 13 -53 29 -55 52 -35 109 49 141 85 32 106 94 40 117
-19 7 -63 12 -97 12 -59 1 -63 0 -78 -29z"/>
<path d="M1711 4693 c-41 -8 -144 -120 -165 -181 -17 -48 -26 -128 -15 -134 2
-2 48 -25 103 -51 54 -27 142 -74 195 -106 131 -79 157 -92 175 -85 9 3 16 14
17 23 5 127 9 117 -72 164 -54 31 -72 67 -32 67 13 0 56 -5 94 -12 89 -14 124
0 159 64 39 74 15 93 -80 64 -48 -14 -127 -14 -139 0 -4 5 -16 29 -26 54 -49
116 -108 153 -214 133z m72 -142 c16 -2 28 -57 22 -98 -5 -36 -10 -43 -29 -43
-27 0 -79 24 -96 45 -6 7 -10 24 -8 37 4 26 60 68 86 63 9 -2 20 -4 25 -4z"/>
<path d="M5214 4180 c-46 -14 -119 -84 -147 -141 -32 -63 -29 -131 7 -193 34
-57 91 -107 113 -99 56 20 56 56 3 130 -24 33 -40 68 -40 84 0 37 44 73 80 64
38 -10 47 -21 60 -76 14 -58 51 -94 80 -79 19 10 27 45 39 158 2 18 56 15 74
-5 12 -14 14 -31 10 -73 -10 -113 -3 -140 42 -140 65 0 114 166 72 245 -17 34
-60 76 -97 96 -61 33 -228 49 -296 29z"/>
<path d="M1474 4115 c-41 -24 -85 -78 -103 -126 -29 -79 71 -235 185 -289 57
-26 163 -36 221 -21 106 29 174 208 121 319 -17 35 -52 40 -72 10 -11 -17 -14
-42 -10 -98 3 -52 0 -81 -8 -93 -26 -34 -107 -25 -125 15 -5 12 -5 43 1 79 7
43 7 62 -2 71 -17 17 -55 -7 -80 -51 -12 -20 -30 -45 -42 -56 -20 -18 -21 -18
-48 2 -15 11 -31 32 -36 47 -9 23 -5 31 28 65 44 46 61 100 39 130 -18 26 -19
26 -69 -4z"/>
<path d="M5579 3644 c-35 -24 -43 -25 -215 -30 -183 -5 -227 -13 -244 -45 -6
-10 -10 -78 -10 -153 0 -129 1 -136 25 -164 14 -17 38 -33 54 -37 38 -8 101
18 102 42 0 10 2 28 3 41 2 13 -11 43 -31 70 -30 43 -44 100 -25 103 41 6 113
9 252 10 190 1 220 10 220 60 0 38 -22 82 -56 108 -33 26 -32 26 -75 -5z"/>
<path d="M1393 3533 c-7 -2 -17 -21 -23 -42 -6 -22 -19 -43 -33 -50 -103 -55
-31 -255 119 -330 32 -16 70 -25 128 -28 183 -12 291 66 309 224 3 29 13 65
21 81 26 51 27 78 1 106 -27 29 -28 29 -135 27 -81 -1 -159 -9 -172 -17 -4 -3
-8 -14 -8 -26 0 -40 31 -74 100 -107 83 -39 93 -62 50 -106 -27 -26 -37 -29
-100 -31 -80 -3 -119 6 -166 38 -60 41 -62 89 -5 154 35 39 38 56 14 79 -28
28 -71 40 -100 28z"/>
<path d="M5417 2925 l-31 -35 -188 0 -188 0 -20 -32 c-32 -53 -28 -61 117
-244 l73 -91 -6 -59 c-7 -71 6 -88 70 -91 23 -1 56 -5 74 -9 24 -5 38 -2 52
11 27 25 25 52 -10 121 -27 52 -29 63 -20 95 18 62 60 109 135 148 87 47 101
74 62 121 -15 17 -27 40 -27 50 0 22 -26 50 -47 50 -8 0 -29 -16 -46 -35z
m-126 -177 c9 -15 -6 -55 -38 -96 -24 -32 -26 -33 -44 -16 -31 28 -81 113 -74
125 9 14 146 3 156 -13z"/>
<path d="M1881 2764 c-12 -15 -21 -32 -21 -38 0 -25 -63 -86 -145 -140 -108
-72 -139 -85 -187 -78 -56 7 -80 -16 -66 -65 5 -20 20 -53 33 -73 22 -35 79
-90 94 -90 21 0 50 35 61 75 7 25 24 54 37 65 43 34 176 94 267 120 49 14 94
33 99 42 8 12 1 28 -35 69 -25 30 -55 73 -68 97 -27 49 -41 52 -69 16z"/>
<path d="M4862 2593 c-7 -3 -25 -23 -41 -46 -16 -23 -43 -58 -60 -77 -46 -52
-37 -90 21 -90 51 0 92 -26 190 -121 74 -71 103 -107 122 -150 37 -84 56 -84
118 1 14 19 35 52 47 73 l21 38 -24 24 c-15 15 -38 26 -56 26 -16 1 -34 3 -40
4 -5 1 -14 3 -19 4 -25 3 -144 149 -194 238 -33 58 -63 84 -85 76z"/>
<path d="M2040 2448 c-92 -101 -198 -173 -332 -227 -32 -13 -58 -29 -58 -35 0
-18 49 -86 63 -87 25 -3 45 4 139 47 103 47 138 54 138 28 0 -8 -20 -57 -44
-107 -24 -51 -46 -104 -48 -117 -3 -23 1 -25 37 -28 54 -5 172 16 215 38 55
29 231 220 237 259 3 23 -21 51 -45 51 -26 -1 -54 -20 -127 -87 -37 -35 -72
-63 -77 -63 -20 0 16 149 54 223 18 37 18 40 2 65 -35 54 -76 102 -87 101 -7
-1 -37 -28 -67 -61z"/>
<path d="M4715 2312 c-68 -6 -182 -35 -212 -53 -64 -40 -92 -149 -54 -219 34
-65 77 -77 278 -80 48 0 81 -24 62 -46 -11 -13 -27 -17 -112 -29 -71 -10 -105
-51 -92 -114 22 -110 233 -103 318 12 68 91 62 213 -12 267 -42 29 -84 35
-160 20 -60 -11 -72 -11 -104 4 -19 10 -38 25 -41 33 -10 26 22 52 62 51 131
-3 151 1 166 30 38 74 -9 133 -99 124z"/>
<path d="M2441 2088 c-12 -24 -69 -92 -126 -153 -58 -60 -119 -127 -136 -147
l-30 -37 79 -82 79 -82 111 1 c132 2 143 6 229 94 49 49 63 71 66 100 5 48
-15 104 -47 132 -15 12 -31 39 -37 60 -11 40 -82 126 -104 126 -7 0 -15 7 -19
15 -11 30 -44 16 -65 -27z m129 -160 c24 -52 25 -99 5 -142 -24 -50 -67 -69
-155 -71 -79 -2 -110 7 -110 30 0 26 205 225 232 225 5 0 18 -19 28 -42z"/>
<path d="M4180 1999 c-25 -4 -59 -9 -77 -12 -71 -11 -113 -73 -118 -173 -7
-121 38 -244 117 -323 60 -60 108 -81 193 -81 59 0 74 4 95 23 61 53 140 173
140 211 0 21 -40 46 -69 43 -19 -1 -36 -19 -70 -74 -25 -39 -53 -74 -62 -76
-24 -6 -76 18 -88 42 -18 33 -13 46 39 100 50 51 64 91 38 107 -18 11 -74 5
-119 -13 -67 -27 -110 12 -87 78 5 16 13 29 16 30 4 0 34 2 67 3 33 1 65 5 71
9 15 9 25 63 18 93 -7 26 -13 27 -104 13z"/>
<path d="M3012 1885 c-23 -13 -47 -28 -54 -34 -7 -6 -47 -38 -88 -72 -83 -68
-111 -104 -112 -146 -1 -40 53 -165 111 -255 71 -111 96 -114 228 -26 154 103
196 163 179 253 -10 51 -90 204 -133 254 -46 52 -75 58 -131 26z m81 -185 c14
-16 33 -52 42 -81 15 -43 15 -55 4 -75 -17 -33 -96 -84 -128 -83 -31 0 -65 39
-88 103 -17 44 -16 47 3 73 23 31 110 93 129 93 7 0 24 -13 38 -30z"/>
<path d="M3408 1812 l-56 -37 15 -30 c21 -38 20 -243 -1 -329 -8 -33 -12 -65
-9 -72 9 -24 100 -51 117 -33 2 2 7 27 10 54 6 52 16 116 22 150 17 92 27 95
81 28 21 -27 40 -50 43 -53 3 -3 21 -25 40 -50 60 -77 74 -94 118 -139 46 -48
57 -47 67 8 3 19 8 37 10 41 21 34 26 369 6 438 -14 48 -28 52 -91 25 l-40
-18 -1 -82 c-2 -106 -2 -106 -16 -110 -10 -4 -43 27 -103 97 -87 101 -134 150
-144 149 -6 0 -36 -17 -68 -37z"/>
</g>
</svg>
