<?xml version="1.0" standalone="no"?>
<!DOCTYPE svg PUBLIC "-//W3C//DTD SVG 20010904//EN"
 "http://www.w3.org/TR/2001/REC-SVG-20010904/DTD/svg10.dtd">
<svg version="1.0" xmlns="http://www.w3.org/2000/svg"
 width="700.000000pt" height="700.000000pt" viewBox="0 0 700.000000 700.000000"
 preserveAspectRatio="xMidYMid meet">
<metadata>
Created by potrace 1.11, written by Peter Selinger 2001-2013
</metadata>
<g transform="translate(0.000000,700.000000) scale(0.100000,-0.100000)"
fill="#000000" stroke="none">
<path d="M3316 6402 c-3 -3 -25 -5 -48 -5 -24 0 -46 -5 -50 -11 -5 -7 -8 -8
-8 0 0 14 -113 5 -122 -10 -6 -8 -8 -8 -8 1 0 6 -8 10 -17 8 -10 -1 -17 -8
-15 -16 2 -9 0 -10 -10 -1 -8 6 -27 10 -43 8 -17 -2 -41 -4 -54 -5 -17 -1 -22
-5 -17 -18 5 -15 4 -15 -9 1 -8 11 -15 15 -15 9 0 -7 -11 -10 -26 -7 -17 3
-31 -1 -41 -13 -8 -10 -12 -12 -8 -5 6 11 -2 11 -45 2 -3 0 4 -7 14 -15 11 -8
16 -15 11 -15 -5 0 -17 7 -27 16 -13 13 -21 14 -31 5 -8 -6 -16 -8 -19 -5 -8
8 -102 -18 -110 -30 -4 -6 -8 -7 -8 -2 0 5 -8 2 -17 -5 -14 -12 -15 -12 -9 -1
7 11 4 12 -10 4 -11 -5 -49 -17 -86 -27 -38 -10 -68 -22 -68 -27 0 -5 -4 -7
-9 -3 -5 3 -25 -1 -43 -9 -18 -8 -54 -22 -80 -32 -27 -9 -48 -21 -48 -27 0 -5
8 -3 18 4 16 13 16 13 -1 -7 -9 -11 -15 -23 -12 -26 3 -2 -2 -5 -10 -5 -11 0
-12 4 -4 13 20 24 -9 23 -60 -1 -28 -14 -55 -25 -61 -25 -11 0 -32 -35 -25
-42 3 -3 -2 -5 -10 -5 -12 0 -12 3 -2 15 6 9 8 13 2 11 -32 -15 -71 -34 -75
-39 -3 -3 -27 -16 -55 -30 -27 -13 -52 -27 -55 -30 -7 -7 -38 -26 -82 -50 -21
-11 -38 -25 -38 -30 0 -6 -7 -10 -16 -10 -22 0 -137 -116 -129 -130 4 -6 1 -9
-7 -8 -7 2 -12 -3 -10 -9 1 -7 -4 -13 -12 -13 -7 0 -20 -8 -27 -17 -9 -12 1
-8 31 9 25 15 44 32 42 37 -1 6 1 10 5 9 16 -4 53 14 48 23 -3 5 1 6 9 3 9 -3
20 3 27 14 7 11 19 18 26 15 7 -3 13 -1 13 5 0 5 13 15 30 22 16 7 27 17 23
23 -3 6 -1 7 5 3 14 -9 55 12 47 24 -3 5 0 12 6 16 8 4 9 3 5 -4 -4 -7 -2 -12
3 -12 6 0 11 4 11 10 0 5 6 9 13 7 6 -1 11 3 10 10 -2 7 4 10 12 7 8 -4 15 -1
15 6 0 6 4 9 9 5 5 -3 15 1 23 8 7 7 18 15 23 18 6 2 9 10 9 17 -1 9 2 10 10
3 9 -7 40 3 103 34 51 25 97 45 102 45 6 0 11 4 11 10 0 5 3 9 8 8 10 -4 92
24 92 31 0 4 8 7 18 8 32 3 122 40 115 47 -4 4 1 4 12 0 15 -6 17 -4 11 12 -6
15 -5 17 5 7 15 -15 33 -17 24 -4 -3 5 0 13 6 17 7 4 9 3 5 -4 -10 -17 11 -24
26 -9 7 8 19 12 27 9 10 -3 12 0 8 12 -4 9 -2 16 2 16 5 0 11 -5 13 -12 3 -7
11 -9 24 -3 10 4 25 7 33 6 8 -1 10 2 5 10 -4 7 -3 10 4 6 15 -10 114 14 136
32 11 9 16 10 12 3 -5 -8 -1 -11 16 -8 13 3 24 5 26 7 1 1 11 2 22 3 11 0 20
6 19 11 -1 6 -4 9 -8 8 -4 -1 -8 5 -8 13 0 10 7 8 24 -8 28 -26 28 -26 51 0 9
10 13 12 8 5 -6 -10 1 -13 33 -11 22 1 41 4 41 8 0 4 10 7 23 7 80 1 108 4
103 12 -3 5 2 15 12 22 15 13 16 12 4 -3 -10 -12 -10 -18 -1 -23 6 -4 15 -1
20 6 6 9 9 10 9 2 0 -7 9 -10 23 -7 12 3 48 5 79 5 45 0 56 3 52 13 -3 8 -1
17 4 20 5 3 9 -2 8 -12 -1 -11 7 -18 25 -20 22 -3 25 1 25 25 -1 32 -24 46
-45 29 -12 -9 -13 -8 -6 4 4 8 -5 4 -21 -10 -15 -14 -23 -18 -16 -9 10 14 9
17 -7 22 -11 3 -22 2 -25 -1z m-65 -25 c-6 -8 -7 -18 -3 -22 4 -5 1 -5 -6 -1
-10 6 -10 11 -1 22 6 8 14 14 16 14 3 0 0 -6 -6 -13z m-101 0 c0 -2 -10 -12
-22 -23 l-23 -19 19 23 c18 21 26 27 26 19z m-164 -19 c4 -7 3 -10 -1 -5 -5 4
-18 -1 -29 -10 -21 -18 -21 -18 -2 5 22 26 23 26 32 10z m75 -11 c-10 -9 -11
-8 -5 6 3 10 9 15 12 12 3 -3 0 -11 -7 -18z m-292 -40 c8 -10 7 -14 -2 -14 -8
0 -14 6 -14 14 0 7 1 13 2 13 2 0 8 -6 14 -13z m-33 -9 c3 -4 -1 -5 -10 -4 -8
1 -18 5 -22 8 -3 4 1 5 10 4 8 -1 18 -5 22 -8z m-54 -13 c3 0 9 -3 13 -7 4 -3
0 -5 -9 -4 -9 1 -22 8 -29 16 -10 10 -9 11 3 4 8 -5 18 -9 22 -9z m-107 -24
c-9 -8 -36 -10 -30 -2 2 4 11 8 20 8 8 0 13 -3 10 -6z m75 3 c0 -8 -19 -13
-24 -6 -3 5 1 9 9 9 8 0 15 -2 15 -3z m-141 -17 c8 -10 7 -14 -2 -14 -8 0 -14
6 -14 14 0 7 1 13 2 13 2 0 8 -6 14 -13z m-58 -24 c13 -16 12 -17 -3 -4 -17
13 -22 21 -14 21 2 0 10 -8 17 -17z m-48 -18 c-7 -21 -12 -19 -10 4 0 11 5 18
9 15 4 -3 5 -11 1 -19z m18 -18 c-10 -9 -11 -8 -5 6 3 10 9 15 12 12 3 -3 0
-11 -7 -18z m-114 -19 c2 -17 0 -19 -7 -8 -5 8 -6 18 -4 22 8 12 10 10 11 -14z
m-20 -21 c0 -8 -6 -14 -14 -14 -9 0 -10 4 -2 14 6 7 12 13 14 13 1 0 2 -6 2
-13z m-80 -22 c0 -8 -4 -15 -9 -15 -10 0 -11 14 -1 23 9 10 10 9 10 -8z m-72
-64 c-9 -8 -36 -10 -30 -2 2 4 11 8 20 8 8 0 13 -3 10 -6z m-91 -27 c3 -8 2
-12 -4 -9 -6 3 -10 10 -10 16 0 14 7 11 14 -7z m-74 -14 c0 -5 -5 -10 -11 -10
-5 0 -7 5 -4 10 3 6 8 10 11 10 2 0 4 -4 4 -10z m-35 -39 c-9 -8 -36 -10 -30
-2 2 4 11 8 20 8 8 0 13 -3 10 -6z m-48 -16 c0 -8 -3 -13 -5 -10 -3 3 -12 -1
-21 -7 -10 -8 -9 -4 3 10 23 26 23 26 23 7z m-60 -38 c0 -7 -11 -13 -23 -13
-12 0 -20 4 -18 8 3 5 9 6 14 3 5 -3 11 -1 15 5 8 13 12 13 12 -3z m-44 -42
c-3 -9 -8 -14 -10 -11 -3 3 -2 9 2 15 9 16 15 13 8 -4z m-42 -12 c11 -15 11
-16 -1 -6 -11 10 -16 9 -27 -5 -13 -15 -13 -15 -3 6 13 27 14 27 31 5z"/>
<path d="M3447 6393 c-2 -5 -3 -17 -3 -28 1 -17 9 -20 56 -22 81 -3 159 -11
170 -18 6 -4 10 -2 10 4 0 6 7 8 15 5 8 -4 13 -9 10 -13 -2 -4 2 -8 10 -8 8 0
12 4 9 9 -3 4 0 8 5 8 6 0 11 -8 11 -18 0 -18 -31 -24 -46 -9 -4 4 -13 2 -20
-4 -8 -7 -14 -7 -19 1 -3 5 -11 10 -16 10 -6 0 -7 -6 -3 -12 6 -10 5 -10 -7
-2 -15 13 -296 17 -314 6 -17 -11 -35 -11 -28 1 4 7 0 8 -11 4 -10 -4 -22 -7
-27 -7 -6 0 -7 -6 -3 -12 6 -10 4 -10 -7 0 -20 18 -42 15 -35 -5 5 -16 5 -16
-6 -2 -15 18 -88 15 -100 -4 -6 -9 -8 -9 -8 0 0 7 -7 10 -15 7 -8 -4 -12 -11
-8 -18 5 -8 3 -8 -8 0 -8 5 -18 10 -24 9 -81 -9 -124 -18 -120 -25 3 -5 0 -12
-6 -16 -8 -4 -9 -3 -5 4 5 8 -2 12 -19 12 -16 0 -24 -4 -19 -11 4 -8 0 -8 -15
0 -12 7 -21 8 -21 2 0 -5 -8 -10 -17 -10 -35 -1 -83 -13 -78 -21 2 -4 -7 -5
-20 -2 -14 2 -25 0 -25 -5 0 -5 -10 -9 -22 -10 -13 -1 -42 -7 -66 -14 -34 -9
-41 -15 -37 -30 3 -9 1 -20 -4 -24 -6 -3 -8 0 -5 8 7 19 -12 31 -34 21 -9 -4
-19 -8 -22 -9 -43 -15 -60 -27 -54 -37 5 -9 2 -9 -9 1 -11 8 -17 9 -17 3 0 -6
-6 -9 -14 -6 -8 3 -17 1 -21 -5 -3 -6 -15 -11 -26 -11 -10 0 -19 -4 -19 -10 0
-5 -3 -9 -7 -8 -16 3 -63 -14 -74 -28 -6 -8 -15 -11 -20 -8 -5 3 -9 0 -9 -5 0
-6 -3 -10 -7 -9 -14 4 -53 -13 -53 -23 0 -5 -6 -9 -13 -9 -25 0 -77 -31 -71
-42 4 -6 2 -8 -3 -5 -11 7 -70 -19 -91 -40 -7 -7 -20 -13 -27 -13 -8 0 -18 -6
-22 -14 -4 -8 -12 -16 -18 -17 -22 -4 -55 -23 -55 -31 0 -4 -6 -8 -14 -8 -8 0
-18 -5 -21 -10 -4 -7 3 -9 19 -6 15 3 24 1 21 -4 -3 -5 -19 -7 -36 -5 -24 3
-30 1 -25 -11 4 -10 2 -13 -6 -8 -6 4 -17 -2 -25 -12 -8 -10 -16 -17 -19 -15
-7 4 -141 -96 -191 -143 -22 -20 -29 -33 -23 -41 7 -8 5 -12 -5 -12 -8 0 -12
4 -9 9 3 4 1 8 -3 8 -11 0 -48 -43 -45 -52 1 -5 -4 -8 -11 -8 -17 0 -91 -76
-80 -82 4 -3 3 -4 -4 -2 -6 1 -28 -15 -48 -37 -37 -40 -55 -45 -63 -18 -3 11
-1 11 8 -1 9 -12 10 -10 8 10 -1 14 1 31 5 38 17 26 -12 10 -41 -23 -34 -41
-100 -68 -82 -35 17 32 11 36 -13 9 -16 -19 -27 -24 -42 -19 -16 6 -30 -3 -65
-39 -25 -26 -58 -65 -75 -85 -16 -21 -38 -46 -47 -54 -14 -13 -15 -19 -5 -31
9 -12 9 -13 -1 -7 -7 4 -19 0 -28 -8 -8 -9 -13 -16 -10 -16 3 0 -9 -15 -25
-32 -16 -18 -28 -40 -26 -50 3 -11 0 -15 -9 -11 -8 3 -14 -1 -14 -11 0 -9 -5
-16 -11 -16 -6 0 -9 -6 -6 -12 2 -7 9 -12 14 -11 5 1 10 -5 10 -13 0 -12 -3
-12 -18 2 -11 10 -19 12 -24 5 -3 -6 -3 -11 1 -11 4 0 0 -6 -11 -13 -11 -9
-15 -19 -10 -27 5 -8 4 -11 -2 -7 -5 4 -16 -6 -24 -21 -7 -15 -24 -44 -36 -64
-13 -21 -20 -38 -16 -38 4 0 0 -6 -8 -12 -8 -7 -28 -42 -43 -78 -16 -36 -33
-75 -39 -87 -5 -11 -6 -27 -2 -34 5 -7 4 -10 -2 -6 -11 7 -32 -41 -54 -123
-15 -53 -14 -51 -21 -70 -11 -27 -16 -60 -10 -60 3 0 13 7 22 15 14 13 17 13
17 0 0 -8 -3 -12 -6 -10 -15 8 -43 -25 -38 -45 3 -11 2 -18 -3 -15 -7 4 -14
-27 -26 -115 -2 -19 -6 -79 -8 -132 -3 -85 -2 -96 13 -91 13 4 13 3 2 -5 -13
-9 -23 -67 -25 -144 -1 -16 -5 -28 -10 -28 -5 0 -7 -3 -4 -6 4 -3 2 -19 -2
-36 -13 -45 30 -109 57 -86 10 8 12 7 8 -5 -4 -8 -2 -18 4 -21 6 -4 8 -13 4
-21 -3 -9 1 -15 8 -15 10 0 11 -2 2 -8 -6 -4 -13 -40 -16 -80 -4 -70 -1 -78
27 -73 5 1 4 -5 -4 -13 -14 -18 -25 -22 -15 -6 3 6 2 10 -4 10 -6 0 -8 -50 -5
-137 6 -198 7 -207 24 -221 10 -9 10 -11 1 -6 -11 5 -12 -2 -6 -37 4 -24 9
-55 12 -69 7 -47 47 -175 55 -178 4 -2 6 -8 2 -13 -3 -5 0 -9 7 -9 7 0 9 -3 6
-7 -4 -3 2 -20 13 -38 11 -18 17 -35 13 -38 -3 -4 -1 -7 4 -7 6 0 10 -12 8
-26 -1 -16 2 -24 10 -21 6 3 12 -1 12 -9 0 -7 -4 -11 -9 -8 -4 3 -8 0 -8 -5 0
-6 4 -11 10 -11 5 0 7 -7 4 -15 -4 -10 0 -15 12 -15 16 0 16 -2 5 -9 -12 -8
-13 -14 -3 -36 7 -14 16 -24 21 -20 5 3 13 0 17 -6 4 -7 3 -9 -4 -5 -6 3 -14
1 -18 -5 -3 -6 -1 -15 6 -19 6 -4 11 -10 10 -14 -5 -16 11 -67 19 -62 5 3 7
-4 3 -16 -4 -16 -2 -19 8 -13 10 6 12 4 7 -8 -3 -9 0 -23 8 -31 8 -7 12 -16 9
-19 -3 -3 0 -15 6 -27 10 -18 14 -19 28 -8 15 12 16 11 3 -4 -14 -19 -5 -55
27 -106 12 -19 17 -20 31 -10 14 11 14 11 3 -3 -17 -23 4 -73 27 -64 12 5 13
3 4 -6 -9 -9 -1 -27 35 -79 62 -89 112 -150 124 -150 5 0 7 4 3 9 -3 5 -1 12
4 15 10 7 9 -13 -2 -30 -8 -13 26 -47 37 -37 4 5 6 3 4 -3 -4 -15 61 -86 72
-79 6 3 7 0 4 -8 -7 -18 21 -41 38 -31 10 6 10 4 -1 -9 -11 -14 -11 -18 3 -23
9 -3 16 -13 16 -21 0 -8 5 -11 10 -8 6 3 10 -2 10 -13 0 -10 9 -27 20 -37 11
-10 20 -14 20 -9 0 5 4 2 9 -6 6 -8 24 -14 45 -13 28 1 43 -6 70 -33 18 -18
31 -36 28 -39 -3 -3 0 -5 5 -5 6 0 14 6 17 13 3 6 4 3 1 -9 -6 -23 39 -69 57
-58 7 4 8 3 4 -4 -9 -15 63 -94 77 -85 6 3 7 2 4 -4 -7 -11 70 -80 84 -76 5 2
8 0 6 -5 -1 -4 1 -8 5 -10 4 -2 21 -16 39 -32 17 -17 35 -27 40 -24 5 3 8 0 7
-7 -2 -6 3 -14 11 -17 9 -3 11 0 6 8 -5 9 -4 11 4 6 6 -4 9 -11 6 -16 -7 -12
73 -63 86 -55 5 4 8 1 7 -7 -2 -8 6 -13 18 -12 13 0 20 -5 17 -11 -5 -15 51
-39 71 -32 10 4 13 1 9 -9 -3 -9 2 -14 16 -14 12 0 21 -3 21 -7 0 -5 16 -9 35
-11 20 -1 78 -25 131 -52 53 -28 102 -50 109 -50 7 0 15 -5 17 -11 2 -6 15
-12 30 -12 14 -1 24 -5 21 -9 -2 -5 1 -9 6 -9 20 -3 26 -5 46 -16 11 -6 22
-11 25 -11 3 0 18 -5 33 -11 16 -6 33 -8 39 -5 6 4 8 2 5 -3 -8 -13 10 -21 41
-18 12 1 22 -2 22 -5 0 -11 89 -32 102 -24 7 5 8 2 3 -6 -6 -10 -4 -12 8 -7 9
3 19 2 22 -3 4 -6 13 -10 22 -10 13 0 14 2 2 18 -12 15 -12 16 2 5 9 -7 19 -9
23 -5 4 4 6 2 4 -3 -2 -6 -1 -11 2 -12 3 -1 19 -7 35 -13 17 -6 57 -13 90 -16
33 -2 71 -6 85 -8 14 -3 54 -8 90 -10 36 -3 90 -9 120 -13 30 -3 78 -6 105 -6
28 1 117 2 200 3 98 1 154 5 164 13 10 8 13 8 8 1 -4 -7 2 -11 18 -11 14 0 23
3 20 7 -2 3 2 7 10 7 8 0 15 -4 15 -8 0 -5 12 -6 28 -4 15 3 38 7 52 9 14 3
25 5 25 6 0 1 20 3 45 5 25 2 56 5 70 8 14 2 45 8 70 12 52 8 74 13 78 15 1 2
5 3 10 4 4 1 13 5 21 10 11 7 12 6 6 -5 -8 -12 -6 -12 8 0 9 7 17 11 17 8 0
-6 20 -1 162 40 35 10 55 21 51 27 -4 6 1 5 10 -3 12 -9 17 -10 17 -2 0 7 5 9
12 5 8 -5 9 -1 4 12 -5 14 -4 16 4 8 13 -13 50 -7 50 7 0 5 7 5 17 2 11 -4 14
-3 9 5 -5 8 -2 10 8 6 8 -3 21 -2 28 2 7 5 15 9 18 10 38 7 60 19 60 33 0 14
2 14 10 1 6 -9 10 -11 10 -3 0 7 7 10 17 6 12 -5 14 -3 8 7 -5 8 -4 11 3 6 10
-6 46 8 62 24 3 3 14 7 25 8 34 6 47 22 33 40 -11 13 -11 14 2 7 26 -16 53
-17 47 -1 -4 9 0 12 11 10 26 -7 48 12 34 28 -8 11 -7 14 7 14 12 0 17 -5 13
-14 -4 -12 -2 -12 17 -1 11 8 21 17 21 22 0 4 4 6 10 2 5 -3 18 3 30 15 11 11
22 20 25 20 15 -2 63 35 58 43 -3 6 -1 7 5 3 15 -9 61 24 62 44 0 12 2 12 8 2
7 -9 15 -6 36 13 15 14 29 25 32 25 5 0 23 14 54 42 10 9 28 22 40 28 13 7 19
17 16 26 -3 8 -2 12 4 9 5 -3 18 0 29 7 15 9 17 15 9 25 -8 10 -7 12 6 7 20
-8 48 14 39 30 -3 6 -2 8 2 3 5 -4 17 0 27 9 15 14 16 20 5 32 -10 13 -9 14
10 4 19 -10 23 -9 28 8 3 11 13 20 21 20 8 0 12 4 9 10 -3 5 1 10 10 10 9 0
13 5 10 10 -3 6 -1 10 5 10 14 0 66 61 62 73 -1 5 2 6 7 3 11 -7 83 79 74 88
-4 3 2 6 12 6 15 0 16 2 4 17 -10 12 -10 15 -1 9 7 -4 19 0 28 8 8 9 13 16 10
16 -3 0 2 8 12 18 38 41 100 130 99 142 -1 3 11 18 27 33 16 16 25 34 22 42
-3 9 1 15 10 15 8 0 12 5 9 10 -3 6 -2 10 2 10 9 0 75 123 73 135 0 3 6 13 15
22 9 8 14 22 11 30 -4 9 -2 11 6 7 8 -5 9 -2 5 10 -4 9 -3 14 2 11 12 -7 25
31 16 45 -4 6 -1 9 7 8 7 -2 12 5 12 15 -1 9 2 17 8 17 5 0 6 5 3 10 -3 6 -2
10 3 10 5 0 12 8 14 18 3 9 6 20 7 24 1 4 12 31 25 60 34 77 120 346 132 412
2 14 8 36 14 50 5 13 6 27 3 30 -3 3 -1 11 4 18 6 7 9 23 8 36 -1 12 2 22 7
22 5 0 8 8 6 18 -1 9 1 23 5 30 5 7 3 12 -4 12 -8 0 -8 4 1 15 7 8 14 34 15
58 1 23 6 50 10 60 4 10 5 20 2 23 -3 3 -2 18 3 34 5 18 4 32 -3 40 -9 10 -9
11 1 6 8 -5 11 0 8 16 -1 13 0 35 5 50 4 14 4 29 1 33 -10 9 -11 36 -1 30 12
-8 7 78 -6 87 -6 5 -5 8 3 8 14 0 15 117 1 126 -5 3 -6 11 -2 17 9 15 11 67 2
67 -4 0 -5 10 -1 22 3 14 1 19 -6 14 -6 -3 -14 -2 -17 4 -4 6 -1 9 7 8 18 -4
17 34 -2 50 -8 8 -9 11 -2 7 9 -5 12 3 10 29 -1 20 -7 36 -13 36 -5 0 -3 5 5
10 10 7 11 10 2 10 -8 0 -10 8 -6 25 5 21 3 24 -12 19 -14 -4 -15 -3 -6 4 10
7 12 21 7 48 -4 22 -9 54 -12 71 -3 21 -9 30 -17 26 -6 -4 -5 1 3 10 13 16 8
22 -13 18 -5 -1 -5 4 1 11 13 16 -15 140 -30 131 -5 -3 -6 3 -2 16 4 12 2 21
-4 21 -6 0 -8 6 -5 13 3 8 -2 19 -10 26 -8 7 -12 21 -9 32 3 12 1 24 -5 28 -6
3 -13 18 -15 31 -2 14 -9 36 -14 50 -31 72 -36 86 -35 93 1 4 -2 7 -6 7 -5 0
-9 6 -9 13 0 25 -139 291 -220 422 -90 144 -214 313 -307 419 -96 110 -258
266 -269 259 -6 -3 -7 -1 -4 4 4 6 -3 18 -16 26 -12 8 -32 25 -45 36 -12 12
-27 19 -34 15 -6 -4 -8 -3 -5 3 3 5 -6 20 -21 32 -75 60 -105 80 -116 74 -6
-3 -8 -3 -4 2 11 11 -20 38 -37 31 -8 -3 -14 0 -12 6 1 7 -8 17 -20 23 -13 5
-23 13 -23 17 0 3 -30 23 -67 44 -36 20 -82 47 -101 60 -19 13 -38 22 -42 19
-5 -3 -10 -1 -12 4 -1 5 -36 25 -76 45 -63 32 -76 35 -90 24 -15 -11 -15 -11
-5 3 11 13 6 19 -33 37 -24 12 -53 22 -63 22 -11 0 -21 5 -23 10 -2 6 -13 12
-26 13 -12 0 -22 4 -22 8 0 8 -50 23 -67 20 -7 -1 -13 2 -13 7 0 6 -17 13 -37
17 -21 4 -44 11 -50 17 -16 13 -47 2 -37 -13 4 -8 3 -9 -5 -5 -6 4 -9 11 -6
16 3 5 -3 14 -14 19 -24 14 -44 14 -36 2 3 -5 1 -13 -5 -16 -6 -4 -10 -3 -9 2
4 22 -3 33 -18 33 -10 0 -46 9 -80 19 -63 19 -74 17 -50 -9 10 -12 9 -12 -4
-2 -9 6 -19 8 -23 4 -4 -4 -6 -1 -4 7 2 9 -14 18 -47 27 -76 20 -135 25 -135
11 0 -7 -4 -6 -10 3 -10 16 -38 21 -152 23 -43 1 -78 5 -78 9 0 13 -77 3 -96
-12 -18 -14 -18 -14 -5 3 12 15 11 17 -2 17 -9 0 -18 -3 -20 -7z m60 -26 c0
-8 -6 -14 -14 -14 -9 0 -10 4 -2 14 6 7 12 13 14 13 1 0 2 -6 2 -13z m159 -2
c-1 -8 -5 -17 -8 -21 -5 -4 -4 16 1 34 3 9 9 -1 7 -13z m119 -4 c3 -5 2 -12
-3 -15 -5 -3 -9 1 -9 9 0 17 3 19 12 6z m70 -20 c-9 -8 -36 -10 -30 -2 2 4 11
8 20 8 8 0 13 -3 10 -6z m45 4 c0 -2 -6 -8 -13 -14 -10 -8 -14 -7 -14 2 0 8 6
14 14 14 7 0 13 -1 13 -2z m51 -22 c13 -16 12 -17 -3 -4 -10 7 -18 15 -18 17
0 8 8 3 21 -13z m-109 -10 c6 1 12 -3 14 -8 3 -6 -7 -11 -20 -11 -14 0 -22 4
-20 8 3 4 -6 8 -20 8 -14 0 -26 -4 -26 -10 0 -5 -4 -10 -10 -10 -14 0 -12 28
3 33 6 2 25 0 41 -4 15 -5 33 -7 38 -6z m118 -22 c14 -2 35 -4 48 -5 12 0 22
-3 22 -7 0 -8 -43 -5 -85 5 -11 2 -32 5 -47 5 -16 1 -28 5 -28 10 0 4 12 6 26
3 21 -4 25 -2 20 9 -5 10 -4 10 6 -1 7 -8 24 -17 38 -19z m87 -23 c-3 -8 -6
-5 -6 6 -1 11 2 17 5 13 3 -3 4 -12 1 -19z m60 -14 c-3 -3 -12 -4 -19 -1 -8 3
-5 6 6 6 11 1 17 -2 13 -5z m38 -12 c-3 -3 -11 0 -18 7 -9 10 -8 11 6 5 10 -3
15 -9 12 -12z m49 -4 c-3 -4 -9 -8 -15 -8 -5 0 -9 4 -9 8 0 5 7 9 15 9 8 0 12
-4 9 -9z m56 -20 c0 -10 -9 -9 -35 2 -17 8 -16 8 8 7 15 -1 27 -5 27 -9z m75
4 c-3 -3 0 -10 5 -17 7 -8 5 -12 -5 -12 -8 0 -13 3 -10 5 3 3 0 10 -5 17 -7 8
-5 12 5 12 8 0 13 -3 10 -5z m39 -28 c3 -8 2 -12 -4 -9 -6 3 -10 10 -10 16 0
14 7 11 14 -7z m-991 -1 c-7 -2 -21 -2 -30 0 -10 3 -4 5 12 5 17 0 24 -2 18
-5z m60 0 c-7 -2 -21 -2 -30 0 -10 3 -4 5 12 5 17 0 24 -2 18 -5z m60 0 c-7
-2 -21 -2 -30 0 -10 3 -4 5 12 5 17 0 24 -2 18 -5z m60 0 c-7 -2 -21 -2 -30 0
-10 3 -4 5 12 5 17 0 24 -2 18 -5z m67 3 c0 -9 -40 -13 -46 -5 -3 5 6 9 20 9
14 0 26 -2 26 -4z m37 -2 c-3 -3 -12 -4 -19 -1 -8 3 -5 6 6 6 11 1 17 -2 13
-5z m-412 -14 c-3 -5 -12 -7 -20 -3 -21 7 -19 13 6 13 11 0 18 -4 14 -10z m48
3 c-7 -2 -19 -2 -25 0 -7 3 -2 5 12 5 14 0 19 -2 13 -5z m434 1 c-3 -3 -12 -4
-19 -1 -8 3 -5 6 6 6 11 1 17 -2 13 -5z m693 2 c0 -2 -8 -10 -17 -17 -16 -13
-17 -12 -4 4 13 16 21 21 21 13z m-1775 -15 c3 -5 2 -12 -3 -15 -5 -3 -9 1 -9
9 0 17 3 19 12 6z m465 -1 c0 -5 -10 -10 -22 -9 -22 0 -22 1 -3 9 11 5 21 9
23 9 1 1 2 -3 2 -9z m58 3 c-10 -2 -26 -2 -35 0 -10 3 -2 5 17 5 19 0 27 -2
18 -5z m1316 -22 c-2 -3 -12 3 -22 13 -16 17 -16 18 5 5 12 -7 20 -15 17 -18z
m-1870 11 c3 -5 -1 -9 -9 -9 -8 0 -12 4 -9 9 3 4 7 8 9 8 2 0 6 -4 9 -8z m422
-1 c-3 -4 -34 -14 -68 -20 -35 -7 -72 -15 -83 -18 -11 -3 -17 -2 -13 2 4 4 42
15 85 25 43 10 79 18 81 19 2 0 1 -3 -2 -8z m-181 -49 c-3 -3 -11 0 -18 7 -9
10 -8 11 6 5 10 -3 15 -9 12 -12z m431 -1 c16 2 34 7 41 12 6 4 14 3 18 -3 3
-5 11 -10 16 -10 6 0 7 5 3 11 -5 8 -2 9 12 1 12 -7 25 -7 36 -1 10 5 18 6 18
2 0 -4 46 -8 103 -9 99 0 244 -10 269 -19 7 -2 31 -6 53 -9 33 -5 107 -20 185
-38 8 -1 14 3 12 10 -1 8 2 11 8 7 6 -3 8 -10 5 -15 -5 -8 15 -17 56 -24 8 -1
24 -8 37 -14 12 -7 22 -10 22 -7 0 3 15 -1 34 -9 30 -12 36 -12 52 2 17 16 17
16 5 0 -11 -15 -11 -19 5 -24 11 -3 43 -15 71 -26 29 -11 59 -18 67 -15 10 4
13 1 9 -9 -3 -7 -1 -14 5 -14 6 0 13 6 15 13 3 7 6 4 6 -6 1 -10 5 -16 10 -13
5 4 11 3 13 -1 4 -11 64 -43 79 -43 7 0 20 -7 30 -16 9 -8 26 -16 38 -17 11
-1 23 -7 26 -15 3 -7 9 -10 15 -7 5 3 10 2 10 -3 0 -17 46 -32 59 -19 9 9 11
8 6 -5 -5 -12 3 -22 32 -37 55 -30 77 -45 85 -56 5 -7 8 -7 8 0 0 6 5 2 11 -7
5 -10 17 -18 24 -18 8 0 15 -5 15 -12 0 -6 3 -8 7 -5 3 4 13 -2 21 -14 8 -11
20 -18 28 -15 7 3 16 0 20 -6 5 -7 2 -8 -7 -4 -8 4 -5 0 6 -8 11 -9 27 -22 35
-29 8 -7 35 -28 60 -47 24 -19 55 -45 68 -58 13 -12 28 -19 34 -16 6 4 8 3 5
-3 -9 -14 19 -37 34 -27 8 5 9 3 5 -5 -5 -8 6 -26 29 -49 30 -30 38 -34 46
-22 9 12 10 11 5 -4 -7 -21 40 -80 56 -70 5 3 8 2 7 -3 -3 -19 2 -33 12 -33 5
0 7 5 3 12 -4 7 -3 8 4 4 6 -4 8 -14 5 -23 -4 -11 -3 -14 5 -9 7 4 12 2 12 -3
0 -6 10 -22 22 -36 16 -19 24 -22 31 -13 5 8 6 5 2 -9 -3 -13 -3 -23 2 -23 17
0 169 -205 186 -252 4 -12 13 -16 24 -12 14 4 15 4 4 -4 -10 -7 -11 -14 -2
-31 7 -12 16 -19 20 -17 4 3 6 -5 4 -19 -4 -16 1 -27 15 -36 11 -7 18 -18 16
-24 -3 -6 7 -28 21 -49 14 -20 20 -34 14 -31 -6 4 -3 -8 7 -26 10 -19 19 -36
19 -39 6 -34 30 -80 39 -77 7 3 13 -1 13 -9 0 -7 -4 -11 -9 -8 -4 3 -8 0 -8
-5 0 -6 4 -11 8 -11 4 0 9 -10 9 -22 1 -13 6 -32 12 -43 5 -11 12 -28 15 -39
5 -16 9 -16 24 -5 13 10 12 8 -3 -9 -11 -14 -15 -26 -10 -30 6 -4 11 -14 12
-22 1 -8 4 -24 6 -35 41 -175 52 -213 60 -208 6 4 7 1 2 -7 -10 -16 -13 -120
-3 -114 11 7 15 -19 8 -56 -4 -20 -6 -46 -5 -58 1 -11 -2 -19 -7 -16 -4 3 -8
-6 -8 -20 0 -14 -4 -26 -10 -26 -14 0 -12 -27 3 -33 7 -3 5 -6 -5 -6 -21 -1
-23 -12 -5 -30 10 -10 9 -11 -3 -7 -11 4 -21 -9 -37 -43 -21 -49 -21 -49 -1
-46 12 3 17 1 14 -3 -7 -7 -11 -8 -37 -11 -6 0 -8 -10 -4 -22 4 -13 3 -19 -2
-16 -8 5 -35 -37 -35 -53 0 -3 -6 -13 -15 -22 -13 -15 -14 -20 -3 -33 8 -9 9
-15 4 -14 -26 5 -35 -2 -30 -23 3 -13 3 -17 0 -10 -5 10 -9 9 -20 -5 -17 -23
-18 -36 -1 -27 6 4 9 4 5 0 -3 -4 -9 -6 -13 -4 -10 5 -74 -104 -68 -118 2 -6
0 -15 -6 -19 -7 -4 -9 1 -5 12 4 15 3 14 -7 -2 -7 -11 -19 -27 -27 -35 -8 -8
-21 -29 -29 -47 -7 -18 -18 -33 -24 -33 -5 0 -8 -4 -5 -8 3 -5 -1 -9 -9 -9 -8
0 -15 4 -15 7 0 13 27 30 34 23 4 -4 4 0 1 9 -4 9 -2 19 4 23 6 3 11 14 11 23
-1 14 -2 14 -12 -3 -14 -23 -73 -101 -90 -119 -7 -7 -22 -25 -33 -41 -11 -15
-53 -61 -92 -103 -40 -41 -73 -80 -73 -85 0 -6 -3 -8 -6 -4 -8 8 -33 -16 -27
-25 2 -5 -2 -8 -11 -8 -8 0 -16 -3 -18 -8 -1 -4 -28 -28 -58 -52 -30 -25 -63
-53 -75 -63 -36 -33 -168 -123 -230 -158 -33 -18 -91 -53 -129 -77 -60 -38
-297 -162 -310 -162 -2 0 -7 8 -11 18 -5 13 -4 14 6 5 16 -16 65 9 74 37 5 17
10 18 28 9 12 -7 19 -8 15 -4 -4 5 -3 14 3 21 9 11 7 15 -7 21 -10 4 -19 2
-21 -4 -2 -6 -13 -8 -25 -5 -14 3 -19 1 -14 -6 5 -8 2 -10 -8 -6 -15 6 -21 -6
-17 -29 1 -5 -3 -6 -9 -2 -6 3 -7 11 -4 17 4 7 -5 8 -27 3 -58 -13 -104 -32
-104 -43 0 -6 -4 -14 -9 -19 -5 -4 -6 -3 -2 4 8 15 -10 27 -26 16 -7 -4 -17
-8 -23 -9 -12 -2 -142 -33 -168 -41 -10 -2 -14 -10 -11 -16 5 -9 4 -9 -6 0
-15 14 -43 6 -33 -11 3 -6 3 -8 -2 -4 -4 4 -15 2 -24 -5 -14 -11 -15 -10 -1 7
14 18 13 19 -5 12 -11 -4 -35 -10 -52 -12 -18 -2 -50 -6 -70 -9 -21 -3 -63 -6
-93 -8 -30 -1 -58 -6 -62 -12 -5 -7 -8 -7 -8 0 0 6 -31 10 -73 10 -39 0 -82 3
-95 7 -12 4 -37 9 -55 10 -18 1 -43 8 -56 15 -14 7 -47 18 -73 24 -26 7 -48
16 -48 21 0 4 -7 5 -15 2 -8 -4 -15 -2 -15 4 0 5 -15 15 -32 23 -18 7 -46 23
-61 36 -16 13 -33 23 -38 23 -6 0 -16 6 -23 12 -26 25 -66 58 -71 58 -3 0 -19
15 -36 33 -17 17 -35 31 -40 30 -5 -2 -8 3 -6 10 1 6 -4 11 -11 9 -8 -1 -11 2
-8 7 4 5 -4 17 -16 26 -13 8 -22 19 -21 23 0 4 -3 6 -8 5 -5 -2 -8 0 -7 5 5
14 -44 82 -54 76 -6 -4 -8 -2 -5 3 4 6 -1 21 -11 34 -10 13 -22 32 -25 42 -4
10 -11 16 -16 12 -5 -3 -13 0 -17 6 -4 8 -3 9 4 5 7 -4 12 -2 12 3 0 6 -4 11
-9 11 -5 0 -11 9 -14 20 -4 14 -11 18 -24 14 -14 -4 -15 -4 -4 4 12 8 11 13
-1 31 -8 11 -17 19 -20 16 -2 -3 -4 4 -3 15 1 12 13 27 28 35 18 9 24 10 21 1
-5 -14 74 -9 94 6 8 7 12 7 12 0 0 -6 15 -4 40 4 21 8 57 17 80 20 22 4 40 11
40 16 0 5 4 6 10 3 5 -3 26 -3 46 1 28 5 35 10 31 25 -3 11 -1 17 4 13 5 -3 9
-11 9 -19 0 -9 7 -12 23 -8 12 2 30 5 40 5 9 -1 15 3 12 9 -4 5 3 6 17 1 23
-8 114 9 103 19 -3 3 2 6 10 6 8 0 15 -5 15 -11 0 -7 3 -7 8 -1 4 6 16 11 27
12 28 3 64 10 110 23 22 6 48 11 58 11 20 0 22 10 5 29 -11 12 -10 12 3 2 9
-6 20 -8 24 -4 5 4 5 1 1 -5 -4 -7 -2 -13 3 -13 6 0 11 5 11 11 0 5 4 8 9 4
11 -6 146 39 166 55 6 5 15 7 18 3 4 -3 7 -1 7 5 0 7 4 11 8 10 12 -4 82 35
82 45 0 4 5 5 10 2 6 -3 10 -1 10 4 0 6 6 10 13 9 6 -2 11 2 10 9 -2 7 3 10
10 7 7 -2 23 3 34 13 12 10 38 32 59 48 75 61 145 139 140 157 -1 7 -1 9 2 5
5 -9 52 39 52 54 0 5 9 19 19 30 11 12 38 66 61 122 33 80 40 105 31 119 -8
12 -8 19 1 24 7 4 8 3 4 -4 -4 -7 -2 -12 5 -12 7 0 9 10 7 25 -3 14 -1 28 3
31 5 3 9 10 9 15 0 6 -6 7 -12 3 -10 -6 -10 -5 -1 7 18 22 20 72 3 87 -8 8 -9
11 -2 7 14 -7 15 1 13 65 -1 25 -7 47 -13 49 -6 2 -5 7 3 12 12 8 11 11 -1 19
-8 5 -10 10 -3 10 8 0 7 16 -3 58 -23 89 -45 152 -53 152 -4 0 -8 6 -8 13 0
22 -53 121 -75 140 -11 9 -17 17 -14 17 4 0 2 9 -4 20 -6 11 -15 18 -21 15 -5
-4 -9 0 -9 7 0 30 -143 164 -161 152 -5 -3 -8 0 -7 8 2 8 -6 13 -18 12 -16 0
-20 4 -16 14 3 10 1 13 -6 8 -7 -4 -12 -2 -12 5 0 6 -8 9 -19 6 -14 -3 -18 -1
-14 9 6 17 -9 18 -26 2 -10 -11 -11 -10 -6 3 4 11 -5 21 -35 34 -22 10 -47 18
-55 18 -8 0 -15 4 -15 8 0 5 -7 6 -15 3 -8 -4 -15 -1 -15 6 0 9 -4 9 -17 -1
-11 -10 -14 -10 -9 -1 4 6 4 12 -1 13 -4 0 -19 3 -33 6 -14 3 -44 6 -67 7 -24
0 -43 3 -43 6 0 3 -30 7 -66 8 -47 3 -69 0 -75 -10 -7 -10 -9 -10 -9 0 0 6 -5
12 -11 12 -5 0 -7 -5 -3 -11 5 -8 1 -8 -13 0 -11 6 -23 8 -26 5 -3 -3 -25 -8
-48 -10 -24 -2 -47 -10 -51 -17 -6 -9 -8 -9 -8 0 0 8 -9 9 -32 2 -38 -11 -62
-18 -97 -25 -27 -6 -123 -45 -131 -53 -3 -4 -12 -7 -20 -9 -41 -8 -71 -26 -65
-40 4 -12 3 -13 -10 -2 -10 8 -15 9 -15 1 0 -6 -3 -10 -7 -10 -5 1 -14 1 -22
0 -11 -1 -11 -4 0 -18 13 -15 12 -15 -7 -5 -17 9 -25 8 -41 -8 -12 -10 -24
-16 -27 -13 -3 4 -6 0 -6 -9 0 -8 -6 -15 -13 -15 -16 0 -117 -72 -117 -84 0
-5 -7 -9 -15 -9 -14 0 -18 -10 -12 -27 1 -5 6 -6 12 -5 5 2 6 0 2 -4 -12 -12
-38 -14 -31 -2 4 6 1 8 -7 6 -8 -3 -13 -12 -13 -21 1 -9 -3 -14 -8 -11 -13 8
-50 -27 -44 -42 3 -8 0 -11 -8 -8 -16 6 -40 -21 -31 -36 4 -6 1 -9 -6 -8 -7 2
-16 -8 -20 -22 -4 -14 -7 -19 -8 -12 -1 10 -4 10 -16 -2 -8 -8 -15 -19 -15
-25 0 -6 -5 -11 -12 -11 -6 0 -9 -3 -5 -6 3 -3 -3 -14 -14 -25 -10 -10 -19
-26 -19 -34 0 -8 -4 -15 -9 -15 -5 0 -16 -16 -26 -36 -14 -29 -14 -38 -3 -52
12 -15 11 -16 -4 -4 -14 11 -19 10 -32 -10 -20 -28 -22 -54 -3 -42 7 5 4 1 -8
-10 -11 -10 -20 -21 -20 -25 -1 -3 -9 -21 -18 -38 -10 -18 -15 -33 -11 -33 4
0 2 -6 -4 -12 -8 -11 -24 -62 -28 -93 0 -5 -4 -18 -8 -27 -5 -10 -9 -36 -9
-58 -1 -22 -6 -40 -10 -40 -5 0 -7 -22 -5 -49 1 -27 0 -47 -3 -45 -3 2 -6 -10
-7 -27 -1 -27 1 -29 16 -17 16 12 16 11 0 -7 -13 -16 -16 -39 -13 -121 1 -56
5 -106 9 -112 3 -5 -33 10 -80 35 -84 43 -87 43 -108 26 -21 -18 -21 -18 -3 3
19 23 12 40 -10 22 -7 -6 -16 -8 -20 -4 -3 3 -1 6 5 6 7 0 12 5 12 11 0 5 -4
8 -9 5 -5 -4 -11 -1 -13 4 -2 6 -13 12 -26 13 -12 0 -22 4 -22 8 0 8 -62 35
-73 31 -4 -1 -6 4 -5 10 2 7 -5 12 -14 12 -10 -1 -18 4 -18 11 0 8 -10 12 -25
11 -13 -2 -22 0 -20 4 2 4 -13 14 -34 22 -29 12 -42 13 -51 4 -8 -8 -10 -7 -5
7 5 12 2 17 -9 17 -9 0 -16 7 -16 15 0 8 4 15 10 15 5 0 2 9 -7 19 -9 11 -19
18 -22 17 -3 -2 -14 6 -23 19 -17 22 -17 24 7 39 24 16 37 44 13 30 -7 -4 -8
-3 -4 4 6 10 -7 32 -46 73 -9 9 -14 20 -10 23 3 3 0 6 -6 6 -7 0 -12 7 -12 15
0 9 -7 18 -15 21 -8 4 -15 13 -15 21 0 8 -4 11 -10 8 -6 -4 -7 1 -3 11 5 13 2
16 -9 11 -12 -4 -14 -1 -11 14 4 13 -8 33 -41 65 -25 26 -46 49 -46 52 0 3
-15 23 -33 46 -19 23 -39 51 -46 63 -6 13 -15 22 -19 21 -4 -1 -17 3 -28 10
-12 6 -25 8 -29 4 -5 -4 -5 -2 -1 5 7 12 -11 52 -29 65 -5 4 -27 8 -47 8 -42
0 -51 19 -22 47 8 9 13 22 10 29 -9 23 1 16 21 -16 17 -27 21 -29 38 -16 19
14 19 15 2 33 -14 16 -14 20 -3 20 8 0 14 -3 13 -6 -1 -3 1 -7 6 -8 4 -2 7 0
6 3 0 4 4 10 9 13 5 3 19 25 31 49 18 36 20 46 10 60 -11 14 -11 15 1 5 17
-15 34 -17 25 -3 -3 6 -1 10 5 10 7 0 9 7 6 16 -3 8 -2 13 3 9 13 -7 54 62 45
76 -4 7 -3 9 3 6 5 -4 16 6 24 21 8 15 22 33 32 40 9 7 15 18 12 23 -4 5 -1 9
5 9 7 0 9 7 6 16 -3 8 -2 12 4 9 9 -5 15 15 11 38 0 4 3 7 9 7 5 0 14 10 21
22 10 18 9 20 -5 15 -10 -4 -15 -3 -11 3 3 6 12 10 19 10 13 0 27 28 30 57 1
6 5 15 10 20 5 5 6 2 2 -7 -4 -8 0 -6 8 4 9 11 16 26 16 33 0 7 5 13 10 13 6
0 10 6 10 14 0 8 6 21 13 28 23 23 39 60 42 96 1 19 8 38 16 42 7 5 10 12 6
16 -4 4 2 13 13 21 11 8 20 21 20 29 0 8 5 14 11 14 7 0 5 10 -5 25 -9 13 -16
30 -16 38 0 7 -9 23 -20 35 -13 14 -16 22 -8 22 8 0 9 3 3 8 -6 4 -10 13 -9
20 1 6 2 19 3 28 0 8 16 28 33 45 18 16 28 29 23 29 -6 1 5 7 23 15 17 8 32
19 32 25 0 6 5 8 10 5 6 -3 10 -2 10 4 0 5 -3 11 -7 14 -5 2 -2 2 5 0 13 -3
143 83 150 99 2 5 8 8 13 8 15 0 80 46 73 52 -3 3 3 5 13 5 10 -1 17 4 16 10
-2 7 0 12 5 11 13 -4 52 13 52 23 0 5 3 8 8 7 18 -4 63 23 56 34 -4 6 -3 8 4
4 14 -9 63 14 55 27 -3 6 -1 7 5 4 14 -9 43 3 36 14 -3 5 2 6 11 3 8 -4 21 -2
28 3 6 5 44 23 82 39 39 15 73 32 76 37 3 5 10 8 15 7 16 -2 154 43 154 51 0
4 8 6 18 4 9 -1 23 3 31 9 8 6 15 10 15 8 2 -9 62 13 76 27 8 9 12 12 8 7 -15
-19 -8 -25 17 -16 37 14 101 27 139 29 12 1 16 6 13 16 -4 8 -2 17 4 20 5 4 8
1 7 -7 -3 -15 37 -16 112 -4 25 4 65 8 89 10 26 1 47 8 49 15 3 10 6 10 12 1
4 -6 20 -10 36 -9z m1308 10 c-8 -8 -34 -10 -38 -2 -3 4 6 7 19 7 14 0 22 -2
19 -5z m-1764 -17 c0 -8 -19 -13 -24 -6 -3 5 1 9 9 9 8 0 15 -2 15 -3z m1215
-12 c-3 -3 -11 0 -18 7 -9 10 -8 11 6 5 10 -3 15 -9 12 -12z m-1272 -12 c3
-11 3 -20 1 -20 -2 0 -8 9 -14 20 -6 11 -7 20 -2 20 6 0 12 -9 15 -20z m1908
-7 c13 -16 12 -17 -3 -4 -10 7 -18 15 -18 17 0 8 8 3 21 -13z m-2036 -12 c-3
-5 -1 -12 5 -16 6 -3 13 0 16 9 3 9 12 12 21 9 13 -5 12 -8 -6 -15 -14 -5 -20
-13 -15 -20 5 -10 4 -10 -6 -1 -10 9 -19 9 -41 -3 -28 -14 -29 -14 -29 8 0 17
3 19 9 9 7 -10 13 -11 27 -2 11 6 15 11 11 11 -9 0 1 20 9 20 3 0 3 -4 -1 -9z
m78 -8 c-5 -12 -3 -14 8 -8 11 6 12 5 2 -5 -7 -8 -16 -11 -19 -7 -7 6 2 37 10
37 3 0 2 -7 -1 -17z m-378 -2 c3 -5 2 -12 -3 -15 -5 -3 -9 1 -9 9 0 17 3 19
12 6z m1836 -24 c-10 -9 -11 -8 -5 6 3 10 9 15 12 12 3 -3 0 -11 -7 -18z m71
5 c-7 -2 -10 -7 -8 -11 3 -4 -1 -8 -8 -8 -11 0 -12 4 -3 18 6 10 16 15 21 12
6 -4 5 -8 -2 -11z m-1949 -7 c-3 -9 -8 -14 -10 -11 -3 3 -2 9 2 15 9 16 15 13
8 -4z m1991 7 c3 -5 -1 -9 -9 -9 -8 0 -12 4 -9 9 3 4 7 8 9 8 2 0 6 -4 9 -8z
m-1714 -13 c0 -4 -9 -11 -21 -14 -17 -6 -18 -9 -7 -22 12 -15 11 -15 -8 -3
-22 14 -59 7 -50 -9 3 -5 -2 -7 -13 -4 -10 3 -22 0 -25 -6 -4 -6 -14 -11 -22
-11 -8 0 -27 -12 -41 -27 -14 -16 -20 -20 -13 -10 15 21 10 21 -34 0 -19 -9
-33 -20 -30 -25 3 -5 13 -3 22 4 15 12 16 11 3 -5 -10 -12 -17 -14 -26 -7 -16
13 -98 -27 -88 -43 3 -5 1 -7 -5 -3 -14 8 -83 -24 -76 -36 3 -5 2 -8 -3 -7
-20 3 -34 -2 -28 -11 4 -6 3 -9 -2 -8 -14 4 -53 -13 -53 -23 0 -6 -4 -8 -9 -5
-11 7 -33 -19 -24 -28 4 -4 0 -4 -9 -1 -9 4 -18 0 -22 -10 -3 -9 -10 -14 -15
-11 -5 3 -20 -5 -35 -19 -14 -13 -26 -21 -26 -17 0 4 -7 -2 -15 -12 -8 -11
-15 -15 -15 -9 0 16 163 131 293 207 26 15 45 32 41 37 -3 5 1 6 8 4 8 -3 50
12 93 34 44 21 90 42 103 46 12 3 22 11 22 16 0 5 3 8 8 7 4 -1 22 2 41 6 25
6 30 11 20 17 -9 6 -4 7 15 3 18 -4 27 -3 23 3 -3 5 0 10 8 10 8 0 15 -4 15
-8z m1797 -36 c2 -15 2 -15 -5 -2 -4 9 -15 15 -25 13 -9 -1 -15 2 -11 7 3 5
-2 9 -10 9 -9 0 -16 4 -16 10 0 17 65 -18 67 -37z m-2150 10 c0 -9 -4 -10 -14
-2 -7 6 -13 12 -13 14 0 1 6 2 13 2 8 0 14 -6 14 -14z m2078 8 c3 -5 2 -12 -3
-15 -5 -3 -9 1 -9 9 0 17 3 19 12 6z m165 -28 c25 -9 50 -20 55 -26 7 -7 3 -7
-10 -2 -11 4 -38 13 -60 19 -22 6 -47 17 -55 25 -13 13 -13 14 5 7 11 -5 40
-15 65 -23z m-2274 -5 c4 -7 3 -8 -4 -4 -7 4 -12 2 -12 -5 0 -7 -3 -10 -6 -6
-6 5 3 27 11 27 2 0 7 -5 11 -12z m-41 -7 c-9 -8 -36 -10 -30 -2 2 4 11 8 20
8 8 0 13 -3 10 -6z m-25 -26 c0 -12 -19 -12 -23 0 -4 9 -1 12 9 8 7 -3 14 -7
14 -8z m2351 -2 c13 -16 12 -17 -3 -4 -10 7 -18 15 -18 17 0 8 8 3 21 -13z
m449 7 c0 -5 -2 -10 -4 -10 -3 0 -8 5 -11 10 -3 6 -1 10 4 10 6 0 11 -4 11
-10z m-379 -9 c-8 -5 -10 -14 -5 -22 6 -11 4 -11 -10 0 -13 11 -14 16 -4 22 7
5 18 9 23 9 6 0 4 -4 -4 -9z m84 -29 c47 -24 54 -30 37 -34 -13 -4 -20 -1 -19
5 1 6 -7 13 -17 15 -14 3 -17 0 -13 -13 4 -10 3 -14 -4 -10 -6 4 -8 13 -5 21
6 16 -32 36 -48 26 -5 -3 -6 0 -2 6 9 15 5 16 71 -16z m-2570 -4 c-9 -6 -19
-7 -22 -4 -4 3 -1 6 6 6 7 0 9 4 6 10 -4 6 1 7 11 3 15 -6 15 -7 -1 -15z
m2456 -5 c13 -16 12 -17 -3 -4 -10 7 -18 15 -18 17 0 8 8 3 21 -13z m194 -33
c3 -5 1 -10 -4 -10 -6 0 -11 5 -11 10 0 6 2 10 4 10 3 0 8 -4 11 -10z m-2725
-10 c0 -5 -8 -10 -17 -10 -15 0 -16 2 -3 10 19 12 20 12 20 0z m2700 7 c0 -2
-8 -11 -18 -20 -15 -14 -19 -15 -19 -2 0 8 4 12 8 9 4 -2 10 0 14 6 6 10 15
14 15 7z m-2747 -38 c-9 -9 -12 -7 -10 9 1 14 5 18 11 12 7 -7 6 -14 -1 -21z
m177 17 c0 -2 -8 -10 -17 -17 -16 -13 -17 -12 -4 4 13 16 21 21 21 13z m2648
-9 c8 -10 6 -13 -7 -13 -11 0 -17 6 -14 13 3 7 6 13 8 13 1 0 7 -6 13 -13z
m-43 -15 c-3 -3 -11 0 -18 7 -9 10 -8 11 6 5 10 -3 15 -9 12 -12z m-2811 -6
c-5 -13 -34 -31 -34 -21 0 5 30 35 35 35 3 0 2 -6 -1 -14z m136 -20 c0 -2 -7
-7 -16 -10 -8 -3 -12 -2 -9 4 6 10 25 14 25 6z m2730 -1 c0 -2 -6 -8 -13 -14
-10 -8 -14 -7 -14 2 0 8 6 14 14 14 7 0 13 -1 13 -2z m35 -5 c3 -6 -1 -7 -9
-4 -18 7 -21 14 -7 14 6 0 13 -4 16 -10z m-2948 -15 c-2 -5 -10 -10 -18 -10
-8 -1 -13 -6 -12 -13 2 -7 -16 -26 -40 -43 -23 -17 -41 -35 -39 -41 1 -5 -1
-7 -6 -4 -5 3 -23 -8 -41 -24 -18 -17 -36 -31 -42 -31 -5 -1 -14 -2 -19 -3 -6
0 -14 -7 -19 -14 -7 -11 -9 -10 -14 3 -4 9 -3 14 1 11 5 -3 19 8 32 25 26 31
52 42 29 12 -13 -16 -12 -17 4 -4 9 7 17 18 17 23 0 5 7 16 15 24 8 9 15 11
15 5 0 -6 5 -11 11 -11 5 0 7 5 4 10 -3 6 1 17 9 26 9 8 16 11 16 5 0 -6 5
-11 10 -11 7 0 7 7 -1 21 -8 16 -8 20 0 14 13 -8 64 22 57 33 -2 4 4 8 15 8
11 0 18 -5 16 -11z m2984 -22 c13 -16 12 -17 -3 -4 -10 7 -18 15 -18 17 0 8 8
3 21 -13z m-20 -20 c13 -16 12 -17 -3 -4 -10 7 -18 15 -18 17 0 8 8 3 21 -13z
m99 -27 c0 -2 -6 -9 -14 -15 -11 -9 -16 -9 -22 0 -4 7 -3 9 4 5 6 -3 13 -2 17
4 6 10 15 14 15 6z m-3230 -10 c0 -2 -8 -10 -17 -17 -16 -13 -17 -12 -4 4 13
16 21 21 21 13z m3314 -44 c3 -5 -1 -9 -9 -9 -8 0 -15 4 -15 9 0 4 4 8 9 8 6
0 12 -4 15 -8z m-3143 -25 c-10 -9 -11 -8 -5 6 3 10 9 15 12 12 3 -3 0 -11 -7
-18z m3173 4 c3 -5 -2 -15 -12 -22 -15 -12 -16 -12 -5 2 7 9 10 19 6 22 -3 4
-4 7 0 7 3 0 8 -4 11 -9z m41 -49 c-3 -3 -11 0 -18 7 -9 10 -8 11 6 5 10 -3
15 -9 12 -12z m-3494 -9 c13 -16 12 -17 -3 -4 -10 7 -18 15 -18 17 0 8 8 3 21
-13z m3474 -11 c-3 -3 -11 0 -18 7 -9 10 -8 11 6 5 10 -3 15 -9 12 -12z
m-3326 5 c-2 -1 -13 -9 -24 -17 -19 -14 -19 -14 -6 3 7 9 18 17 24 17 6 0 8
-1 6 -3z m3406 -36 c3 -5 2 -12 -3 -15 -5 -3 -9 1 -9 9 0 17 3 19 12 6z
m-3659 -76 c-1 -8 -5 -17 -8 -21 -5 -4 -4 16 1 34 3 9 9 -1 7 -13z m105 -122
c13 -16 12 -17 -3 -4 -10 7 -18 15 -18 17 0 8 8 3 21 -13z m-407 -9 c3 -8 2
-12 -4 -9 -6 3 -10 10 -10 16 0 14 7 11 14 -7z m385 -7 c8 -10 7 -14 -2 -14
-8 0 -14 6 -14 14 0 7 1 13 2 13 2 0 8 -6 14 -13z m78 -2 c0 -8 -10 -23 -21
-32 -21 -18 -21 -18 -2 5 11 12 16 22 12 22 -4 0 -4 5 -1 10 9 14 12 13 12 -5z
m-406 -12 c13 -16 12 -17 -3 -4 -17 13 -22 21 -14 21 2 0 10 -8 17 -17z m374
7 c-3 -5 -12 -10 -18 -10 -7 0 -6 4 3 10 19 12 23 12 15 0z m-433 -15 c2 3 5
-2 5 -10 0 -19 0 -19 -23 7 -12 14 -13 18 -3 10 9 -6 18 -10 21 -7z m-101 -12
c12 -16 12 -17 -2 -6 -9 7 -20 9 -24 5 -5 -4 -5 -1 -1 6 9 16 11 15 27 -5z
m44 -11 c-3 -3 0 -11 6 -19 17 -20 5 -16 -14 5 -15 16 -15 19 -2 19 8 0 13 -3
10 -5z m40 -25 c1 -7 7 -11 14 -9 7 1 10 -2 6 -8 -5 -8 -11 -7 -21 1 -8 6 -12
14 -9 17 3 3 -1 12 -7 21 -10 14 -10 14 2 3 8 -7 15 -18 15 -25z m-101 -7 c-6
-6 -10 -3 -10 10 0 13 4 16 10 10 7 -7 7 -13 0 -20z m442 10 c0 -12 -4 -16 -9
-11 -5 5 -6 14 -3 20 10 15 12 14 12 -9z m184 6 c0 -3 -4 -8 -10 -11 -5 -3
-10 -1 -10 4 0 6 5 11 10 11 6 0 10 -2 10 -4z m-128 -23 c-1 -4 7 -17 16 -28
17 -20 17 -20 -4 -2 -11 9 -21 24 -21 32 0 8 2 13 5 11 2 -2 4 -8 4 -13z
m-475 -11 c-17 -18 -51 -27 -41 -10 3 5 9 6 14 3 4 -3 13 2 20 10 7 8 15 15
18 15 3 0 -2 -8 -11 -18z m62 -5 c8 -10 7 -14 -2 -14 -8 0 -14 6 -14 14 0 7 1
13 2 13 2 0 8 -6 14 -13z m353 -2 c3 0 9 -3 13 -7 4 -3 0 -5 -9 -4 -9 1 -22 8
-29 16 -10 10 -9 11 3 4 8 -5 18 -9 22 -9z m145 -30 c0 -8 -4 -12 -9 -9 -5 4
-7 9 -4 12 3 3 -2 15 -11 26 -18 21 -18 21 3 3 11 -9 21 -24 21 -32z m-657 25
c0 -5 -5 -10 -11 -10 -5 0 -7 5 -4 10 3 6 8 10 11 10 2 0 4 -4 4 -10z m76 -35
c-1 -8 -5 -17 -8 -21 -5 -4 -4 16 1 34 3 9 9 -1 7 -13z m79 6 c3 -5 2 -12 -3
-15 -5 -3 -9 1 -9 9 0 17 3 19 12 6z m361 -17 c1 -9 0 -13 -4 -10 -3 4 -7 14
-8 22 -1 9 0 13 4 10 3 -4 7 -14 8 -22z m-531 -14 c-3 -5 -12 -10 -18 -10 -7
0 -6 4 3 10 19 12 23 12 15 0z m33 -9 c-7 -9 -13 -18 -15 -20 -1 -2 -1 5 0 16
0 11 7 20 14 20 10 0 10 -4 1 -16z m92 15 c0 -2 -8 -10 -17 -17 -16 -13 -17
-12 -4 4 13 16 21 21 21 13z m381 -13 c13 -16 12 -17 -3 -4 -17 13 -22 21 -14
21 2 0 10 -8 17 -17z m99 12 c0 -1 -10 -10 -22 -21 -14 -12 -18 -13 -10 -3 6
9 10 18 7 21 -3 2 2 5 10 5 8 0 15 -1 15 -2z m-540 -19 c0 -2 -8 -10 -17 -17
-16 -13 -17 -12 -4 4 13 16 21 21 21 13z m387 -13 c0 -9 -4 -10 -14 -2 -7 6
-13 12 -13 14 0 1 6 2 13 2 8 0 14 -6 14 -14z m182 14 c-2 -1 -13 -9 -24 -17
-19 -14 -19 -14 -6 3 7 9 18 17 24 17 6 0 8 -1 6 -3z m-638 -24 c13 -16 12
-17 -3 -4 -10 7 -18 15 -18 17 0 8 8 3 21 -13z m89 3 c0 -2 -8 -10 -17 -17
-16 -13 -17 -12 -4 4 13 16 21 21 21 13z m362 -21 c2 3 5 -2 5 -10 0 -19 1
-20 -28 12 -17 20 -18 23 -3 10 11 -9 23 -15 26 -12z m70 12 c-14 -16 -10 -39
8 -63 14 -18 14 -18 -6 -1 -11 9 -21 25 -21 35 0 17 14 42 24 42 3 0 1 -6 -5
-13z m128 9 c0 -2 -8 -10 -17 -17 -16 -13 -17 -12 -4 4 13 16 21 21 21 13z
m-654 -76 c1 -22 -2 -40 -5 -40 -4 0 -7 17 -6 38 1 20 -5 46 -14 57 -15 19
-15 19 4 3 12 -11 20 -33 21 -58z m580 50 c0 -12 -4 -16 -9 -11 -5 5 -6 14 -3
20 10 15 12 14 12 -9z m-645 -7 c13 -16 12 -17 -3 -4 -10 7 -18 15 -18 17 0 8
8 3 21 -13z m123 1 c3 -8 2 -12 -4 -9 -6 3 -10 10 -10 16 0 14 7 11 14 -7z
m13 -29 c12 1 20 -2 17 -6 -8 -14 -45 -5 -62 16 -17 19 -16 20 3 4 11 -9 30
-15 42 -14z m143 19 c0 -8 -19 -13 -24 -6 -3 5 1 9 9 9 8 0 15 -2 15 -3z m242
-18 c3 3 8 1 12 -4 11 -18 -25 -8 -41 12 -18 21 -18 21 3 3 11 -9 23 -14 26
-11z m107 -10 c-3 -3 -11 5 -18 17 -13 21 -12 21 5 5 10 -10 16 -20 13 -22z
m-601 -10 c16 -20 16 -20 -2 -6 -10 8 -25 15 -33 16 -24 4 -27 13 -4 11 12 -1
30 -10 39 -21z m-22 -32 c1 -9 0 -13 -4 -10 -3 4 -7 14 -8 22 -1 9 0 13 4 10
3 -4 7 -14 8 -22z m640 11 c-1 -8 -5 -17 -8 -21 -5 -4 -4 16 1 34 3 9 9 -1 7
-13z m-224 -22 c-1 -4 7 -17 16 -28 17 -20 17 -20 -4 -2 -11 9 -21 24 -21 32
0 8 2 13 5 11 2 -2 4 -8 4 -13z m80 0 c-1 -4 7 -17 16 -28 17 -20 17 -20 -4
-2 -11 9 -21 24 -21 32 0 8 2 13 5 11 2 -2 4 -8 4 -13z m-108 -1 c3 -5 -1 -9
-9 -9 -8 0 -12 4 -9 9 3 4 7 8 9 8 2 0 6 -4 9 -8z m82 -4 c3 -4 -1 -5 -10 -4
-8 1 -18 5 -22 8 -3 4 1 5 10 4 8 -1 18 -5 22 -8z m74 -2 c-7 -7 -13 -7 -20 0
-6 6 -3 10 10 10 13 0 16 -4 10 -10z m50 9 c0 -1 -10 -10 -22 -21 -14 -12 -18
-13 -10 -3 6 9 10 18 7 21 -3 2 2 5 10 5 8 0 15 -1 15 -2z m-573 -39 c18 -21
18 -21 -3 -3 -11 9 -23 14 -26 11 -3 -3 -8 -1 -12 4 -11 18 25 8 41 -12z m593
20 c0 -2 -8 -10 -17 -17 -16 -13 -17 -12 -4 4 13 16 21 21 21 13z m11 -29 c-6
-8 -9 -17 -6 -20 3 -4 2 -5 -2 -2 -3 3 -11 0 -18 -5 -8 -7 -12 -5 -12 5 0 8 4
12 8 10 3 -3 12 2 19 10 7 8 15 15 17 15 3 0 0 -6 -6 -13z m-620 -14 c13 -16
12 -17 -3 -4 -10 7 -18 15 -18 17 0 8 8 3 21 -13z m556 4 c0 -10 -22 -13 -88
-12 -48 0 -90 3 -93 6 -3 3 33 5 80 4 47 -1 87 2 90 7 7 11 11 10 11 -5z
m-640 -14 c0 -9 -4 -10 -14 -2 -7 6 -13 12 -13 14 0 1 6 2 13 2 8 0 14 -6 14
-14z m64 -10 c13 -16 12 -17 -3 -4 -10 7 -18 15 -18 17 0 8 8 3 21 -13z m-86
-21 c-3 -3 1 -12 8 -21 11 -14 10 -14 -6 -2 -9 8 -15 16 -12 19 3 3 -1 12 -8
21 -11 14 -10 14 6 2 9 -8 15 -16 12 -19z m66 1 c13 -16 12 -17 -3 -4 -10 7
-18 15 -18 17 0 8 8 3 21 -13z m74 5 c5 4 5 1 1 -6 -6 -10 -11 -10 -22 -1 -8
6 -14 14 -14 16 0 3 6 0 13 -6 8 -6 18 -7 22 -3z m325 8 c0 -2 -8 -10 -17 -17
-16 -13 -17 -12 -4 4 13 16 21 21 21 13z m57 -41 c0 -8 -4 -12 -9 -9 -5 4 -7
9 -4 12 3 3 -2 15 -11 26 -18 21 -18 21 3 3 11 -9 21 -24 21 -32z m78 7 c-3
-3 3 -15 12 -26 18 -21 18 -21 -5 -2 -12 11 -20 21 -17 24 3 3 -3 15 -12 26
-18 21 -18 21 5 2 12 -11 20 -21 17 -24z m65 34 c0 -2 -8 -10 -17 -17 -16 -13
-17 -12 -4 4 13 16 21 21 21 13z m-627 -24 c15 -16 15 -19 2 -19 -8 0 -13 3
-10 5 3 3 0 11 -6 19 -17 20 -5 16 14 -5z m648 5 c-6 -8 -9 -16 -6 -19 3 -2
-2 -5 -10 -5 -13 0 -13 3 2 19 19 21 31 25 14 5z m-596 -17 c-3 -5 -12 -10
-18 -10 -7 0 -6 4 3 10 19 12 23 12 15 0z m399 2 c2 -4 -4 -8 -14 -8 -10 0
-16 4 -14 8 3 4 9 8 14 8 5 0 11 -4 14 -8z m82 -4 c3 -4 -1 -5 -10 -4 -8 1
-18 5 -22 8 -3 4 1 5 10 4 8 -1 18 -5 22 -8z m69 -6 c-3 -3 -11 0 -18 7 -9 10
-8 11 6 5 10 -3 15 -9 12 -12z m-641 -21 c-2 -3 -12 3 -22 13 -16 17 -16 18 5
5 12 -7 20 -15 17 -18z m136 14 c0 -1 -10 -10 -22 -21 -14 -12 -18 -13 -10 -3
6 9 10 18 7 21 -3 2 2 5 10 5 8 0 15 -1 15 -2z m265 -40 c0 -21 -8 -42 -20
-52 -18 -17 -18 -17 -4 1 7 11 15 32 15 48 2 32 3 38 7 38 2 0 3 -16 2 -35z
m160 -2 c-1 -15 5 -37 14 -48 15 -19 15 -19 -4 -2 -18 16 -31 92 -15 82 4 -2
6 -17 5 -32z m57 2 c3 3 13 -5 24 -17 19 -23 19 -23 -2 -5 -11 9 -23 15 -26
12 -3 -3 -13 5 -24 17 -19 23 -19 23 2 5 11 -9 23 -15 26 -12z m-563 -1 c-18
-22 -20 -45 -6 -64 10 -13 10 -13 -5 -1 -10 7 -16 21 -15 31 3 18 25 50 34 50
3 0 -1 -7 -8 -16z m612 -1 c13 -16 12 -17 -3 -4 -17 13 -22 21 -14 21 2 0 10
-8 17 -17z m-144 -18 c17 -18 17 -18 -1 -4 -26 19 -67 19 -91 0 -20 -16 -20
-16 -2 5 22 26 70 26 94 -1z m-601 0 c-1 -8 -5 -17 -8 -21 -5 -4 -4 16 1 34 3
9 9 -1 7 -13z m44 11 c0 -2 -8 -10 -17 -17 -16 -13 -17 -12 -4 4 13 16 21 21
21 13z m120 0 c0 -2 -8 -10 -17 -17 -16 -13 -17 -12 -4 4 13 16 21 21 21 13z
m4856 -8 c5 4 5 3 1 -2 -12 -15 -34 -15 -34 0 0 9 4 11 12 4 7 -5 16 -6 21 -2z
m-4489 -26 c-10 -10 -15 -21 -12 -24 3 -3 -5 -13 -17 -24 l-23 -19 19 23 c11
12 15 22 11 22 -4 0 0 9 10 20 10 11 20 20 23 20 3 0 -2 -8 -11 -18z m68 -20
c-3 -3 3 -15 12 -26 18 -21 18 -21 -5 -2 -12 11 -20 21 -17 24 3 3 -3 15 -12
26 -18 21 -18 21 5 2 12 -11 20 -21 17 -24z m122 -7 c0 -8 -4 -12 -9 -9 -5 4
-7 9 -4 12 3 3 -2 15 -11 26 -18 21 -18 21 3 3 11 -9 21 -24 21 -32z m-705
-10 c3 3 13 -5 24 -17 19 -23 19 -23 -2 -5 -11 9 -23 15 -26 12 -3 -3 -13 5
-24 17 -19 23 -19 23 2 5 11 -9 23 -15 26 -12z m247 22 c-2 -1 -13 -9 -24 -17
-19 -14 -19 -14 -6 3 7 9 18 17 24 17 6 0 8 -1 6 -3z m219 -17 c-7 -10 -14
-17 -17 -15 -4 4 18 35 25 35 2 0 -1 -9 -8 -20z m86 12 c2 -4 -4 -8 -14 -8
-10 0 -16 4 -14 8 3 4 9 8 14 8 5 0 11 -4 14 -8z m67 -9 c13 -16 12 -17 -3 -4
-10 7 -18 15 -18 17 0 8 8 3 21 -13z m-517 -22 c-2 -3 -12 3 -22 13 -16 17
-16 18 5 5 12 -7 20 -15 17 -18z m-143 2 c13 -17 13 -17 -6 -3 -11 8 -22 16
-24 17 -2 2 0 3 6 3 6 0 17 -8 24 -17z m5084 7 c3 -5 1 -10 -4 -10 -6 0 -11 5
-11 10 0 6 2 10 4 10 3 0 8 -4 11 -10z m-4815 -14 c0 -2 -7 -7 -16 -10 -8 -3
-12 -2 -9 4 6 10 25 14 25 6z m157 -11 c0 -8 -4 -12 -9 -9 -5 3 -6 10 -3 15 9
13 12 11 12 -6z m279 -1 c-1 -8 -6 -17 -12 -21 -5 -4 -6 -4 -2 1 4 5 3 14 -2
21 -7 8 -5 12 4 12 8 0 13 -6 12 -13z m-656 -15 c0 -5 -4 -9 -8 -9 -5 0 -9 7
-9 15 0 8 4 12 9 9 4 -3 8 -9 8 -15z m436 -5 c1 -9 0 -13 -4 -10 -3 4 -7 14
-8 22 -1 9 0 13 4 10 3 -4 7 -14 8 -22z m4620 -34 c1 -16 -2 -27 -6 -25 -4 2
-6 14 -5 27 1 13 -5 32 -13 43 -16 19 -16 19 3 2 11 -9 20 -31 21 -47z m-4516
46 c0 -3 -4 -8 -10 -11 -5 -3 -10 -1 -10 4 0 6 5 11 10 11 6 0 10 -2 10 -4z
m-484 -21 c-1 -8 -5 -17 -8 -21 -5 -4 -4 16 1 34 3 9 9 -1 7 -13z m376 -20 c3
3 13 -5 24 -17 19 -23 19 -23 -2 -5 -11 9 -23 15 -26 12 -3 -3 -13 5 -24 17
-19 23 -19 23 2 5 11 -9 23 -15 26 -12z m158 20 c0 -1 -10 -10 -22 -21 -14
-12 -18 -13 -10 -3 6 9 10 18 7 21 -3 2 2 5 10 5 8 0 15 -1 15 -2z m35 -5 c3
-6 -1 -7 -9 -4 -18 7 -21 14 -7 14 6 0 13 -4 16 -10z m1509 2 c3 -5 -1 -9 -9
-9 -8 0 -12 4 -9 9 3 4 7 8 9 8 2 0 6 -4 9 -8z m1180 0 c3 -5 -1 -9 -9 -9 -8
0 -12 4 -9 9 3 4 7 8 9 8 2 0 6 -4 9 -8z m-3367 -20 c-10 -10 -15 -21 -12 -24
3 -3 -5 -13 -17 -24 l-23 -19 19 23 c11 12 15 22 11 22 -4 0 0 9 10 20 10 11
20 20 23 20 3 0 -2 -8 -11 -18z m548 -20 c-3 -3 3 -15 12 -26 18 -21 18 -21
-5 -2 -12 11 -20 21 -17 24 3 3 -3 15 -12 26 -18 21 -18 21 5 2 12 -11 20 -21
17 -24z m-529 0 c-17 -16 -18 -16 -5 5 7 12 15 20 18 17 3 -2 -3 -12 -13 -22z
m218 20 c3 -5 -1 -9 -9 -9 -8 0 -12 4 -9 9 3 4 7 8 9 8 2 0 6 -4 9 -8z m426 4
c0 -2 -8 -10 -17 -17 -16 -13 -17 -12 -4 4 13 16 21 21 21 13z m5 -36 c-9 -10
-22 -18 -29 -17 -6 1 -10 -3 -9 -9 1 -6 -5 -11 -13 -11 -12 0 -11 4 2 18 9 10
20 16 24 14 4 -3 13 2 20 10 7 8 15 15 18 15 3 0 -3 -9 -13 -20z m-619 -5 c-1
-8 -5 -17 -8 -21 -5 -4 -4 16 1 34 3 9 9 -1 7 -13z m442 -10 c-3 -3 -9 2 -12
12 -6 14 -5 15 5 6 7 -7 10 -15 7 -18z m122 21 c0 -2 -8 -10 -17 -17 -16 -13
-17 -12 -4 4 13 16 21 21 21 13z m-506 -15 c3 -5 -2 -15 -12 -22 -15 -12 -16
-12 -5 2 7 9 10 19 6 22 -3 4 -4 7 0 7 3 0 8 -4 11 -9z m323 -9 c0 -10 -7 -19
-14 -19 -9 0 -10 4 -3 12 5 7 7 15 3 18 -3 4 -1 7 5 7 6 0 10 -8 9 -18z m4723
8 c0 -5 -5 -10 -11 -10 -5 0 -7 5 -4 10 3 6 8 10 11 10 2 0 4 -4 4 -10z
m-4680 -4 c0 -2 -8 -10 -17 -17 -16 -13 -17 -12 -4 4 13 16 21 21 21 13z
m-484 -25 c-17 -18 -38 -22 -52 -8 -4 3 3 5 14 2 11 -2 26 3 33 11 6 8 14 14
17 14 3 0 -3 -9 -12 -19z m555 2 c13 -16 12 -17 -3 -4 -10 7 -18 15 -18 17 0
8 8 3 21 -13z m-471 4 c0 -2 -8 -11 -18 -20 -15 -14 -19 -15 -19 -2 0 8 4 12
8 9 4 -2 10 0 14 6 6 10 15 14 15 7z m306 -19 c12 -14 13 -18 3 -10 -9 6 -18
10 -21 7 -2 -3 -5 2 -5 10 0 19 0 19 23 -7z m111 7 c0 -8 -3 -13 -5 -10 -3 3
-12 -1 -21 -7 -10 -8 -9 -4 3 10 23 26 23 26 23 7z m2978 -5 c3 -5 1 -10 -4
-10 -6 0 -11 5 -11 10 0 6 2 10 4 10 3 0 8 -4 11 -10z m1720 1 c3 -5 2 -12 -3
-15 -5 -3 -9 1 -9 9 0 17 3 19 12 6z m-5105 -15 c0 -2 -8 -10 -17 -17 -16 -13
-17 -12 -4 4 13 16 21 21 21 13z m350 -10 c-7 -7 -13 -7 -20 0 -6 6 -3 10 10
10 13 0 16 -4 10 -10z m117 -4 c-17 -18 -51 -27 -41 -10 3 5 9 6 14 3 4 -3 13
2 20 10 7 8 15 15 18 15 3 0 -2 -8 -11 -18z m2413 1 c10 10 11 9 5 -2 -6 -11
-4 -13 8 -8 10 3 17 3 17 -2 0 -8 54 -25 77 -24 7 0 10 -3 8 -8 -7 -11 50 -41
60 -31 3 4 5 2 3 -4 -3 -9 62 -74 75 -74 3 0 4 9 2 20 -2 11 0 18 5 15 5 -3 7
-14 5 -25 -4 -21 79 -105 95 -95 6 3 7 -1 4 -9 -3 -9 -2 -16 3 -16 5 0 22 -25
38 -55 17 -30 34 -55 38 -55 5 0 5 -5 2 -11 -4 -6 1 -17 11 -25 11 -9 13 -12
5 -8 -10 5 -12 3 -5 -7 5 -8 9 -18 9 -24 3 -44 20 -111 29 -117 7 -5 8 -8 0
-8 -6 0 -10 -15 -9 -32 1 -18 -2 -41 -6 -50 -6 -10 -5 -19 1 -23 5 -3 10 -12
10 -18 0 -7 -4 -6 -10 3 -10 16 -12 9 -13 -47 -1 -12 -5 -20 -9 -17 -8 5 -11
-5 -11 -38 0 -10 -3 -15 -7 -13 -7 4 -35 -50 -35 -68 0 -4 -6 -11 -13 -16 -7
-4 -12 -12 -10 -17 2 -5 -28 -41 -67 -79 -38 -39 -69 -74 -67 -78 1 -5 -2 -6
-7 -2 -11 6 -83 -29 -75 -38 3 -3 0 -8 -7 -13 -8 -4 -10 -3 -5 4 8 13 -6 17
-18 5 -3 -4 -12 -8 -19 -9 -30 -5 -43 -10 -49 -19 -5 -6 -8 -4 -8 4 0 11 -4
10 -16 -5 -8 -10 -13 -13 -9 -6 3 6 1 12 -5 12 -16 0 -40 -26 -32 -34 3 -4 -2
-4 -12 0 -14 5 -17 4 -12 -5 4 -6 4 -11 -1 -10 -22 4 -44 -2 -39 -10 4 -5 -4
-7 -16 -3 -12 3 -19 1 -15 -5 3 -5 -4 -9 -16 -9 -13 1 -21 -4 -20 -11 2 -7 -2
-13 -7 -13 -6 0 -10 4 -10 9 0 4 -26 3 -57 -5 -75 -16 -121 -23 -213 -30 -41
-4 -78 -12 -82 -18 -6 -8 -8 -8 -8 0 0 6 -14 10 -32 9 -23 -1 -32 -6 -30 -16
1 -9 -3 -7 -13 5 -11 15 -15 16 -16 5 0 -11 -2 -11 -6 0 -5 11 -7 11 -14 0 -7
-12 -9 -11 -9 1 0 13 -1 13 -10 0 -9 -13 -10 -13 -10 0 0 13 -1 13 -10 0 -6
-9 -10 -11 -10 -3 0 7 -7 10 -15 7 -8 -4 -12 -11 -9 -18 3 -6 -1 -3 -9 7 -16
19 -32 24 -21 5 4 -6 3 -8 -4 -4 -16 10 -72 14 -67 5 3 -4 0 -11 -6 -15 -7 -4
-9 -3 -5 4 8 13 -14 28 -23 16 -8 -12 -34 -17 -27 -6 3 5 -8 9 -24 9 -26 0
-28 -3 -17 -16 10 -14 10 -14 -4 -4 -9 7 -20 9 -24 5 -5 -4 -5 -1 -1 6 4 7 1
12 -9 12 -9 0 -14 -4 -11 -8 3 -5 -1 -9 -9 -9 -8 0 -12 4 -9 9 3 4 0 8 -5 8
-6 0 -11 -6 -11 -12 0 -9 -3 -10 -8 -2 -4 6 -34 10 -69 10 -34 -1 -61 1 -61 4
2 11 -15 66 -25 77 -5 7 -14 10 -20 6 -6 -3 -7 -1 -3 6 6 9 11 9 23 0 12 -11
13 -8 7 17 -4 16 -8 45 -8 64 -1 20 -6 35 -13 35 -6 0 -15 3 -19 7 -3 4 2 6
14 3 15 -2 21 3 25 21 2 13 -1 24 -6 24 -8 0 -8 3 0 11 11 11 6 52 -6 45 -4
-3 -5 12 -3 32 5 35 4 36 -14 22 -18 -14 -18 -14 -3 5 9 11 19 34 23 50 14 67
17 80 22 84 2 2 -1 10 -8 18 -9 11 -7 12 7 6 14 -5 17 -3 12 10 -3 8 -2 17 3
19 5 2 10 10 12 18 2 8 9 21 16 28 6 7 12 22 12 33 0 10 3 19 8 19 4 0 13 15
21 33 42 102 81 164 93 152 3 -3 11 1 18 10 7 8 16 15 20 15 4 0 24 7 45 16
28 11 35 18 26 27 -6 6 -11 16 -11 22 0 5 5 2 11 -7 5 -10 17 -18 25 -18 8 0
13 4 10 9 -4 5 3 7 14 4 13 -3 22 1 26 12 5 13 9 14 15 3 8 -11 10 -11 18 0 4
8 12 13 17 13 4 -1 9 19 9 44 1 31 8 52 20 63 18 16 18 16 6 -1 -8 -9 -10 -21
-6 -25 4 -4 10 -1 12 6 3 6 9 10 14 6 5 -3 9 0 9 6 0 6 4 9 8 6 18 -11 84 19
125 57 23 21 42 42 42 47 0 5 4 12 9 17 5 5 6 3 2 -4 -8 -15 6 -17 19 -4 6 6
24 12 40 15 78 14 86 18 81 34 -5 14 -4 14 8 -1 9 -12 16 -14 21 -8 3 6 17 11
31 11 14 0 23 4 20 9 -4 5 2 8 11 6 10 -1 27 5 37 14 11 9 16 10 12 4 -4 -7
-2 -13 3 -13 6 0 11 3 11 8 0 4 32 7 70 7 59 0 70 2 65 15 -4 11 -2 11 8 -2
11 -14 16 -15 27 -5z m-2594 -19 c1 -9 0 -13 -4 -10 -3 4 -7 14 -8 22 -1 9 0
13 4 10 3 -4 7 -14 8 -22z m120 11 c-1 -8 -5 -17 -8 -21 -5 -4 -4 16 1 34 3 9
9 -1 7 -13z m-599 -10 c0 -8 -4 -12 -9 -9 -5 3 -6 10 -3 15 9 13 12 11 12 -6z
m274 -8 c-10 -9 -11 -8 -5 6 3 10 9 15 12 12 3 -3 0 -11 -7 -18z m435 11 c4
-7 3 -8 -5 -4 -6 4 -20 2 -29 -6 -15 -12 -16 -11 -3 5 16 20 27 22 37 5z
m2089 3 c3 -5 2 -12 -3 -15 -5 -3 -9 1 -9 9 0 17 3 19 12 6z m-2698 -16 c0 -8
-10 -23 -21 -32 -21 -18 -21 -18 -2 5 11 12 16 22 12 22 -4 0 -4 5 -1 10 9 14
12 13 12 -5z m48 -4 c-9 -8 -36 -10 -30 -2 2 4 11 8 20 8 8 0 13 -3 10 -6z
m2549 1 c3 -5 -1 -9 -9 -9 -8 0 -12 4 -9 9 3 4 7 8 9 8 2 0 6 -4 9 -8z m521
-1 c3 -5 2 -12 -3 -15 -5 -3 -9 1 -9 9 0 17 3 19 12 6z m-3174 -18 c13 -16 12
-17 -3 -4 -10 7 -18 15 -18 17 0 8 8 3 21 -13z m507 8 c16 12 16 12 0 -6 -18
-19 -18 -19 -35 0 -17 18 -17 18 0 6 14 -11 20 -11 35 0z m79 -9 c-10 -10 -15
-21 -12 -24 3 -2 -2 -5 -10 -5 -10 0 -12 4 -5 12 5 7 6 16 2 20 -4 5 -2 5 5 1
6 -3 14 -2 18 4 3 5 9 10 12 10 3 0 -1 -8 -10 -18z m-614 -10 c15 -16 15 -19
2 -19 -8 0 -13 3 -10 5 3 3 0 11 -6 19 -17 20 -5 16 14 -5z m154 -4 c-3 -8 -6
-5 -6 6 -1 11 2 17 5 13 3 -3 4 -12 1 -19z m326 4 c15 -16 15 -19 2 -19 -8 0
-13 3 -10 5 3 3 0 11 -6 19 -17 20 -5 16 14 -5z m88 5 c-6 -8 -9 -16 -6 -19 3
-2 -2 -5 -10 -5 -13 0 -13 3 2 19 19 21 31 25 14 5z m80 0 c-6 -8 -9 -16 -6
-19 3 -2 -2 -5 -10 -5 -13 0 -13 3 2 19 19 21 31 25 14 5z m33 4 c3 -5 -2 -15
-12 -22 -15 -12 -16 -12 -5 2 7 9 10 19 6 22 -3 4 -4 7 0 7 3 0 8 -4 11 -9z
m1962 -3 c4 -7 4 -10 -1 -6 -4 4 -15 2 -24 -5 -14 -11 -14 -10 -2 6 16 20 18
21 27 5z m-2672 -16 c3 -5 -1 -9 -9 -9 -8 0 -12 4 -9 9 3 4 7 8 9 8 2 0 6 -4
9 -8z m480 0 c2 -4 -4 -8 -14 -8 -10 0 -16 4 -14 8 3 4 9 8 14 8 5 0 11 -4 14
-8z m3191 -10 c-3 -3 -11 0 -18 7 -9 10 -8 11 6 5 10 -3 15 -9 12 -12z m1661
-18 c1 -9 0 -13 -4 -10 -3 4 -7 14 -8 22 -1 9 0 13 4 10 3 -4 7 -14 8 -22z
m-5192 7 c-3 -3 -23 -6 -46 -7 -22 -1 -36 1 -30 5 13 8 84 9 76 2z m2456 -5
c0 -2 -8 -10 -17 -17 -16 -13 -17 -12 -4 4 13 16 21 21 21 13z m-2165 -14 c-3
-3 0 -11 6 -19 17 -20 5 -16 -14 5 -15 16 -15 19 -2 19 8 0 13 -3 10 -5z
m-400 -40 c-3 -3 3 -15 12 -26 18 -21 18 -21 -5 -2 -12 11 -20 21 -17 24 3 3
-3 15 -12 26 -18 21 -18 21 5 2 12 -11 20 -21 17 -24z m92 20 c-10 -10 -15
-21 -12 -24 3 -3 -5 -13 -17 -24 l-23 -19 19 23 c11 12 15 22 11 22 -4 0 0 9
10 20 10 11 20 20 23 20 3 0 -2 -8 -11 -18z m389 -37 c0 -13 -3 -22 -7 -20 -4
3 -6 13 -4 23 1 9 -5 26 -13 37 -16 19 -16 19 3 3 11 -10 20 -29 21 -43z m135
28 c13 -16 12 -17 -3 -4 -10 7 -18 15 -18 17 0 8 8 3 21 -13z m1875 -1 c0 -10
-6 -19 -13 -19 -8 0 -9 6 -2 19 5 10 11 18 12 18 2 0 3 -8 3 -18z m2864 14 c0
-2 -8 -10 -17 -17 -16 -13 -17 -12 -4 4 13 16 21 21 21 13z m-4911 -19 c8 -10
7 -14 -2 -14 -8 0 -14 6 -14 14 0 7 1 13 2 13 2 0 8 -6 14 -13z m-475 -5 c3
-5 -1 -9 -9 -9 -8 0 -12 4 -9 9 3 4 7 8 9 8 2 0 6 -4 9 -8z m76 -6 c-7 -7 -13
-7 -20 0 -6 6 -3 10 10 10 13 0 16 -4 10 -10z m480 0 c-7 -7 -13 -7 -20 0 -6
6 -3 10 10 10 13 0 16 -4 10 -10z m-306 -14 c2 -4 -5 -9 -17 -9 -17 -2 -19 0
-7 7 18 12 18 12 24 2z m2222 -4 c4 -7 4 -10 -1 -6 -4 4 -15 2 -24 -5 -14 -11
-14 -10 -2 6 16 20 18 21 27 5z m939 3 c3 -5 2 -12 -3 -15 -5 -3 -9 1 -9 9 0
17 3 19 12 6z m315 3 c0 -8 -19 -13 -24 -6 -3 5 1 9 9 9 8 0 15 -2 15 -3z
m-3653 -39 c18 1 30 -1 27 -4 -14 -15 -65 -7 -81 13 -18 21 -18 21 2 5 11 -9
35 -15 52 -14z m63 21 c0 -3 -4 -8 -10 -11 -5 -3 -10 -1 -10 4 0 6 5 11 10 11
6 0 10 -2 10 -4z m5241 -23 c13 -16 12 -17 -3 -4 -10 7 -18 15 -18 17 0 8 8 3
21 -13z m-1946 -11 c-3 -3 -11 0 -18 7 -9 10 -8 11 6 5 10 -3 15 -9 12 -12z
m1930 -12 c3 -6 -1 -7 -9 -4 -18 7 -21 14 -7 14 6 0 13 -4 16 -10z m-5385 -4
c0 -2 -6 -9 -14 -15 -11 -9 -16 -9 -22 0 -4 7 -3 9 4 5 6 -3 13 -2 17 4 6 10
15 14 15 6z m6 -34 c-17 -16 -18 -16 -5 5 7 12 15 20 18 17 3 -2 -3 -12 -13
-22z m690 16 c3 -4 -1 -5 -10 -4 -8 1 -18 5 -22 8 -3 4 1 5 10 4 8 -1 18 -5
22 -8z m2821 -13 c0 -8 -4 -12 -9 -9 -5 3 -6 10 -3 15 9 13 12 11 12 -6z
m1899 -11 c1 -9 0 -13 -4 -10 -3 4 -7 14 -8 22 -1 9 0 13 4 10 3 -4 7 -14 8
-22z m-5316 2 c-7 -7 -13 -7 -20 0 -6 6 -3 10 10 10 13 0 16 -4 10 -10z m-29
-23 c13 -16 12 -17 -3 -4 -10 7 -18 15 -18 17 0 8 8 3 21 -13z m56 -5 c-3 -8
-6 -5 -6 6 -1 11 2 17 5 13 3 -3 4 -12 1 -19z m-112 -36 c-1 -9 5 -26 14 -37
16 -20 16 -20 -6 -2 -11 10 -20 26 -18 35 1 9 -3 24 -9 32 -9 13 -9 13 6 2 9
-7 15 -21 13 -30z m202 21 c0 -9 -4 -10 -14 -2 -7 6 -13 12 -13 14 0 1 6 2 13
2 8 0 14 -6 14 -14z m2114 0 c13 -16 12 -17 -3 -4 -17 13 -22 21 -14 21 2 0
10 -8 17 -17z m-2356 -11 c-3 -3 1 -12 7 -21 8 -10 4 -9 -10 3 -15 13 -22 15
-22 6 0 -7 -3 -11 -6 -7 -9 9 3 24 21 24 8 0 13 -3 10 -5z m3583 -27 c-3 -3
-9 2 -12 12 -6 14 -5 15 5 6 7 -7 10 -15 7 -18z m-3503 7 c-3 -3 0 -11 6 -19
17 -20 5 -16 -14 5 -15 16 -15 19 -2 19 8 0 13 -3 10 -5z m703 -27 c-3 -3 -9
2 -12 12 -6 14 -5 15 5 6 7 -7 10 -15 7 -18z m-787 -2 c12 -16 12 -17 -2 -6
-9 7 -20 9 -24 5 -5 -4 -5 -1 -1 6 9 16 11 15 27 -5z m5446 -25 c2 -12 1 -19
-3 -16 -3 3 -6 12 -8 20 -1 7 -5 20 -10 28 -7 12 -6 13 4 3 8 -7 15 -23 17
-35z m-5385 -3 c3 3 13 -5 24 -17 19 -23 19 -23 -1 -7 -11 9 -28 15 -38 14
-11 -2 -16 -1 -13 2 3 4 0 13 -6 22 -10 12 -7 12 8 -2 11 -9 23 -15 26 -12z
m745 10 c0 -8 -4 -12 -9 -9 -5 3 -6 10 -3 15 9 13 12 11 12 -6z m1403 11 c0
-2 -7 -7 -16 -10 -8 -3 -12 -2 -9 4 6 10 25 14 25 6z m1640 -6 c0 -5 -5 -10
-11 -10 -5 0 -7 5 -4 10 3 6 8 10 11 10 2 0 4 -4 4 -10z m-3864 -26 c1 -9 0
-13 -4 -10 -3 4 -7 14 -8 22 -1 9 0 13 4 10 3 -4 7 -14 8 -22z m125 9 c13 -16
12 -17 -3 -4 -10 7 -18 15 -18 17 0 8 8 3 21 -13z m-35 -45 c12 -14 13 -18 3
-10 -9 6 -18 10 -21 7 -2 -3 -5 2 -5 10 0 19 0 19 23 -7z m149 13 c3 -5 2 -12
-3 -15 -5 -3 -9 1 -9 9 0 17 3 19 12 6z m665 6 c0 -2 -8 -11 -18 -20 -15 -14
-19 -15 -19 -2 0 8 4 12 8 9 4 -2 10 0 14 6 6 10 15 14 15 7z m-883 -31 c18
-21 18 -21 -3 -3 -11 9 -23 14 -26 11 -3 -3 -8 -1 -12 4 -11 18 25 8 41 -12z
m893 0 c0 -2 -8 -10 -17 -17 -16 -13 -17 -12 -4 4 13 16 21 21 21 13z m-895
-44 c-3 -3 3 -15 12 -26 18 -21 18 -21 -5 -2 -12 11 -20 21 -17 24 3 3 -3 15
-12 26 -18 21 -18 21 5 2 12 -11 20 -21 17 -24z m77 23 c3 0 9 -3 13 -7 4 -3
0 -5 -9 -4 -9 1 -22 8 -29 16 -10 10 -9 11 3 4 8 -5 18 -9 22 -9z m838 1 c0
-2 -8 -10 -17 -17 -16 -13 -17 -12 -4 4 13 16 21 21 21 13z m-945 -26 c3 -6
-1 -7 -9 -4 -18 7 -21 14 -7 14 6 0 13 -4 16 -10z m81 -2 c3 -4 -1 -5 -10 -4
-8 1 -18 5 -22 8 -3 4 1 5 10 4 8 -1 18 -5 22 -8z m911 -11 c1 -11 1 -18 0
-16 -2 2 -8 11 -15 20 -9 12 -9 16 1 16 7 0 14 -9 14 -20z m-24 -17 c10 -12 9
-12 -4 -2 -9 6 -18 9 -21 6 -3 -3 -9 -1 -12 4 -9 15 22 8 37 -8z m862 11 c-9
-8 -36 -10 -30 -2 2 4 11 8 20 8 8 0 13 -3 10 -6z m-1785 -56 c0 -1 -10 -10
-22 -21 -14 -12 -18 -13 -10 -3 6 9 10 18 7 21 -3 2 2 5 10 5 8 0 15 -1 15 -2z
m30 -10 c-5 -7 -9 -14 -7 -16 1 -2 0 -3 -2 -2 -2 2 -11 -3 -20 -9 -12 -10 -12
-7 2 8 9 11 15 23 12 26 -3 2 2 5 10 5 10 0 12 -4 5 -12z m134 -25 c-6 -6 -10
-3 -10 10 0 13 4 16 10 10 7 -7 7 -13 0 -20z m831 -9 c-9 -8 -36 -10 -30 -2 2
4 11 8 20 8 8 0 13 -3 10 -6z m1039 1 c3 -5 -1 -9 -9 -9 -8 0 -12 4 -9 9 3 4
7 8 9 8 2 0 6 -4 9 -8z m-2064 -6 c0 -2 -8 -10 -17 -17 -16 -13 -17 -12 -4 4
13 16 21 21 21 13z m76 -11 c-1 -8 -5 -17 -8 -21 -5 -4 -4 16 1 34 3 9 9 -1 7
-13z m-30 -2 c-2 -3 -6 -3 -9 -1 -3 2 -15 -6 -28 -17 l-24 -20 18 21 c9 11 24
21 32 21 8 0 13 -2 11 -4z m1010 -17 c1 -7 -4 -13 -12 -13 -9 0 -11 4 -4 12 5
7 8 15 5 18 -3 4 -2 5 2 2 4 -3 8 -11 9 -19z m-1019 -21 c0 -8 -3 -13 -5 -10
-3 3 -12 -1 -21 -7 -10 -8 -9 -4 3 10 23 26 23 26 23 7z m53 0 c0 -2 -6 -8
-13 -14 -10 -8 -14 -7 -14 2 0 8 6 14 14 14 7 0 13 -1 13 -2z m74 -3 c3 -5 -1
-9 -9 -9 -8 0 -15 4 -15 9 0 4 4 8 9 8 6 0 12 -4 15 -8z m-183 -25 c-6 -8 -9
-16 -6 -19 3 -3 -3 -11 -12 -19 -16 -13 -17 -12 -4 4 7 9 10 17 6 17 -4 0 -2
7 5 15 7 8 15 15 17 15 3 0 0 -6 -6 -13z m1083 1 c-2 -3 -13 -6 -24 -5 -24 2
-18 13 9 13 11 0 18 -4 15 -8z m-1028 -13 c-1 -8 -5 -17 -8 -21 -5 -4 -4 16 1
34 3 9 9 -1 7 -13z m1075 -12 c13 -17 13 -17 -6 -3 -11 8 -22 16 -24 17 -2 2
0 3 6 3 6 0 17 -8 24 -17z m-1011 -7 c0 -2 -7 -7 -16 -10 -8 -3 -12 -2 -9 4 6
10 25 14 25 6z m-113 -24 c-10 -10 -15 -21 -12 -24 3 -3 -5 -13 -17 -24 l-23
-19 19 23 c11 12 15 22 11 22 -4 0 0 9 10 20 10 11 20 20 23 20 3 0 -2 -8 -11
-18z m34 -5 c-6 -8 -9 -16 -6 -19 3 -2 -2 -5 -10 -5 -13 0 -13 3 2 19 19 21
31 25 14 5z m3819 3 c0 -5 -2 -10 -4 -10 -3 0 -8 5 -11 10 -3 6 -1 10 4 10 6
0 11 -4 11 -10z m-3703 -15 c0 -8 -4 -12 -9 -9 -5 3 -6 10 -3 15 9 13 12 11
12 -6z m-61 -31 c1 -9 0 -13 -4 -10 -3 4 -7 14 -8 22 -1 9 0 13 4 10 3 -4 7
-14 8 -22z m274 11 c-14 -17 -30 -20 -30 -4 0 5 4 8 9 4 5 -3 12 -1 16 5 3 5
9 10 12 10 3 0 0 -7 -7 -15z m-233 -17 c-3 -8 -6 -5 -6 6 -1 11 2 17 5 13 3
-3 4 -12 1 -19z m1883 18 c0 -3 -4 -8 -10 -11 -5 -3 -10 -1 -10 4 0 6 5 11 10
11 6 0 10 -2 10 -4z m3585 -6 c-3 -5 -12 -10 -18 -10 -7 0 -6 4 3 10 19 12 23
12 15 0z m-5604 -23 c-6 -8 -9 -16 -6 -19 3 -3 -3 -11 -12 -19 -16 -13 -17
-12 -4 4 7 9 10 17 6 17 -4 0 -2 7 5 15 7 8 15 15 17 15 3 0 0 -6 -6 -13z m49
8 c0 -1 -10 -10 -22 -21 -14 -12 -18 -13 -10 -3 6 9 10 18 7 21 -3 2 2 5 10 5
8 0 15 -1 15 -2z m150 -1 c0 -8 -19 -13 -24 -6 -3 5 1 9 9 9 8 0 15 -2 15 -3z
m5280 -4 c0 -5 -2 -10 -4 -10 -3 0 -8 5 -11 10 -3 6 -1 10 4 10 6 0 11 -4 11
-10z m-4340 -4 c0 -2 -8 -10 -17 -17 -16 -13 -17 -12 -4 4 13 16 21 21 21 13z
m-1061 -9 c-2 -1 -13 -9 -24 -17 -19 -14 -19 -14 -6 3 7 9 18 17 24 17 6 0 8
-1 6 -3z m1080 -20 c8 -10 7 -14 -2 -14 -8 0 -14 6 -14 14 0 7 1 13 2 13 2 0
8 -6 14 -13z m-1069 -1 c0 -2 -8 -10 -17 -17 -16 -13 -17 -12 -4 4 13 16 21
21 21 13z m5510 -11 c-5 -7 -9 -14 -7 -16 1 -2 0 -3 -2 -2 -2 2 -11 -3 -20 -9
-12 -10 -12 -7 2 8 9 11 15 23 12 26 -3 2 2 5 10 5 10 0 12 -4 5 -12z m-5583
-8 c0 -7 -9 -14 -20 -14 -19 -2 -19 -2 -1 12 11 8 19 15 20 15 0 0 1 -6 1 -13z
m479 -7 c0 -12 -4 -16 -9 -11 -5 5 -6 14 -3 20 10 15 12 14 12 -9z m-386 6 c0
-2 -8 -10 -17 -17 -16 -13 -17 -12 -4 4 13 16 21 21 21 13z m5350 0 c0 -3 -4
-8 -10 -11 -5 -3 -10 -1 -10 4 0 6 5 11 10 11 6 0 10 -2 10 -4z m-5343 -34
c-17 -18 -51 -27 -41 -10 3 5 9 6 14 3 4 -3 13 2 20 10 7 8 15 15 18 15 3 0
-2 -8 -11 -18z m238 10 c-3 -3 1 -12 7 -21 10 -12 7 -12 -8 2 -11 9 -24 14
-29 10 -4 -5 -5 -3 -2 3 3 6 13 11 22 11 8 0 13 -3 10 -5z m40 0 c-3 -3 3 -15
12 -26 14 -15 14 -18 2 -8 -9 6 -20 8 -25 4 -5 -4 -6 -3 -2 2 4 5 3 14 -2 21
-7 8 -5 12 5 12 8 0 13 -3 10 -5z m40 0 c-3 -3 0 -11 6 -19 17 -20 5 -16 -14
5 -15 16 -15 19 -2 19 8 0 13 -3 10 -5z m100 -10 c-3 -3 -11 0 -18 7 -9 10 -8
11 6 5 10 -3 15 -9 12 -12z m-335 5 c0 -2 -8 -11 -18 -20 -15 -14 -19 -15 -19
-2 0 8 4 12 8 9 4 -2 10 0 14 6 6 10 15 14 15 7z m5420 0 c0 -2 -12 -14 -27
-28 -15 -13 -22 -17 -15 -8 6 9 8 20 4 24 -4 5 -2 5 5 1 6 -3 14 -2 18 4 6 10
15 14 15 7z m-5103 -31 c18 -21 18 -21 -3 -3 -11 9 -23 14 -26 11 -3 -3 -8 -1
-12 4 -11 18 25 8 41 -12z m3293 20 c0 -2 -8 -10 -17 -17 -16 -13 -17 -12 -4
4 13 16 21 21 21 13z m1685 -6 c3 -5 1 -10 -4 -10 -6 0 -11 5 -11 10 0 6 2 10
4 10 3 0 8 -4 11 -10z m66 -3 c-6 -8 -9 -16 -6 -19 3 -2 -2 -5 -10 -5 -13 0
-13 3 2 19 19 21 31 25 14 5z m-5070 -32 c3 2 6 -6 6 -18 1 -12 10 -27 19 -34
10 -7 14 -13 9 -13 -4 0 2 -9 15 -20 13 -11 19 -20 15 -20 -4 0 4 -11 19 -25
15 -14 23 -25 19 -25 -4 0 4 -12 20 -28 15 -15 40 -42 56 -59 16 -18 34 -33
41 -33 6 0 9 -4 6 -9 -6 -9 22 -26 37 -22 5 1 6 -3 3 -7 -8 -14 31 -45 48 -39
10 4 13 1 10 -7 -6 -17 122 -100 138 -90 7 4 8 3 4 -4 -8 -13 37 -28 53 -17 6
3 9 0 6 -7 -4 -9 12 -19 46 -31 42 -15 53 -16 67 -5 15 12 16 11 3 -4 -12 -16
-11 -18 7 -18 12 0 24 -5 27 -11 5 -6 12 -4 21 8 11 14 13 14 8 2 -5 -16 7
-21 90 -36 16 -2 53 -16 82 -29 30 -14 57 -24 60 -23 4 0 11 -5 15 -13 6 -9 9
-10 9 -1 0 7 6 10 13 7 7 -2 21 3 32 12 11 8 14 13 8 9 -23 -11 -14 4 9 16 29
16 68 20 68 8 0 -6 4 -7 10 -4 5 3 10 1 10 -5 0 -6 5 -8 10 -5 6 3 10 0 11 -7
0 -10 2 -10 6 -1 3 10 8 9 20 -3 9 -8 21 -13 29 -10 7 3 14 1 16 -4 2 -5 14
-11 28 -13 14 -2 33 -7 42 -11 10 -5 32 -9 50 -10 30 -1 40 -8 77 -52 5 -7 7
-15 4 -18 -4 -3 2 -6 13 -6 15 0 16 -2 5 -9 -7 -5 -10 -14 -6 -21 6 -9 10 -9
17 1 7 10 8 9 3 -6 -6 -20 23 -85 38 -85 4 0 6 -4 3 -8 -3 -5 4 -19 15 -30 10
-12 19 -25 19 -29 0 -5 6 -15 14 -25 8 -9 12 -19 9 -22 -4 -3 -1 -6 5 -6 7 0
12 -4 12 -10 0 -18 55 -89 69 -90 8 0 11 -3 8 -6 -12 -13 33 -63 51 -58 12 4
13 3 4 -3 -9 -7 -7 -14 9 -31 11 -12 25 -19 31 -16 7 4 8 2 4 -5 -9 -14 59
-85 74 -76 6 4 10 3 9 -2 -3 -18 1 -36 7 -30 4 3 15 -5 26 -18 11 -14 24 -23
29 -20 5 4 9 1 9 -5 0 -6 11 -15 25 -22 13 -6 22 -15 19 -19 -5 -8 18 -14 39
-10 5 1 6 -3 2 -9 -3 -5 1 -10 10 -10 10 0 13 -5 9 -12 -5 -8 0 -9 14 -6 13 4
20 2 16 -4 -3 -5 3 -12 15 -15 12 -3 21 -10 21 -15 0 -5 4 -7 9 -3 5 3 16 -2
25 -11 9 -8 21 -12 27 -8 8 4 9 3 5 -4 -4 -7 4 -14 21 -18 15 -4 36 -13 47
-20 10 -7 25 -10 32 -7 8 3 14 0 14 -7 0 -8 9 -10 28 -6 20 5 23 4 12 -4 -13
-8 -12 -10 5 -11 34 -3 40 -4 50 -10 6 -4 18 -5 28 -4 10 2 14 -1 11 -7 -5 -7
4 -9 24 -6 17 2 29 1 26 -4 -3 -4 2 -8 11 -8 10 0 14 5 10 13 -4 6 1 3 9 -7
12 -15 16 -16 17 -5 0 10 2 10 6 2 2 -7 13 -13 24 -13 10 0 19 6 19 13 0 6 5
4 11 -6 8 -14 14 -15 31 -6 11 6 18 7 15 2 -3 -5 21 -10 54 -11 46 -2 59 1 53
10 -6 10 -5 11 7 1 9 -7 33 -11 55 -9 21 3 56 5 77 5 21 1 36 4 34 9 -3 4 20
8 50 9 37 1 61 7 76 20 11 10 17 12 12 4 -5 -10 -3 -12 11 -8 38 10 79 20 89
22 6 0 9 7 7 15 -2 10 0 11 10 2 8 -6 19 -7 28 -2 8 5 18 6 22 4 4 -3 8 0 8 6
0 6 4 9 9 6 5 -3 27 1 50 9 23 8 45 15 49 16 4 0 6 4 5 7 -1 4 14 8 34 9 19 1
41 7 50 14 8 7 22 14 30 15 29 5 148 58 156 71 4 7 14 10 21 7 7 -3 20 2 29
10 8 8 17 12 21 9 3 -4 6 -1 6 6 0 7 5 9 10 6 6 -3 23 3 39 14 16 12 36 21 44
21 9 0 17 3 19 8 2 4 24 18 51 32 26 13 47 28 47 33 0 4 5 5 12 1 7 -5 9 -2 5
9 -4 11 -2 14 9 10 9 -3 21 3 30 16 9 12 19 19 23 17 13 -8 52 25 45 37 -5 9
-4 9 6 0 10 -9 20 -6 46 14 19 14 31 30 27 36 -3 6 -1 7 6 3 12 -8 81 30 81
45 0 5 5 9 11 9 6 0 16 6 24 13 7 6 24 20 39 31 14 10 23 23 19 29 -3 6 -1 7
5 3 16 -9 65 41 56 57 -5 9 -4 9 7 -1 10 -10 19 -6 46 20 27 26 30 34 21 47
-10 13 -10 14 2 4 19 -17 33 -16 27 1 -4 11 -1 13 10 9 11 -4 14 -2 11 8 -3 8
-11 13 -17 11 -7 -1 -10 2 -6 8 5 8 11 8 21 -1 11 -9 26 1 74 47 38 37 58 64
55 74 -4 8 -3 11 1 8 11 -11 44 11 44 29 0 9 3 14 6 10 7 -6 34 16 34 28 0 3
16 21 35 39 19 19 35 38 35 44 0 5 7 12 15 16 8 3 15 10 15 15 0 6 10 21 23
35 36 40 47 55 47 66 0 5 5 10 10 10 6 0 10 7 10 15 0 8 5 15 11 15 6 0 9 6 6
13 -2 6 -10 11 -16 9 -7 -1 -10 2 -6 8 5 8 11 7 21 -1 8 -6 16 -10 17 -8 4 4
78 124 92 148 6 10 4 12 -6 7 -8 -4 -6 -1 5 8 10 8 15 20 10 27 -4 7 -3 10 4
5 10 -6 65 81 58 93 -2 3 7 12 21 18 20 10 22 9 14 -1 -6 -7 -8 -16 -4 -19 3
-4 2 -7 -3 -7 -11 0 -11 -60 0 -79 6 -9 5 -12 -1 -8 -6 4 -9 -28 -9 -84 1 -49
-1 -89 -4 -89 -3 0 -7 -43 -8 -95 -2 -52 -5 -102 -6 -112 -2 -10 2 -21 8 -25
8 -5 7 -8 -1 -8 -8 0 -13 -14 -13 -36 0 -25 4 -33 13 -29 6 4 5 1 -4 -7 -9 -8
-15 -28 -14 -50 1 -21 -3 -38 -8 -38 -6 0 -2 -10 9 -22 15 -19 16 -20 2 -9
-16 12 -18 11 -18 -10 0 -27 -51 -231 -74 -296 -8 -23 -11 -45 -8 -49 4 -4 1
-4 -5 0 -8 4 -13 1 -13 -9 0 -19 -55 -131 -81 -164 -11 -13 -19 -32 -19 -42 0
-11 -4 -19 -9 -19 -4 0 -16 -21 -25 -48 -26 -70 -37 -91 -80 -157 -48 -73 -46
-69 -95 -125 -22 -24 -37 -48 -35 -52 3 -5 1 -7 -4 -6 -13 4 -73 -63 -66 -73
3 -5 -2 -6 -10 -3 -9 3 -16 2 -16 -4 0 -6 -21 -32 -47 -60 -27 -27 -59 -62
-73 -79 -23 -26 -88 -77 -100 -78 -19 -2 -49 -28 -43 -38 5 -9 3 -9 -8 -1 -17
14 -79 -9 -79 -29 0 -8 -4 -7 -10 3 -7 11 -10 11 -10 2 0 -7 -3 -11 -8 -8 -8
5 -108 -26 -118 -37 -3 -3 -13 -3 -22 0 -11 5 -13 3 -7 -7 6 -9 4 -11 -4 -6
-7 5 -21 0 -32 -10 -15 -14 -17 -20 -6 -32 10 -13 9 -14 -2 -7 -11 6 -13 3 -9
-13 4 -12 2 -20 -3 -16 -5 3 -9 -2 -9 -11 0 -9 -4 -13 -10 -10 -5 3 -10 2 -10
-4 0 -6 -8 -7 -17 -4 -13 5 -15 2 -10 -12 6 -14 5 -16 -6 -7 -9 8 -24 8 -50 1
-39 -10 -44 -17 -27 -37 5 -7 3 -6 -7 2 -14 13 -21 13 -57 -1 -23 -9 -68 -36
-101 -61 -33 -25 -77 -52 -97 -62 -33 -15 -36 -18 -22 -32 13 -13 13 -15 0
-15 -8 0 -13 4 -11 8 6 9 -20 30 -28 22 -4 -3 -1 -13 5 -22 12 -15 11 -15 -7
0 -19 15 -55 15 -55 0 0 -4 -7 -8 -15 -8 -27 0 -154 -46 -150 -54 3 -4 -5 -5
-17 -1 -13 3 -19 1 -15 -5 5 -7 -1 -9 -15 -5 -11 3 -19 1 -16 -4 4 -5 -8 -10
-25 -11 -17 -1 -34 -8 -39 -15 -4 -7 -8 -9 -8 -4 0 5 -8 2 -17 -5 -9 -8 -14
-9 -10 -2 5 8 -2 8 -28 1 -20 -7 -32 -16 -28 -22 4 -6 0 -6 -8 1 -12 10 -20 9
-39 -4 -13 -9 -20 -11 -16 -5 4 7 2 12 -3 12 -6 0 -11 -3 -11 -7 0 -5 -17 -9
-38 -11 -20 -1 -46 -4 -57 -6 -11 -3 -28 -5 -38 -5 -10 -1 -16 -5 -12 -10 3
-6 14 -8 24 -6 10 2 18 -3 18 -11 0 -10 -4 -11 -14 -3 -7 6 -13 8 -13 4 0 -4
-7 -2 -16 6 -21 17 -154 19 -154 2 0 -6 -4 -14 -9 -17 -5 -3 -8 2 -7 11 1 13
-8 17 -47 17 -38 1 -46 -2 -42 -14 4 -8 3 -11 -1 -7 -4 4 -14 1 -23 -6 -14
-11 -14 -10 -2 6 8 9 12 19 10 21 -2 2 -36 6 -75 8 l-72 5 3 -34 c1 -18 -1
-31 -4 -27 -3 3 -6 17 -6 32 -1 24 -4 26 -53 29 -29 1 -51 -1 -48 -5 2 -4 -4
-8 -14 -8 -10 0 -17 3 -15 7 3 3 -30 5 -73 4 -42 0 -83 3 -89 8 -8 6 -13 6
-13 0 0 -5 -7 -10 -15 -10 -8 0 -12 4 -9 8 2 4 -4 8 -13 8 -10 0 -36 3 -58 7
-22 4 -50 7 -62 6 -13 0 -23 4 -23 8 0 5 -11 7 -25 5 -14 -1 -25 2 -25 8 0 6
-3 8 -6 4 -3 -3 -30 5 -60 18 -30 13 -54 22 -54 19 0 -2 -15 3 -32 12 -18 10
-27 19 -20 21 6 3 12 9 12 15 0 6 -7 8 -15 4 -8 -3 -14 -2 -14 2 3 19 -2 23
-16 12 -13 -11 -14 -10 -8 5 5 15 3 17 -11 12 -10 -4 -15 -3 -11 3 5 9 -8 12
-32 9 -3 0 -10 6 -15 15 -5 9 -13 14 -19 11 -5 -4 -9 -1 -9 5 0 7 -7 9 -16 6
-8 -3 -12 -2 -9 4 3 5 -7 13 -22 16 -15 4 -33 14 -40 23 -7 9 -13 12 -13 8 0
-5 -12 1 -26 12 -15 12 -33 21 -40 21 -8 0 -14 5 -14 10 0 6 -5 10 -11 10 -5
0 -7 -6 -3 -12 4 -8 3 -10 -2 -5 -5 5 -9 13 -9 19 0 13 -104 70 -116 62 -5 -3
-8 -2 -7 3 2 4 0 9 -4 11 -5 1 -17 11 -28 22 -23 23 -46 26 -54 8 -3 -7 -3 -3
0 10 4 16 1 22 -10 22 -9 0 -16 6 -16 13 0 8 -4 7 -10 -3 -8 -13 -10 -12 -10
3 0 10 -5 15 -10 12 -5 -3 -10 -2 -10 3 0 12 -50 45 -67 45 -7 0 -10 4 -8 8 3
4 -7 15 -21 24 -22 14 -28 15 -36 4 -6 -10 -7 -7 -3 9 7 23 -9 32 -18 10 -3
-8 -6 -5 -6 5 -1 10 -5 16 -10 13 -5 -3 -14 1 -21 9 -7 8 -17 12 -24 8 -6 -3
-8 -3 -4 1 3 4 -12 24 -35 44 -23 20 -45 42 -50 49 -4 7 -13 18 -20 25 -7 7
-24 29 -37 48 -13 19 -27 37 -30 40 -4 3 -9 13 -13 23 -4 11 -12 15 -18 11 -8
-5 -9 -3 -4 6 4 7 3 15 -1 19 -5 3 -32 39 -59 79 -27 41 -53 76 -58 79 -4 2
-16 -1 -25 -8 -16 -12 -16 -12 -1 5 15 16 14 20 -4 57 -10 21 -23 39 -28 39
-5 0 -8 6 -6 13 1 6 -4 11 -11 9 -8 -1 -11 2 -7 8 9 15 -14 41 -29 33 -6 -3
-8 -3 -4 2 9 10 -19 65 -34 65 -6 0 -8 3 -5 7 9 8 -13 34 -23 28 -5 -3 -6 4
-3 15 3 11 1 20 -5 20 -5 0 -13 11 -16 25 -4 16 -11 23 -18 19 -7 -4 -8 -3 -4
5 6 9 11 9 22 0 17 -14 18 -8 2 26 -7 16 -17 24 -26 20 -12 -4 -12 -3 -3 9 9
11 10 20 2 35 -6 11 -11 30 -11 42 0 21 1 21 13 6 8 -12 16 -14 27 -7 12 8 12
10 -5 10 -12 0 -16 3 -8 8 6 4 9 19 6 35 -4 21 -10 27 -22 22 -13 -5 -14 -4
-3 6 13 14 17 33 4 25 -5 -3 -8 5 -7 17 3 32 -4 40 -23 25 -16 -12 -16 -11 0
7 15 18 15 24 2 60 -8 22 -17 53 -19 69 -4 29 -22 49 -36 41 -3 -3 -15 5 -25
18 -18 20 -18 21 -1 7 11 -8 27 -15 37 -17 16 -2 17 1 8 33 -5 20 -11 44 -13
53 -9 46 -27 101 -34 106 -5 3 -7 15 -3 27 3 13 1 19 -5 15 -7 -5 -9 0 -6 13
3 12 0 20 -6 20 -7 0 -10 4 -6 9 5 9 -8 82 -22 121 -3 8 -7 31 -9 50 -6 54 -9
63 -26 90 -9 14 -19 37 -22 52 -6 37 -15 50 -29 41 -7 -3 -3 3 7 15 15 17 16
22 5 23 -10 0 -10 2 -2 6 10 3 9 8 -2 19 -10 11 -12 21 -5 38 6 16 5 28 -3 36
-9 10 -9 11 1 6 7 -4 12 -2 12 6 1 9 5 7 14 -4 7 -10 15 -16 17 -13z m784 7
c-3 -3 -11 0 -18 7 -9 10 -8 11 6 5 10 -3 15 -9 12 -12z m-1179 -7 c-1 -8 -5
-17 -8 -21 -5 -4 -4 16 1 34 3 9 9 -1 7 -13z m79 -4 c3 -5 2 -12 -3 -15 -5 -3
-9 1 -9 9 0 17 3 19 12 6z m236 -14 c-10 -9 -11 -8 -5 6 3 10 9 15 12 12 3 -3
0 -11 -7 -18z m5084 14 c3 -5 2 -12 -3 -15 -5 -3 -9 1 -9 9 0 17 3 19 12 6z
m-5365 -15 c0 -2 -8 -10 -17 -17 -16 -13 -17 -12 -4 4 13 16 21 21 21 13z
m5440 -1 c0 -1 -10 -10 -22 -21 -14 -12 -18 -13 -10 -3 6 9 10 18 7 21 -3 2 2
5 10 5 8 0 15 -1 15 -2z m30 -10 c-5 -7 -9 -14 -7 -16 1 -2 0 -3 -2 -2 -2 2
-11 -3 -20 -9 -12 -10 -12 -7 2 8 9 11 15 23 12 26 -3 2 2 5 10 5 10 0 12 -4
5 -12z m-4999 -12 c13 -16 12 -17 -3 -4 -10 7 -18 15 -18 17 0 8 8 3 21 -13z
m-411 2 c0 -2 -6 -8 -13 -14 -10 -8 -14 -7 -14 2 0 8 6 14 14 14 7 0 13 -1 13
-2z m-85 -62 c-18 -17 -18 -17 -6 0 11 14 11 20 0 35 -12 16 -12 16 6 0 19
-18 19 -18 0 -35z m1286 30 c13 -16 12 -17 -3 -4 -17 13 -22 21 -14 21 2 0 10
-8 17 -17z m-1337 -23 c-6 -6 -10 -3 -10 10 0 13 4 16 10 10 7 -7 7 -13 0 -20z
m5562 15 c-1 -8 -5 -17 -8 -21 -5 -4 -4 16 1 34 3 9 9 -1 7 -13z m-5441 -4 c3
-5 2 -12 -3 -15 -5 -3 -9 1 -9 9 0 17 3 19 12 6z m5399 -7 c3 -8 2 -12 -4 -9
-6 3 -10 10 -10 16 0 14 7 11 14 -7z m-4093 -11 c13 -16 12 -17 -3 -4 -10 7
-18 15 -18 17 0 8 8 3 21 -13z m-884 -16 c1 -11 1 -18 0 -16 -2 2 -8 11 -15
20 -9 12 -9 16 1 16 7 0 14 -9 14 -20z m-460 -2 c0 -8 -3 -13 -5 -10 -3 3 -12
-1 -21 -7 -10 -8 -9 -4 3 10 23 26 23 26 23 7z m5435 0 c2 3 5 -2 5 -10 0 -19
0 -19 -23 7 -12 14 -13 18 -3 10 9 -6 18 -10 21 -7z m68 12 c0 -2 -8 -11 -18
-20 -15 -14 -19 -15 -19 -2 0 8 4 12 8 9 4 -2 10 0 14 6 6 10 15 14 15 7z
m-5450 -12 c0 -2 -6 -8 -13 -14 -10 -8 -14 -7 -14 2 0 8 6 14 14 14 7 0 13 -1
13 -2z m1554 -3 c3 -5 -1 -9 -9 -9 -8 0 -12 4 -9 9 3 4 7 8 9 8 2 0 6 -4 9 -8z
m-1068 -28 c1 -9 0 -13 -4 -10 -3 4 -7 14 -8 22 -1 9 0 13 4 10 3 -4 7 -14 8
-22z m-591 7 c-9 -8 -36 -10 -30 -2 2 4 11 8 20 8 8 0 13 -3 10 -6z m560 -1
c3 -6 -1 -7 -9 -4 -18 7 -21 14 -7 14 6 0 13 -4 16 -10z m4927 -15 c2 3 5 -2
5 -10 0 -10 -4 -12 -12 -5 -7 5 -16 6 -21 2 -5 -4 -6 -3 -2 2 4 5 2 16 -4 25
-10 12 -7 12 8 -2 11 -9 23 -15 26 -12z m-5435 0 c0 -8 -3 -13 -5 -10 -3 3
-15 -3 -26 -12 -15 -14 -18 -14 -8 -2 6 9 8 20 4 24 -4 5 -2 5 5 1 6 -3 14 -2
18 4 9 14 12 13 12 -5z m5200 0 c0 -8 -4 -12 -9 -9 -5 3 -6 10 -3 15 9 13 12
11 12 -6z m-5162 -4 c3 -5 2 -12 -3 -15 -5 -3 -9 1 -9 9 0 17 3 19 12 6z
m5457 -2 c2 -2 1 -3 -1 -2 -2 2 -9 -2 -16 -7 -8 -7 -12 -5 -12 4 0 12 22 16
29 5z m-5555 -14 c0 -8 -10 -23 -21 -32 -21 -18 -21 -18 -2 5 11 12 16 22 12
22 -4 0 -4 5 -1 10 9 14 12 13 12 -5z m1560 0 c0 -8 -4 -12 -9 -9 -5 3 -6 10
-3 15 9 13 12 11 12 -6z m-1500 -20 c0 -8 -3 -13 -5 -10 -3 3 -12 -1 -21 -7
-10 -8 -9 -4 3 10 23 26 23 26 23 7z m5435 0 c2 3 5 -2 5 -10 0 -19 0 -19 -23
7 -12 14 -13 18 -3 10 9 -6 18 -10 21 -7z m-5382 0 c0 -2 -6 -8 -13 -14 -10
-8 -14 -7 -14 2 0 8 6 14 14 14 7 0 13 -1 13 -2z m485 -15 c10 -11 16 -20 13
-20 -3 0 -13 9 -23 20 -10 11 -16 20 -13 20 3 0 13 -9 23 -20z m50 10 c-3 -5
-12 -10 -18 -10 -7 0 -6 4 3 10 19 12 23 12 15 0z m984 -4 c9 -11 9 -16 -1
-22 -7 -4 -10 -4 -6 1 4 4 3 14 -3 22 -6 7 -9 13 -6 13 2 0 10 -6 16 -14z
m3921 9 c0 -2 -6 -8 -13 -14 -10 -8 -14 -7 -14 2 0 8 6 14 14 14 7 0 13 -1 13
-2z m-4870 -9 c0 -2 -8 -10 -17 -17 -16 -13 -17 -12 -4 4 13 16 21 21 21 13z
m4613 -9 c7 3 8 2 4 -2 -14 -16 -36 -14 -29 3 4 10 7 12 10 4 2 -7 9 -9 15 -5z
m-5283 -1 c0 -2 -8 -10 -17 -17 -16 -13 -17 -12 -4 4 13 16 21 21 21 13z m390
0 c0 -2 -7 -7 -16 -10 -8 -3 -12 -2 -9 4 6 10 25 14 25 6z m3130 -2 c0 -8 -19
-13 -24 -6 -3 5 1 9 9 9 8 0 15 -2 15 -3z m1941 -11 c13 -16 12 -17 -3 -4 -10
7 -18 15 -18 17 0 8 8 3 21 -13z m-5060 -20 c13 -16 12 -17 -3 -4 -10 7 -18
15 -18 17 0 8 8 3 21 -13z m299 12 c0 -2 -6 -8 -13 -14 -10 -8 -14 -7 -14 2 0
8 6 14 14 14 7 0 13 -1 13 -2z m4825 -4 c3 -5 2 -12 -3 -15 -5 -3 -9 1 -9 9 0
17 3 19 12 6z m-5536 -45 c-3 -3 -11 5 -18 17 -13 21 -12 21 5 5 10 -10 16
-20 13 -22z m396 6 c-3 -3 1 -12 8 -21 11 -14 10 -14 -6 -2 -9 8 -15 16 -12
19 3 3 -1 12 -8 21 -11 14 -10 14 6 2 9 -8 15 -16 12 -19z m5082 10 c-17 -18
-51 -27 -41 -10 3 5 9 6 14 3 4 -3 13 2 20 10 7 8 15 15 18 15 3 0 -2 -8 -11
-18z m-4750 -10 c-10 -10 -15 -21 -12 -24 3 -2 -2 -5 -10 -5 -10 0 -12 4 -5
12 5 7 6 16 2 20 -4 5 -2 5 5 1 6 -3 14 -2 18 4 3 5 9 10 12 10 3 0 -1 -8 -10
-18z m2723 3 c-7 -8 -17 -15 -23 -15 -6 0 -2 7 9 15 25 19 30 19 14 0z m-3479
-12 c13 -16 12 -17 -3 -4 -17 13 -22 21 -14 21 2 0 10 -8 17 -17z m786 -6 c0
-8 -6 -14 -14 -14 -9 0 -10 4 -2 14 6 7 12 13 14 13 1 0 2 -6 2 -13z m-741
-22 c-1 -8 -5 -17 -8 -21 -5 -4 -4 16 1 34 3 9 9 -1 7 -13z m365 -2 c13 -16
12 -17 -3 -4 -10 7 -18 15 -18 17 0 8 8 3 21 -13z m5075 2 c-1 -8 -5 -17 -8
-21 -5 -4 -4 16 1 34 3 9 9 -1 7 -13z m-5472 -6 c3 -3 -5 -5 -19 -5 -13 0 -22
3 -19 7 4 8 30 6 38 -2z m5494 -29 c-7 -10 -14 -17 -17 -15 -4 4 18 35 25 35
2 0 -1 -9 -8 -20z m-5057 -7 c13 -16 12 -17 -3 -4 -10 7 -18 15 -18 17 0 8 8
3 21 -13z m359 13 c0 -2 -8 -10 -17 -17 -16 -13 -17 -12 -4 4 13 16 21 21 21
13z m57 -30 c18 -21 18 -21 -3 -3 -11 9 -23 14 -26 11 -3 -3 -8 -1 -12 4 -11
18 25 8 41 -12z m-436 -3 c13 -16 12 -17 -3 -4 -10 7 -18 15 -18 17 0 8 8 3
21 -13z m-401 -7 c-7 -7 -13 -7 -20 0 -6 6 -3 10 10 10 13 0 16 -4 10 -10z
m3285 5 c-9 -8 -36 -10 -30 -2 2 4 11 8 20 8 8 0 13 -3 10 -6z m1800 -1 c-3
-5 -12 -10 -18 -10 -7 0 -6 4 3 10 19 12 23 12 15 0z m415 6 c0 -3 -4 -8 -10
-11 -5 -3 -10 -1 -10 4 0 6 5 11 10 11 6 0 10 -2 10 -4z m-4679 -23 c13 -16
12 -17 -3 -4 -17 13 -22 21 -14 21 2 0 10 -8 17 -17z m4633 -13 c-6 -6 -10 -3
-10 10 0 13 4 16 10 10 7 -7 7 -13 0 -20z m-4540 11 c3 -5 -2 -15 -12 -22 -15
-12 -16 -12 -5 2 7 9 10 19 6 22 -3 4 -4 7 0 7 3 0 8 -4 11 -9z m4246 -1 c0
-5 -5 -10 -11 -10 -5 0 -7 5 -4 10 3 6 8 10 11 10 2 0 4 -4 4 -10z m-4769 -27
c13 -16 12 -17 -3 -4 -17 13 -22 21 -14 21 2 0 10 -8 17 -17z m2814 7 c-3 -5
-12 -10 -18 -10 -7 0 -6 4 3 10 19 12 23 12 15 0z m-3228 -13 c0 -8 -6 -14
-14 -14 -9 0 -10 4 -2 14 6 7 12 13 14 13 1 0 2 -6 2 -13z m480 -2 c0 -8 -3
-13 -5 -10 -3 3 -12 -1 -21 -7 -10 -8 -9 -4 3 10 23 26 23 26 23 7z m480 2 c0
-8 -6 -14 -14 -14 -9 0 -10 4 -2 14 6 7 12 13 14 13 1 0 2 -6 2 -13z m53 -2
c0 -2 -6 -8 -13 -14 -10 -8 -14 -7 -14 2 0 8 6 14 14 14 7 0 13 -1 13 -2z m20
-18 c0 -2 -9 -12 -19 -21 -14 -13 -21 -14 -27 -5 -4 7 -3 10 3 6 6 -4 16 0 23
8 12 14 20 19 20 12z m35 -7 c3 -6 -1 -7 -9 -4 -18 7 -21 14 -7 14 6 0 13 -4
16 -10z m40 0 c3 -6 -1 -7 -9 -4 -18 7 -21 14 -7 14 6 0 13 -4 16 -10z m4365
4 c0 -8 -19 -13 -24 -6 -3 5 1 9 9 9 8 0 15 -2 15 -3z m-5477 -19 c-3 -9 -8
-14 -10 -11 -3 3 -2 9 2 15 9 16 15 13 8 -4z m483 0 c-1 -8 -5 -17 -8 -21 -5
-4 -4 16 1 34 3 9 9 -1 7 -13z m4549 -4 c-4 -3 -11 -6 -17 -6 -6 0 -16 -9 -22
-20 -6 -11 -17 -24 -25 -29 -11 -7 -11 -10 0 -18 11 -8 11 -9 -1 -5 -16 5 -42
-16 -34 -27 2 -3 1 -4 -2 -1 -8 5 -50 -46 -46 -57 1 -5 -2 -7 -6 -5 -5 1 -21
-13 -36 -30 -27 -32 -56 -44 -56 -23 0 5 7 7 15 3 10 -3 15 0 13 8 -2 8 3 13
10 11 7 -1 15 6 19 15 3 10 25 38 47 63 23 25 58 66 79 92 25 29 44 45 53 41
8 -3 12 -8 9 -12z m92 4 c0 -8 -4 -15 -9 -15 -10 0 -11 14 -1 23 9 10 10 9 10
-8z m-4061 -7 c4 -7 4 -10 -1 -6 -4 4 -15 2 -24 -5 -14 -11 -14 -10 -2 6 16
20 18 21 27 5z m124 -2 c0 -2 -8 -10 -17 -17 -16 -13 -17 -12 -4 4 13 16 21
21 21 13z m4276 -11 c-1 -8 -5 -17 -8 -21 -5 -4 -4 16 1 34 3 9 9 -1 7 -13z
m-5052 -3 c3 -5 -1 -9 -9 -9 -8 0 -12 4 -9 9 3 4 7 8 9 8 2 0 6 -4 9 -8z
m2513 -7 c0 -8 -4 -12 -9 -9 -5 3 -6 10 -3 15 9 13 12 11 12 -6z m-2916 -12
c13 -16 12 -17 -3 -4 -10 7 -18 15 -18 17 0 8 8 3 21 -13z m429 2 c-7 -8 -17
-15 -23 -15 -6 0 -2 7 9 15 25 19 30 19 14 0z m4668 -10 c-3 -3 -9 2 -12 12
-6 14 -5 15 5 6 7 -7 10 -15 7 -18z m-4637 2 c-6 -8 -9 -16 -6 -19 3 -2 -2 -5
-10 -5 -13 0 -13 3 2 19 19 21 31 25 14 5z m4554 4 c3 -5 2 -12 -3 -15 -5 -3
-9 1 -9 9 0 17 3 19 12 6z m-3755 -5 c0 -2 -8 -10 -17 -17 -16 -13 -17 -12 -4
4 13 16 21 21 21 13z m75 -15 c3 -5 2 -12 -3 -15 -5 -3 -9 1 -9 9 0 17 3 19
12 6z m-1320 -10 c3 -5 2 -12 -3 -15 -5 -3 -9 1 -9 9 0 17 3 19 12 6z m1537
-6 c2 3 5 -2 5 -10 0 -19 0 -19 -23 7 -12 14 -13 18 -3 10 9 -6 18 -10 21 -7z
m-171 -28 c-6 -8 -8 -17 -4 -20 3 -4 1 -7 -5 -7 -15 0 -15 13 0 28 16 16 23
15 9 -1z m49 8 c0 -1 -10 -10 -22 -21 -14 -12 -18 -13 -10 -3 6 9 10 18 7 21
-3 2 2 5 10 5 8 0 15 -1 15 -2z m181 -12 c13 -16 12 -17 -3 -4 -10 7 -18 15
-18 17 0 8 8 3 21 -13z m853 9 c2 -4 -4 -8 -14 -8 -10 0 -16 4 -14 8 3 4 9 8
14 8 5 0 11 -4 14 -8z m-1997 -20 c-10 -10 -15 -21 -12 -24 3 -3 -5 -13 -17
-24 l-23 -19 19 23 c11 12 15 22 11 22 -4 0 0 9 10 20 10 11 20 20 23 20 3 0
-2 -8 -11 -18z m1259 -4 c12 -14 13 -18 3 -10 -9 6 -18 10 -21 7 -2 -3 -5 2
-5 10 0 19 0 19 23 -7z m664 8 c0 -2 -8 -10 -17 -17 -16 -13 -17 -12 -4 4 13
16 21 21 21 13z m-170 -10 c0 -2 -8 -10 -17 -17 -16 -13 -17 -12 -4 4 13 16
21 21 21 13z m96 -8 c5 4 5 3 1 -2 -12 -15 -34 -15 -34 0 0 9 4 11 12 4 7 -5
16 -6 21 -2z m-1811 -7 c-9 -8 -36 -10 -30 -2 2 4 11 8 20 8 8 0 13 -3 10 -6z
m1270 -9 c-3 -3 -11 0 -18 7 -9 10 -8 11 6 5 10 -3 15 -9 12 -12z m39 10 c3
-5 -1 -9 -9 -9 -8 0 -12 4 -9 9 3 4 7 8 9 8 2 0 6 -4 9 -8z m3126 -3 c0 -4 -9
-7 -19 -6 -11 0 -18 4 -16 7 6 9 35 8 35 -1z m-4400 -34 c14 -19 14 -19 -2 -6
-10 7 -18 18 -18 24 0 6 1 8 3 6 1 -2 9 -13 17 -24z m1614 9 c3 -8 2 -12 -4
-9 -6 3 -10 10 -10 16 0 14 7 11 14 -7z m-1684 -7 c0 -2 -9 -12 -19 -21 -14
-13 -21 -14 -27 -5 -4 7 -3 10 3 6 6 -4 16 0 23 8 12 14 20 19 20 12z m56 -29
c12 -14 13 -18 3 -10 -9 6 -18 10 -21 7 -2 -3 -5 2 -5 10 0 19 0 19 23 -7z
m-501 2 c-3 -5 -12 -10 -18 -10 -7 0 -6 4 3 10 19 12 23 12 15 0z m532 -47 c0
-9 -4 -10 -14 -2 -7 6 -13 12 -13 14 0 1 6 2 13 2 8 0 14 -6 14 -14z m4363 11
c0 -8 -19 -13 -24 -6 -3 5 1 9 9 9 8 0 15 -2 15 -3z m-4443 -37 c0 -8 -6 -14
-14 -14 -9 0 -10 4 -2 14 6 7 12 13 14 13 1 0 2 -6 2 -13z m1740 -4 c-4 -3 -2
-11 3 -18 7 -8 6 -12 -3 -12 -7 0 -14 9 -14 19 -1 10 3 18 9 18 6 0 8 -3 5 -7z
m-1685 -60 c-1 -4 7 -17 16 -28 17 -20 17 -20 -4 -2 -11 9 -21 24 -21 32 0 8
2 13 5 11 2 -2 4 -8 4 -13z m1738 -39 c0 -8 -19 -13 -24 -6 -3 5 1 9 9 9 8 0
15 -2 15 -3z m-1671 -37 c0 -8 -2 -8 -6 1 -4 10 -8 10 -21 0 -15 -12 -16 -11
-3 4 14 19 32 15 30 -5z m1696 14 c3 -5 2 -12 -3 -15 -5 -3 -9 1 -9 9 0 17 3
19 12 6z m-1757 -30 c-7 -9 -13 -18 -15 -20 -1 -2 -1 5 0 16 0 11 7 20 14 20
10 0 10 -4 1 -16z m1779 -4 c0 -8 -6 -14 -14 -14 -9 0 -10 4 -2 14 6 7 12 13
14 13 1 0 2 -6 2 -13z m-1741 -9 c4 -7 4 -10 -1 -6 -4 4 -15 2 -24 -5 -14 -11
-14 -10 -2 6 16 20 18 21 27 5z m1778 -48 c-6 -6 -10 -3 -10 10 0 13 4 16 10
10 7 -7 7 -13 0 -20z m-1753 -27 c13 -16 12 -17 -3 -4 -10 7 -18 15 -18 17 0
8 8 3 21 -13z m-20 -20 c13 -16 12 -17 -3 -4 -10 7 -18 15 -18 17 0 8 8 3 21
-13z m-23 -28 c-3 -3 -9 2 -12 12 -6 14 -5 15 5 6 7 -7 10 -15 7 -18z m77 6
c3 -5 2 -12 -3 -15 -5 -3 -9 1 -9 9 0 17 3 19 12 6z m-45 -15 c0 -2 -8 -10
-17 -17 -16 -13 -17 -12 -4 4 13 16 21 21 21 13z m1855 -26 c10 -11 16 -20 13
-20 -3 0 -13 9 -23 20 -10 11 -16 20 -13 20 3 0 13 -9 23 -20z m-2294 -7 c13
-16 12 -17 -3 -4 -10 7 -18 15 -18 17 0 8 8 3 21 -13z m459 13 c0 -2 -8 -10
-17 -17 -16 -13 -17 -12 -4 4 13 16 21 21 21 13z m1885 -34 c-3 -3 -11 0 -18
7 -9 10 -8 11 6 5 10 -3 15 -9 12 -12z m-2300 -11 c3 -5 2 -12 -3 -15 -5 -3
-9 1 -9 9 0 17 3 19 12 6z m418 -36 c-7 -21 -12 -19 -10 4 0 11 5 18 9 15 4
-3 5 -11 1 -19z m1923 0 c1 -8 -2 -15 -6 -15 -5 0 -8 9 -7 20 1 21 10 18 13
-5z m-2321 -43 c-3 -3 0 -10 5 -17 7 -8 5 -12 -4 -12 -8 0 -13 7 -11 16 1 9
-3 23 -9 31 -10 13 -9 13 7 1 9 -8 15 -16 12 -19z m2375 23 c0 -2 -6 -8 -13
-14 -10 -8 -14 -7 -14 2 0 8 6 14 14 14 7 0 13 -1 13 -2z m-1969 -28 c-6 -8
-7 -18 -3 -22 4 -5 1 -5 -6 -1 -10 6 -10 11 -1 22 6 8 14 14 16 14 3 0 0 -6
-6 -13z m2035 -33 c0 -13 -2 -22 -5 -19 -3 3 -6 17 -7 31 0 13 2 22 5 19 3 -3
6 -17 7 -31z m1285 3 c-10 -9 -11 -8 -5 6 3 10 9 15 12 12 3 -3 0 -11 -7 -18z
m-1206 -35 c-3 -3 -11 0 -18 7 -9 10 -8 11 6 5 10 -3 15 -9 12 -12z m-2495 4
c0 -2 -8 -10 -17 -17 -16 -13 -17 -12 -4 4 13 16 21 21 21 13z m3593 -11 c-3
-9 -8 -14 -10 -11 -3 3 -2 9 2 15 9 16 15 13 8 -4z m-3179 -3 c3 -5 -1 -9 -9
-9 -8 0 -12 4 -9 9 3 4 7 8 9 8 2 0 6 -4 9 -8z m3226 -2 c0 -5 -2 -10 -4 -10
-2 0 -20 -7 -40 -15 -20 -8 -36 -13 -36 -10 0 3 14 11 30 16 17 6 30 15 30 20
0 5 5 9 10 9 6 0 10 -4 10 -10z m-3620 -4 c0 -2 -8 -10 -17 -17 -16 -13 -17
-12 -4 4 13 16 21 21 21 13z m2530 -10 c0 -2 -8 -10 -17 -17 -16 -13 -17 -12
-4 4 13 16 21 21 21 13z m35 -6 c3 -6 -1 -7 -9 -4 -18 7 -21 14 -7 14 6 0 13
-4 16 -10z m805 4 c0 -8 -19 -13 -24 -6 -3 5 1 9 9 9 8 0 15 -2 15 -3z m-3350
-8 c0 -2 -8 -10 -17 -17 -16 -13 -17 -12 -4 4 13 16 21 21 21 13z m2594 -21
c3 -8 1 -17 -5 -20 -5 -4 -8 -1 -7 7 2 7 -2 12 -8 11 -6 -1 -11 4 -11 12 0 16
23 9 31 -10z m701 16 c3 -5 2 -12 -3 -15 -5 -3 -9 1 -9 9 0 17 3 19 12 6z
m-3278 -19 c0 -10 -6 -19 -13 -19 -9 0 -9 5 -1 19 7 10 13 18 14 18 1 0 1 -8
0 -18z m3489 6 c4 -6 3 -8 -4 -4 -6 3 -13 2 -17 -4 -3 -5 -11 -10 -18 -10 -6
0 -2 7 9 15 23 18 21 17 30 3z m-3095 -25 c12 -16 12 -17 -2 -6 -9 7 -20 9
-24 5 -5 -4 -5 -1 -1 6 9 16 11 15 27 -5z m2285 -19 c1 -9 0 -13 -4 -10 -3 4
-7 14 -8 22 -1 9 0 13 4 10 3 -4 7 -14 8 -22z m748 14 c-3 -4 -9 -8 -15 -8 -5
0 -9 4 -9 8 0 5 7 9 15 9 8 0 12 -4 9 -9z m-644 -6 c0 -5 -7 -9 -15 -9 -8 0
-12 4 -9 9 3 4 9 8 15 8 5 0 9 -4 9 -8z m270 2 c0 -8 -19 -13 -24 -6 -3 5 1 9
9 9 8 0 15 -2 15 -3z m320 -8 c0 -11 -259 -81 -267 -72 -3 3 8 8 23 11 30 7
90 23 179 49 56 16 65 18 65 12z m-490 -12 c0 -8 -19 -13 -24 -6 -3 5 1 9 9 9
8 0 15 -2 15 -3z m-2904 -30 c1 -9 0 -13 -4 -10 -3 4 -7 14 -8 22 -1 9 0 13 4
10 3 -4 7 -14 8 -22z m3064 12 c0 -3 -4 -8 -10 -11 -5 -3 -10 -1 -10 4 0 6 5
11 10 11 6 0 10 -2 10 -4z m-2994 -28 c3 -4 -1 -5 -10 -4 -8 1 -18 5 -22 8 -3
4 1 5 10 4 8 -1 18 -5 22 -8z m2734 8 c0 -3 -4 -8 -10 -11 -5 -3 -10 -1 -10 4
0 6 5 11 10 11 6 0 10 -2 10 -4z m76 -8 c3 -4 -1 -5 -10 -4 -8 1 -18 5 -22 8
-3 4 1 5 10 4 8 -1 18 -5 22 -8z m-2402 -28 c-6 -6 -10 -3 -10 10 0 13 4 16
10 10 7 -7 7 -13 0 -20z m2635 6 c-24 -23 -399 -49 -399 -28 0 4 64 8 143 9
81 1 165 8 197 16 50 12 70 13 59 3z m-3023 -38 c12 -14 13 -18 3 -10 -9 6
-18 10 -21 7 -2 -3 -5 2 -5 10 0 19 0 19 23 -7z m411 8 c0 -15 -21 -16 -34 -1
-4 4 -3 5 4 1 6 -3 14 -2 18 4 8 14 12 13 12 -4z m2166 7 c-7 -2 -19 -2 -25 0
-7 3 -2 5 12 5 14 0 19 -2 13 -5z m-2126 -66 c0 -8 -6 -14 -14 -14 -9 0 -10 4
-2 14 6 7 12 13 14 13 1 0 2 -6 2 -13z m-405 -22 c3 3 11 -3 19 -12 12 -16 12
-17 -2 -6 -9 7 -18 11 -21 8 -3 -3 -11 3 -19 12 -12 16 -12 17 2 6 9 -7 18
-11 21 -8z m-34 -16 c9 -12 9 -16 -1 -16 -7 0 -14 9 -14 20 -1 11 -1 18 0 16
2 -2 8 -11 15 -20z m5022 -25 c0 -8 -19 -13 -24 -6 -3 5 1 9 9 9 8 0 15 -2 15
-3z m-4974 -26 c3 -4 -1 -5 -10 -4 -8 1 -18 5 -22 8 -3 4 1 5 10 4 8 -1 18 -5
22 -8z m46 -13 c2 3 5 -2 5 -10 0 -19 0 -19 -23 7 -12 14 -13 18 -3 10 9 -6
18 -10 21 -7z m428 1 c0 -2 -7 -7 -16 -10 -8 -3 -12 -2 -9 4 6 10 25 14 25 6z
m-451 -30 c9 -11 9 -16 -1 -22 -7 -4 -10 -4 -6 1 4 4 3 14 -3 22 -6 7 -9 13
-6 13 2 0 10 -6 16 -14z m461 10 c0 -2 -8 -10 -17 -17 -16 -13 -17 -12 -4 4
13 16 21 21 21 13z m-439 -39 c-10 -9 -11 -8 -5 6 3 10 9 15 12 12 3 -3 0 -11
-7 -18z m69 -5 c0 -5 -7 -9 -15 -9 -8 0 -12 4 -9 9 3 4 9 8 15 8 5 0 9 -4 9
-8z m-44 -17 c-1 -8 -5 -17 -8 -21 -5 -4 -4 16 1 34 3 9 9 -1 7 -13z m4801
-10 c0 -8 -4 -12 -9 -9 -5 3 -6 10 -3 15 9 13 12 11 12 -6z m-4747 -49 c0 -2
-8 -10 -17 -17 -16 -13 -17 -12 -4 4 13 16 21 21 21 13z m4710 -9 c0 -2 -10
-12 -22 -23 l-23 -19 19 23 c18 21 26 27 26 19z m-35 -57 c-3 -5 -12 -10 -18
-10 -7 0 -6 4 3 10 19 12 23 12 15 0z m-4595 -14 c0 -2 -8 -10 -17 -17 -16
-13 -17 -12 -4 4 13 16 21 21 21 13z m81 -113 c13 -17 13 -17 -6 -3 -11 8 -22
16 -24 17 -2 2 0 3 6 3 6 0 17 -8 24 -17z m4386 -10 c-4 -3 -1 -13 6 -22 11
-14 10 -14 -5 -2 -16 12 -16 31 -1 31 4 0 3 -3 0 -7z m-4322 -52 c0 -16 -3
-27 -7 -25 -6 4 -5 29 1 52 4 11 7 -3 6 -27z m4285 -27 c0 -8 -19 -13 -24 -6
-3 5 1 9 9 9 8 0 15 -2 15 -3z m-470 -19 c0 -2 -6 -8 -13 -14 -10 -8 -14 -7
-14 2 0 8 6 14 14 14 7 0 13 -1 13 -2z m-49 -22 c13 -16 12 -17 -3 -4 -17 13
-22 21 -14 21 2 0 10 -8 17 -17z m-3204 -10 c0 -9 -4 -10 -14 -2 -7 6 -13 12
-13 14 0 1 6 2 13 2 8 0 14 -6 14 -14z m3648 8 c-9 -8 -36 -10 -30 -2 2 4 11
8 20 8 8 0 13 -3 10 -6z m-466 -14 c8 -10 7 -14 -2 -14 -8 0 -14 6 -14 14 0 7
1 13 2 13 2 0 8 -6 14 -13z m-63 -19 c19 -23 19 -23 -2 -5 -11 9 -24 14 -29
10 -4 -5 -5 -2 -1 5 9 16 10 16 32 -10z m-3042 -37 c-2 -3 -12 3 -22 13 -16
17 -16 18 5 5 12 -7 20 -15 17 -18z m3001 -25 c0 -19 -3 -37 -6 -40 -4 -5 -4
62 0 72 4 10 7 -4 6 -32z m-38 6 c-17 -18 -51 -27 -41 -10 3 5 9 6 14 3 4 -3
13 2 20 10 7 8 15 15 18 15 3 0 -2 -8 -11 -18z m-2865 -7 c2 3 5 -2 5 -10 0
-19 0 -19 -23 7 -12 14 -13 18 -3 10 9 -6 18 -10 21 -7z m3394 -7 c3 -4 -1 -5
-10 -4 -8 1 -18 5 -22 8 -3 4 1 5 10 4 8 -1 18 -5 22 -8z m-47 -11 c8 -10 7
-14 -2 -14 -8 0 -14 6 -14 14 0 7 1 13 2 13 2 0 8 -6 14 -13z m-3368 -14 c13
-16 12 -17 -3 -4 -10 7 -18 15 -18 17 0 8 8 3 21 -13z m2865 -8 c-1 -8 -5 -17
-8 -21 -5 -4 -4 16 1 34 3 9 9 -1 7 -13z m-2742 -23 c3 -5 -1 -9 -9 -9 -8 0
-12 4 -9 9 3 4 7 8 9 8 2 0 6 -4 9 -8z m2651 -2 c-3 -5 -12 -10 -18 -10 -7 0
-6 4 3 10 19 12 23 12 15 0z m45 5 c0 -1 -10 -10 -22 -21 -14 -12 -18 -13 -10
-3 6 9 10 18 7 21 -3 2 2 5 10 5 8 0 15 -1 15 -2z m-2730 -9 c0 -2 -6 -9 -14
-15 -11 -9 -16 -9 -22 0 -4 7 -3 9 4 5 6 -3 13 -2 17 4 6 10 15 14 15 6z
m2630 -11 c0 -2 -6 -8 -13 -14 -10 -8 -14 -7 -14 2 0 8 6 14 14 14 7 0 13 -1
13 -2z m120 1 c0 -2 -8 -10 -17 -17 -16 -13 -17 -12 -4 4 13 16 21 21 21 13z
m450 0 c0 -2 -7 -7 -16 -10 -8 -3 -12 -2 -9 4 6 10 25 14 25 6z m-3680 -10 c0
-2 -8 -10 -17 -17 -16 -13 -17 -12 -4 4 13 16 21 21 21 13z m3130 -10 c0 -2
-8 -10 -17 -17 -16 -13 -17 -12 -4 4 13 16 21 21 21 13z m528 -31 c-3 -3 -9 2
-12 12 -6 14 -5 15 5 6 7 -7 10 -15 7 -18z m-681 0 c0 -8 -4 -12 -9 -9 -5 3
-6 10 -3 15 9 13 12 11 12 -6z m58 -13 c-3 -3 3 -15 12 -26 18 -21 18 -21 -5
-2 -12 11 -20 21 -17 24 3 3 -1 12 -8 21 -11 14 -10 14 6 2 9 -8 15 -16 12
-19z m59 12 c3 -8 2 -12 -4 -9 -6 3 -10 10 -10 16 0 14 7 11 14 -7z m59 1 c4
-8 3 -16 -1 -19 -4 -3 -9 4 -9 15 -2 23 3 25 10 4z m487 1 c0 -2 -8 -10 -17
-17 -16 -13 -17 -12 -4 4 13 16 21 21 21 13z m-569 -23 c13 -16 12 -17 -3 -4
-17 13 -22 21 -14 21 2 0 10 -8 17 -17z m-2414 -20 c0 -10 -4 -10 -16 -1 -9 7
-18 13 -20 15 -2 1 5 1 16 0 11 0 20 -7 20 -14z m2289 -11 c-17 -16 -18 -16
-5 5 7 12 15 20 18 17 3 -2 -3 -12 -13 -22z m-2830 -14 c5 4 6 3 2 -2 -4 -5
-3 -15 3 -23 21 -25 3 -13 -22 14 -13 15 -17 22 -8 15 9 -6 20 -8 25 -4z m582
-13 c-3 -3 -9 2 -12 12 -6 14 -5 15 5 6 7 -7 10 -15 7 -18z m2177 -3 c-1 -9 5
-26 13 -37 16 -19 16 -19 -3 -3 -18 17 -31 73 -14 63 4 -3 6 -13 4 -23z m95
13 c-7 -8 -17 -15 -23 -15 -6 0 -2 7 9 15 25 19 30 19 14 0z m-129 -22 c13
-16 12 -17 -3 -4 -10 7 -18 15 -18 17 0 8 8 3 21 -13z m-2081 -7 c-7 -7 -13
-7 -20 0 -6 6 -3 10 10 10 13 0 16 -4 10 -10z m2166 2 c3 -4 -1 -5 -10 -4 -8
1 -18 5 -22 8 -3 4 1 5 10 4 8 -1 18 -5 22 -8z m74 8 c0 -2 -7 -7 -16 -10 -8
-3 -12 -2 -9 4 6 10 25 14 25 6z m-2203 -19 c0 -8 -6 -14 -14 -14 -9 0 -10 4
-2 14 6 7 12 13 14 13 1 0 2 -6 2 -13z m2024 -4 c13 -16 12 -17 -3 -4 -10 7
-18 15 -18 17 0 8 8 3 21 -13z m-28 -11 c15 -16 15 -19 2 -19 -8 0 -13 3 -10
5 3 3 0 11 -6 19 -17 20 -5 16 14 -5z m683 2 c-1 -8 -6 -17 -12 -21 -5 -4 -6
-4 -2 1 4 5 3 14 -2 21 -7 8 -5 12 4 12 8 0 13 -6 12 -13z m-2636 2 c0 -2 -8
-10 -17 -17 -16 -13 -17 -12 -4 4 13 16 21 21 21 13z m2599 -9 c8 -10 7 -14
-2 -14 -8 0 -14 6 -14 14 0 7 1 13 2 13 2 0 8 -6 14 -13z m-2586 -22 c-3 -9
-8 -14 -10 -11 -3 3 -2 9 2 15 9 16 15 13 8 -4z m42 -14 c3 -5 2 -12 -3 -15
-5 -3 -9 1 -9 9 0 17 3 19 12 6z m1742 -6 c0 -8 -10 -23 -21 -32 -21 -18 -21
-18 -2 5 11 12 16 22 12 22 -4 0 -4 5 -1 10 9 14 12 13 12 -5z m-32 -5 c-3 -5
-12 -10 -18 -10 -7 0 -6 4 3 10 19 12 23 12 15 0z m75 6 c0 -2 -7 -7 -16 -10
-8 -3 -12 -2 -9 4 6 10 25 14 25 6z m35 -4 c-3 -3 0 -11 6 -19 17 -20 5 -16
-14 5 -15 16 -15 19 -2 19 8 0 13 -3 10 -5z m165 -6 c-7 -7 -13 -7 -20 0 -6 6
-3 10 10 10 13 0 16 -4 10 -10z m-63 -11 c0 -8 -4 -12 -9 -9 -5 3 -6 10 -3 15
9 13 12 11 12 -6z m527 -4 c14 -15 15 -21 4 -27 -7 -4 -10 -3 -5 1 4 5 0 17
-10 27 -9 10 -14 18 -11 18 3 0 13 -9 22 -19z m-793 -8 c12 -16 12 -17 -2 -6
-9 7 -20 9 -24 5 -5 -4 -5 -1 -1 6 9 16 11 15 27 -5z m140 0 c13 -16 12 -17
-3 -4 -10 7 -18 15 -18 17 0 8 8 3 21 -13z m623 8 c3 -5 -2 -15 -12 -22 -15
-12 -16 -12 -5 2 7 9 10 19 6 22 -3 4 -4 7 0 7 3 0 8 -4 11 -9z m-817 -36 c0
-8 -3 -13 -5 -10 -3 3 -15 -3 -26 -12 -15 -14 -18 -14 -8 -2 6 9 8 20 4 24 -4
5 -2 5 5 1 6 -3 14 -2 18 4 9 14 12 13 12 -5z m59 3 c5 4 6 3 2 -2 -4 -5 -2
-16 4 -25 10 -12 7 -12 -8 2 -11 9 -23 15 -26 12 -2 -3 -5 2 -5 10 0 10 4 12
12 5 7 -5 16 -6 21 -2z m78 -14 c3 -8 2 -12 -4 -9 -6 3 -10 10 -10 16 0 14 7
11 14 -7z m-302 -29 c3 3 13 -5 24 -17 19 -23 19 -23 -2 -5 -11 9 -23 15 -26
12 -3 -3 -11 3 -19 12 -12 16 -12 17 2 6 9 -7 18 -11 21 -8z m65 -36 c2 -23
-7 -20 -11 4 -1 8 -8 23 -16 33 -14 18 -14 18 6 2 11 -9 20 -27 21 -39z m100
38 c0 -7 -9 -14 -20 -14 -19 -2 -19 -2 -1 12 11 8 19 15 20 15 0 0 1 -6 1 -13z
m44 -4 c13 -16 12 -17 -3 -4 -10 7 -18 15 -18 17 0 8 8 3 21 -13z m650 -10
c12 -16 12 -17 -2 -6 -9 7 -20 9 -24 5 -5 -4 -5 -1 -1 6 9 16 11 15 27 -5z
m54 7 c3 -6 -1 -7 -9 -4 -18 7 -21 14 -7 14 6 0 13 -4 16 -10z m-1068 -17 c-4
-3 -1 -13 6 -22 11 -14 10 -14 -5 -2 -16 12 -16 31 -1 31 4 0 3 -3 0 -7z
m-722 -15 c5 4 5 1 1 -6 -6 -10 -11 -10 -22 -1 -8 6 -14 14 -14 16 0 3 6 0 13
-6 8 -6 18 -7 22 -3z m886 -5 c13 -16 12 -17 -3 -4 -10 7 -18 15 -18 17 0 8 8
3 21 -13z m-61 -5 c0 -6 -3 -8 -7 -5 -3 4 -13 1 -22 -6 -14 -11 -14 -10 -2 6
15 20 31 22 31 5z m-440 -2 c0 -2 -8 -10 -17 -17 -16 -13 -17 -12 -4 4 13 16
21 21 21 13z m120 0 c0 -2 -8 -10 -17 -17 -16 -13 -17 -12 -4 4 13 16 21 21
21 13z m81 -13 c13 -16 12 -17 -3 -4 -10 7 -18 15 -18 17 0 8 8 3 21 -13z
m120 0 c13 -16 12 -17 -3 -4 -17 13 -22 21 -14 21 2 0 10 -8 17 -17z m-482
-27 c-3 -3 -11 5 -18 17 -13 21 -12 21 5 5 10 -10 16 -20 13 -22z m526 24 c-3
-5 -12 -10 -18 -10 -7 0 -6 4 3 10 19 12 23 12 15 0z m-348 -13 c0 -8 -6 -14
-14 -14 -9 0 -10 4 -2 14 6 7 12 13 14 13 1 0 2 -6 2 -13z m63 10 c0 -2 -8
-11 -18 -20 -15 -14 -19 -15 -19 -2 0 8 4 12 8 9 4 -2 10 0 14 6 6 10 15 14
15 7z m57 -10 c0 -7 -9 -14 -20 -14 -19 -2 -19 -2 -1 12 11 8 19 15 20 15 0 0
1 -6 1 -13z m44 -4 c13 -16 12 -17 -3 -4 -10 7 -18 15 -18 17 0 8 8 3 21 -13z
m71 2 c2 3 5 -2 5 -10 0 -19 0 -19 -23 7 -12 14 -13 18 -3 10 9 -6 18 -10 21
-7z m47 2 c8 -10 7 -14 -2 -14 -8 0 -14 6 -14 14 0 7 1 13 2 13 2 0 8 -6 14
-13z m891 -2 c0 -2 -6 -8 -13 -14 -10 -8 -14 -7 -14 2 0 8 6 14 14 14 7 0 13
-1 13 -2z m50 1 c0 -3 -4 -8 -10 -11 -5 -3 -10 -1 -10 4 0 6 5 11 10 11 6 0
10 -2 10 -4z m-1035 -26 c-3 -5 -12 -10 -18 -10 -7 0 -6 4 3 10 19 12 23 12
15 0z m845 -35 c0 -2 -6 -8 -13 -14 -10 -8 -14 -7 -14 2 0 8 6 14 14 14 7 0
13 -1 13 -2z m-153 -70 c0 -8 -4 -12 -9 -9 -4 3 -8 9 -8 15 0 5 4 9 8 9 5 0 9
-7 9 -15z m-53 -13 c2 -4 -4 -8 -14 -8 -10 0 -16 4 -14 8 3 4 9 8 14 8 5 0 11
-4 14 -8z"/>
<path d="M5942 3918 c0 -13 -5 -31 -18 -75 -4 -14 -2 -23 5 -23 6 0 10 3 9 8
-1 4 4 25 10 47 7 22 12 43 12 48 0 12 -17 8 -18 -5z"/>
<path d="M5905 3778 c-4 -18 -10 -37 -14 -43 -4 -5 -13 -28 -20 -50 -11 -32
-72 -170 -88 -197 -2 -5 0 -8 4 -8 10 0 76 139 109 228 13 34 20 62 16 62 -3
0 -1 5 6 12 14 14 16 28 3 28 -5 0 -13 -15 -16 -32z"/>
<path d="M5746 3420 c-14 -27 -23 -50 -18 -50 4 0 19 23 34 50 15 28 23 50 19
50 -5 0 -21 -22 -35 -50z"/>
<path d="M5701 3347 c-6 -8 -8 -17 -4 -20 3 -4 2 -7 -4 -7 -6 0 -16 -13 -23
-30 -7 -16 -16 -30 -21 -30 -5 0 -9 -6 -9 -14 0 -8 -5 -16 -11 -18 -7 -2 -10
-10 -8 -17 4 -11 82 98 96 135 7 18 -1 18 -16 1z"/>
<path d="M1804 5725 c-10 -8 -14 -15 -8 -15 6 0 17 7 24 15 16 19 9 19 -16 0z"/>
<path d="M1115 5380 c-8 -13 -1 -24 14 -19 6 3 7 10 2 18 -6 10 -10 10 -16 1z"/>
</g>
</svg>
