<svg id="Layer_1" data-name="Layer 1" xmlns="http://www.w3.org/2000/svg" viewBox="0 0 125.64 24.9"><defs><style>.cls-1{fill:#231f20;}</style></defs><title>default</title><path class="cls-1" d="M1.74,3.92a23.08,23.08,0,0,1,3.83-.3A6.33,6.33,0,0,1,9.89,4.9a4.17,4.17,0,0,1,1.36,3.23,4.54,4.54,0,0,1-1.2,3.3,6.39,6.39,0,0,1-4.71,1.7A7.15,7.15,0,0,1,3.73,13v6.18h-2Zm2,7.44a6.48,6.48,0,0,0,1.65.16c2.41,0,3.87-1.16,3.87-3.3s-1.44-3-3.64-3a8.53,8.53,0,0,0-1.88.16Z"/><path class="cls-1" d="M22.79,16.15c0,1.14,0,2.15.09,3H21.1L21,17.36h0a4.17,4.17,0,0,1-3.67,2.06c-1.74,0-3.82-1-3.82-4.85V8.09h2v6.14c0,2.1.64,3.52,2.47,3.52a2.9,2.9,0,0,0,2.66-1.83,2.82,2.82,0,0,0,.18-1V8.09h2Z"/><path class="cls-1" d="M28.56,4.9V8.09h2.89V9.62H28.56v6c0,1.37.39,2.15,1.51,2.15a5,5,0,0,0,1.17-.13l.09,1.51a4.92,4.92,0,0,1-1.78.27,2.8,2.8,0,0,1-2.18-.85,4.1,4.1,0,0,1-.78-2.88V9.62H24.88V8.09h1.71V5.43Z"/><path class="cls-1" d="M33.79,3.74h2V17.5h6.59v1.67H33.79Z"/><path class="cls-1" d="M54.24,13.54c0,4.1-2.84,5.88-5.52,5.88-3,0-5.31-2.19-5.31-5.7,0-3.71,2.42-5.88,5.49-5.88S54.24,10.15,54.24,13.54Zm-8.8.11c0,2.43,1.4,4.26,3.37,4.26s3.37-1.81,3.37-4.3c0-1.88-.94-4.26-3.32-4.26S45.44,11.55,45.44,13.65Z"/><path class="cls-1" d="M66.33,8.09c0,.8-.09,1.69-.09,3v6.44c0,2.54-.5,4.1-1.58,5.06a5.87,5.87,0,0,1-4,1.33A7.13,7.13,0,0,1,56.94,23l.51-1.53a6.23,6.23,0,0,0,3.25.87c2.06,0,3.57-1.08,3.57-3.87V17.27h0a4,4,0,0,1-3.53,1.86C58,19.13,56,16.79,56,13.72c0-3.75,2.45-5.88,5-5.88a3.67,3.67,0,0,1,3.46,1.92h0l.09-1.67Zm-2.08,4.37a2.61,2.61,0,0,0-.12-.91,2.89,2.89,0,0,0-2.81-2.13C59.39,9.42,58,11,58,13.61c0,2.17,1.1,4,3.27,4a3,3,0,0,0,2.8-2.06,3.61,3.61,0,0,0,.16-1.07Z"/><path class="cls-1" d="M79.62,13.54c0,4.1-2.84,5.88-5.52,5.88-3,0-5.31-2.19-5.31-5.7,0-3.71,2.42-5.88,5.49-5.88S79.62,10.15,79.62,13.54Zm-8.8.11c0,2.43,1.4,4.26,3.37,4.26s3.37-1.81,3.37-4.3c0-1.88-.94-4.26-3.32-4.26S70.82,11.55,70.82,13.65Z"/><path class="cls-1" d="M84.22,3.74v6.45h7.47V3.74h2V19.17h-2V11.94H84.22v7.23h-2V3.74Z"/><path class="cls-1" d="M98.22,14a3.55,3.55,0,0,0,3.8,3.84,7.33,7.33,0,0,0,3.07-.57l.34,1.44a8.79,8.79,0,0,1-3.68.69c-3.42,0-5.46-2.24-5.46-5.59s2-6,5.2-6c3.62,0,4.58,3.18,4.58,5.22A8.82,8.82,0,0,1,106,14Zm5.91-1.45c0-1.28-.53-3.27-2.8-3.27-2,0-2.93,1.88-3.09,3.27Z"/><path class="cls-1" d="M108.57,11.55c0-1.31,0-2.43-.09-3.46h1.76l.07,2.17h.1a3.3,3.3,0,0,1,3.06-2.42,2.58,2.58,0,0,1,.58.06V9.81a2.87,2.87,0,0,0-.69-.07,2.82,2.82,0,0,0-2.7,2.59,5.15,5.15,0,0,0-.09.93v5.91h-2Z"/><path class="cls-1" d="M117,14a3.54,3.54,0,0,0,3.8,3.84,7.33,7.33,0,0,0,3.07-.57l.34,1.44a8.8,8.8,0,0,1-3.69.69c-3.41,0-5.45-2.24-5.45-5.59s2-6,5.2-6c3.62,0,4.58,3.18,4.58,5.22a6.46,6.46,0,0,1-.07.94Zm5.91-1.45c0-1.28-.53-3.27-2.8-3.27-2,0-2.93,1.88-3.09,3.27Z"/></svg>