<svg id="Layer_3" data-name="Layer 3" xmlns="http://www.w3.org/2000/svg" xmlns:xlink="http://www.w3.org/1999/xlink" viewBox="0 0 1367 318"><defs><style>.cls-1{fill:#ffcd05;}.cls-2{fill:#4870b6;}.cls-3{fill:#ed1c24;}.cls-4{fill:url(#linear-gradient);}.cls-5{fill:#231f20;}</style><linearGradient id="linear-gradient" x1="113.22" y1="227.12" x2="113.22" y2="128.26" gradientTransform="matrix(1, 0, 0, -1, 0, 318.57)" gradientUnits="userSpaceOnUse"><stop offset="0" stop-color="#ed2224"/><stop offset="1" stop-color="#f6eb16"/></linearGradient></defs><title>Web - Logo</title><path class="cls-1" d="M159,0A159,159,0,1,0,318,159,159,159,0,0,0,159,0Zm0,307.37A148.37,148.37,0,1,1,307.37,159,148.35,148.35,0,0,1,159,307.37Z"/><path class="cls-2" d="M248,114.47c-.38,0-.8-.11-1.18-.13a2.51,2.51,0,0,1-2.43-1.55,3.4,3.4,0,0,1,.6-3.7,19.6,19.6,0,0,1,4.31-3c1.46-1,3-1.91,4.31-3a3.25,3.25,0,0,0,.94-4.56,3.09,3.09,0,0,0-4.45-1.27c-1.71.83-3.34,1.85-5,2.76a5.3,5.3,0,0,1-7.65-4.39c-.14-2.09,1.19-3.23,2.84-4a79.36,79.36,0,0,0,7.54-4.19,18.22,18.22,0,0,0,7.95-8.81,1.75,1.75,0,0,1,1.79-1.27,38.31,38.31,0,0,1,8.34.64,4.39,4.39,0,0,1,1.88.85,2.54,2.54,0,0,1,.38,4A6.62,6.62,0,0,1,264.89,85a15.72,15.72,0,0,0-4.72,2.32A3.28,3.28,0,0,0,258.79,90a6,6,0,0,0,5.6,5.86,2,2,0,0,0,1.41-.5,17.46,17.46,0,0,0,4-5c.53-1.14,1.13-1.36,2.18-.64a20.27,20.27,0,0,1,6,6.38,3.83,3.83,0,0,1-1.46,5.79,183.12,183.12,0,0,1-17.94,9.25,41.32,41.32,0,0,1-7.82,3A15.5,15.5,0,0,1,248,114.47Z"/><path class="cls-2" d="M183,276.54c0,5.16-1.05,11-2.16,16.75-.11.56-.16,1.08-.3,1.63a1.34,1.34,0,0,1-2.29.83,17,17,0,0,1-3.34-3.64c-3.73-4.61-7.4-9.28-11.13-13.92-.47-.57-1-1-1.54-1.57-1-1-1.63-.83-2.13.55a26.09,26.09,0,0,0-1,5.06c-.47,3.22-.88,6.43-1.35,9.66-.28,1.87-.58,2-2.49,1.79a9.65,9.65,0,0,1-4.36-1.71,1.77,1.77,0,0,1-.83-2.15c1.72-5.36,1.83-10.88,1.83-16.43a47.65,47.65,0,0,0-.45-5.35,3.17,3.17,0,0,0-1-2,1.15,1.15,0,0,1,.08-1.93,29.24,29.24,0,0,1,6.38-4c.8-.39,1.32.05,1.82.55,2,2,3.78,4.11,5.61,6.21,2.12,2.49,4.14,5.05,6.48,7.34a4.78,4.78,0,0,0,.39.39c.52.33,1.05.86,1.68.55s.61-1,.64-1.65a82.44,82.44,0,0,0,.11-9,1.17,1.17,0,0,1,.8-1.35c1.65-.75,3.12-1.91,5-2.24,1.43-.27,1.65-.16,2,1.22A59,59,0,0,1,183,276.54Z"/><path class="cls-2" d="M195.6,35.8c.25,2.13-.83,4-2.4,5.63a3.33,3.33,0,0,0-1,3.76,30,30,0,0,1,.88,3.72A8.81,8.81,0,0,1,185.2,59.6a17.61,17.61,0,0,1-10.13-2.13,17.48,17.48,0,0,0-6-1.65,6.11,6.11,0,0,1-2.82-.86,2.07,2.07,0,0,1-.83-2.51c.94-2.51,2.4-4.78,3.12-7.37a53.65,53.65,0,0,0,1.8-11.79c.13-2.1.05-4.17.38-6.27.66-3.89,5.61-6.32,9-4.16a25,25,0,0,0,7.26,2.81c2.84.77,5.43,1.91,7.23,4.42C195.19,31.52,195.58,32.93,195.6,35.8ZM181.14,51.7c3.26,0,3.84-.63,3.7-3.09a5.42,5.42,0,0,0-2-3.56c-2.54-2.51-5.36-2.13-7.21.94a2.42,2.42,0,0,0,.5,3.5A8.63,8.63,0,0,0,181.14,51.7Zm1.35-20.87a2.42,2.42,0,0,0-2,.53,4.13,4.13,0,0,0-1.19,4.11,1.86,1.86,0,0,0,1.47,1.46,14.76,14.76,0,0,0,6.1.2,2,2,0,0,0,1.3-.91,2.7,2.7,0,0,0-.92-4.06A9.76,9.76,0,0,0,182.49,30.83Z"/><path class="cls-2" d="M64.1,255.89a8,8,0,0,1-2.29-.22,1.38,1.38,0,0,1-1.19-1.77A16.71,16.71,0,0,1,62.11,250c1.27-2.7,2.65-5.41,3.89-8.11.39-.83,1.08-2,.42-2.68s-1.91-.14-2.76.25c-3.21,1.4-6.38,2.89-9.56,4.36-.85.38-1.73.74-2.59,1.16a2.48,2.48,0,0,1-2.93-.5,11.48,11.48,0,0,1-3-5c-.27-.72.36-.69.69-.83a93.41,93.41,0,0,0,10-4.47,50.88,50.88,0,0,0,11.2-8.29,61.18,61.18,0,0,0,5.72-6c.44-.57.74-.49,1.16,0A68.87,68.87,0,0,1,79.67,227a1.24,1.24,0,0,1-.09,1.4,39.67,39.67,0,0,0-4.19,11.46,12.57,12.57,0,0,0-.36,2.93c0,.33,0,.71.33.85s.55-.11.77-.3c1.47-1.3,2.93-2.57,4.34-3.92a35.15,35.15,0,0,1,4.88-4.25c1-.67,2-1.3,3.37-.83a2.87,2.87,0,0,1,1.49,4.5,44.85,44.85,0,0,1-5,6c-2.16,2.35-4.45,4.61-6.63,6.93-1.68,1.77-3.89,2.43-6.13,3A40.1,40.1,0,0,1,64.1,255.89Z"/><path class="cls-2" d="M231.27,247.22a10.1,10.1,0,0,0,4.41-.83c6.38-2.42,14.08,3.15,12.51,11.29a14.56,14.56,0,0,1-8.48,11.05,13.11,13.11,0,0,1-10.68.38c-3.45-1.43-4.83-5.79-2.73-8.61a6.22,6.22,0,0,1,4.91-2.51,28.85,28.85,0,0,0,5.58-.55c1.38-.36,1.85-1,1.74-2.13s-.58-1.57-2-1.74a75.56,75.56,0,0,0-8.25-.33,23.7,23.7,0,0,1-5-.41c-3.87-.8-6.24-3.18-6.79-7.07-.58-4.11.44-7.76,3.83-10.41,1.66-1.29,3.73-1.65,5.72-2.15a37.65,37.65,0,0,1,9.3-1.46c3.62,0,6.07,1.79,5.13,6.1-.55,2.59-1.46,3.42-4.22,3.45q-3.65,0-7.29.25a3.71,3.71,0,0,0-2.78,1.05,1.79,1.79,0,0,0-.09,2.65C227.29,246.92,229.11,247.28,231.27,247.22Z"/><path class="cls-2" d="M70.89,105.56c-2,0-3.81-.66-5.74-.86-1.25-.14-2.46-.36-3.73-.38-.66,0-.91.24-.83.93a3,3,0,0,0,1.27,2.21,30,30,0,0,0,5.58,3.07,1.4,1.4,0,0,1,1,1.57c-.19,2.13.22,4.25,0,6.38a2,2,0,0,1-3,1.79c-2.82-1.13-5.19-3-7.73-4.58a139.43,139.43,0,0,0-19-10c-.69-.3-.77-.69-.83-1.35-.44-6.6,2.87-11.4,7.4-15.65a10.77,10.77,0,0,1,5.46-2.9c4-.75,6.91.8,9.25,3.89a22.22,22.22,0,0,1,3.45,7.29,1.18,1.18,0,0,0,1.19,1,30.14,30.14,0,0,0,7.23-.08c1.24-.22,2.15-1.22,3.42-1.41a8,8,0,0,1,1.19-.14c2,0,2.57.86,2,2.73a16.09,16.09,0,0,1-2.49,4.5C74.7,105.34,72.85,105.56,70.89,105.56ZM55.07,99.07c0-.22,0-.69,0-1.19-.17-2.89-1.9-4-4.64-3.11A9.33,9.33,0,0,0,48,96.12a3.2,3.2,0,0,0-.53,4.88,8.61,8.61,0,0,0,5.83,2.38,1.4,1.4,0,0,0,1.57-1.33A13.21,13.21,0,0,0,55.07,99.07Z"/><path class="cls-2" d="M55.46,157.62c1.13,0,2.29-.06,3.42,0,3.37.22,5.52,4.39,3.53,7.09a11.64,11.64,0,0,0-2,6.57A13.57,13.57,0,0,1,52.61,183c-4,2-8.25,2-12.56,1.71a16.91,16.91,0,0,1-9-3,18,18,0,0,1-7.84-11.81c-.42-2.3-.47-4.67,1.54-6.41a11.21,11.21,0,0,1,1.74-1.16,2.92,2.92,0,0,0,1.58-2.59,4,4,0,0,1,2.12-3.26,1,1,0,0,1,.42-.17c1.65-.22,4.63,1.36,5.52,2.9a2.68,2.68,0,0,1-.31,3.54c-.66.8-1.38,1.51-2.07,2.26a4.93,4.93,0,0,0,0,7.26,10.92,10.92,0,0,0,7.39,3.42,20.16,20.16,0,0,0,7.54-.47,8.21,8.21,0,0,0,4-2.48,2.64,2.64,0,0,0-.47-4.25A19.47,19.47,0,0,0,46.84,166c-2.48-.88-4.22-2.4-4.69-5.13-.22-1.3.06-2.35,1.57-2.57s3.21-.38,4.84-.47c2.31-.14,4.63-.22,6.92-.3A.26.26,0,0,0,55.46,157.62Z"/><path class="cls-2" d="M113.43,273.92c0-3,1.57-5,3.67-6.82,3.45-2.9,7-5.74,10.62-8.34a12.28,12.28,0,0,1,3.34-1.85c2.3-.72,4.12.33,5.47,2a46.35,46.35,0,0,1,8.28,14.6,10.18,10.18,0,0,1-.44,8.51,13.61,13.61,0,0,1-3.89,4.14c-3.65,2.81-7.21,5.77-11.35,7.84a5.06,5.06,0,0,1-4.52.36,6,6,0,0,1-2.38-2.21,75.36,75.36,0,0,1-8.14-15.1A8.48,8.48,0,0,1,113.43,273.92Zm15.51,10.38a2.86,2.86,0,0,0,1.1-.17,17.72,17.72,0,0,0,6.66-4.94,3.32,3.32,0,0,0,.63-2.82,16.09,16.09,0,0,0-3.81-7.95,2.06,2.06,0,0,0-2.92-.66,21.67,21.67,0,0,0-6.82,5,3.52,3.52,0,0,0-.78,3.7,18.52,18.52,0,0,0,4.09,7.09A2.41,2.41,0,0,0,128.94,284.3Z"/><path class="cls-2" d="M263.1,196.38c3.31,0,6.62-.09,9.93,0a2.81,2.81,0,0,0,2.76-1.51,6.38,6.38,0,0,1,1.85-2c.78-.5,1.55-1.08,2.51-.61a3,3,0,0,1,1.83,2.68,4,4,0,0,0,1.65,3.18c2,1.73,2,3.69,0,5.49a9.53,9.53,0,0,1-3.31,1.88c-4.91,1.65-7.7,5.21-8.89,10.13a5.26,5.26,0,0,0,.86,4.27c.66,1,1.29,2.05,1.9,3.1a3.61,3.61,0,0,1-.19,4.39,4.28,4.28,0,0,1-4.28,1.65,1.75,1.75,0,0,1-1.16-.61,1.9,1.9,0,0,0-2.87-.35,2.78,2.78,0,0,1-2.93.05c-1.76-.94-2.2-2.07-1.82-4.69.14-1,.25-2,.39-3a2.6,2.6,0,0,0-.61-2.12c-3-3.7-5.93-7.46-8.89-11.18a30.21,30.21,0,0,1-2.62-4,3.51,3.51,0,0,1,.19-3.73l.09-.08c1.85-2.93,1.85-2.93,5.24-2.93C257.49,196.38,260.31,196.38,263.1,196.38Zm-2,7.37a8,8,0,0,0-1.63.16c-.75.17-.94.58-.64,1.19a34.55,34.55,0,0,0,4.81,7c.69.8,1.49.55,2.07-.17a17.44,17.44,0,0,0,3.31-6c.25-.82.08-1.21-.83-1.35C265.86,204.08,263.48,204,261.11,203.75Z"/><path class="cls-2" d="M207,252.74c0,.75,0,1.22,0,1.69-.25,2.92-.91,3.5-3.87,3.67a16.32,16.32,0,0,1-3.5-.06c-3.15-.52-4.31,2.54-3.65,4.67.83,2.62,2,3.61,4.83,2.54a18.09,18.09,0,0,1,6.66-1.69c1.82,0,2.67,1.14,2.23,2.88a5.09,5.09,0,0,1-1.6,2.67c-1.05.94-2,1.91-3,2.9-1.74,1.8-1.74,3.29-.11,5.22a4.51,4.51,0,0,0,4.75,1.77c1.27-.31,1.79-1.36,2.4-2.27,1.19-1.79,2.13-3.72,3.29-5.55s3.39-1.49,4.94-.77,2,2.15,1.29,3.92a30.92,30.92,0,0,1-6.7,9.8c-2.71,2.84-2.76,2.87-6.71,2.87-3.34,0-6.76-.11-9.55-2.32A26.62,26.62,0,0,1,188.9,259a12.52,12.52,0,0,1,2.65-5.39c1.38-1.6,3.36-2,5.32-2.31,2.93-.47,5.88-.72,8.81-1.19.83-.14,1,.11,1.21.8A11.27,11.27,0,0,1,207,252.74Z"/><path class="cls-2" d="M129.27,25.45c2.24-.11,3.56,1.11,4.55,2.82a115.12,115.12,0,0,0,9,13.33,4.64,4.64,0,0,0,4,2,12.42,12.42,0,0,1,2.29.19,2.86,2.86,0,0,1,1.77,4.28c-.11.16-.33.39-.5.39-1.68.13-1.76,1.38-1.82,2.62a7,7,0,0,1-.36,2.26,3.1,3.1,0,0,1-3.86,2A12.23,12.23,0,0,1,140.34,53a4.78,4.78,0,0,0-2.54-.91,41.34,41.34,0,0,0-8.47.08,2.94,2.94,0,0,0-2.07,1.08,11.79,11.79,0,0,0-2.3,4.08,7.19,7.19,0,0,1-3.14,4.06,1.55,1.55,0,0,1-1.55.17,6.46,6.46,0,0,1-2.9-2.43A39.63,39.63,0,0,1,114,53a2.39,2.39,0,0,1,1.15-3.53s.06-.06.09-.06c3.72-1,4.8-4,5.66-7.34a121.19,121.19,0,0,1,3.75-12.81,6.21,6.21,0,0,1,2.13-3.15A3.71,3.71,0,0,1,129.27,25.45Zm-.5,20.4a15.85,15.85,0,0,0,5.69-1.24c.69-.33,1-.66.47-1.41a45.27,45.27,0,0,0-4.8-6.16c-.83-.85-1-.8-1.52.34a26.83,26.83,0,0,0-1.71,6.7C126.7,45.77,126.87,45.91,128.77,45.85Z"/><path class="cls-2" d="M110.78,261.19c0,.19,0,.36.08.55a.37.37,0,0,0,.14.61c0,.17,0,.36.08.52-.14.28-.17.56.14.75,0,.19,0,.39.08.55a.37.37,0,0,0,.14.61,3.41,3.41,0,0,1,0,.55c-.13.53,0,1.11-.49,1.6-2.32,2.32-4.56,4.69-6.85,7a7.86,7.86,0,0,1-5.52,2.57c-3.64.17-7.26,0-10.9.11a2.29,2.29,0,0,1-1.83-.77c-1.6-1.57-3.06-3.26-4.8-4.67l0,0a1.17,1.17,0,0,0-.19-.2l0,0-.19-.19,0,0a1.69,1.69,0,0,0-.19-.19l0,0c-.11-.47-.5-.71-.77-1-.94-1-2-2-2.82-3.06-.41-.53-.47-.89,0-1.41,1-1.1,2-2.26,3-3.37,3.37-3.56,6.77-7.12,10.16-10.68.25-.28.55-.5.61-.88h0l.22-.22h0l.22-.23h0a2.28,2.28,0,0,1,.22-.22h0a2.3,2.3,0,0,0,1.19-1.35.57.57,0,0,0,.11-.11c.22.06.22-.08.22-.22l.08-.08a.7.7,0,0,0,.14-.17l.06-.05a1.17,1.17,0,0,1,.19-.2v0a2.94,2.94,0,0,0,1.16-1.38.85.85,0,0,0,.11-.14,1,1,0,0,0,.66-.83.31.31,0,0,0,.08-.11.89.89,0,0,0,.58-.8s.06-.06.06-.08a.77.77,0,0,0,.36-.86c.36-2.35,1.38-2.71,3.31-1.19.36.31.69.64,1,1l0,.05,0,0,.2.16,0,.06,0,0,.2.19,0,.06,0,0a.91.91,0,0,0,.2.19l0,.06,0,0,.17.17,0,.08.09,0,.16.17c0,.11,0,.14.08.08a.92.92,0,0,0,.14.14c0,.11,0,.14.08.08a.92.92,0,0,0,.14.14c0,.11,0,.14.09.08a.6.6,0,0,0,.13.14c0,.11,0,.14.09.08a.6.6,0,0,0,.13.14c-.08.14,0,.14.09.08a.47.47,0,0,0,.14.14c0,.22.08.33.3.31a.57.57,0,0,0,.11.11c-.06.19.05.22.22.22l.08.08a9,9,0,0,0,1.77,2.07c2,2.18,4.28,4.17,4.25,7.48a2.09,2.09,0,0,0,.08.55C110.09,257.55,110.17,259.42,110.78,261.19ZM91,268.42a31.69,31.69,0,0,0,5.16-.22,7.73,7.73,0,0,0,7.07-6.76,11.55,11.55,0,0,0-1.88-7.54c-.88-1.43-1.52-1.52-2.84-.47a80,80,0,0,0-6.6,6,78.64,78.64,0,0,0-5.66,5.88,1.45,1.45,0,0,0,.53,2.49,3.88,3.88,0,0,0,1.24.38C89.05,268.31,90,268.37,91,268.42Z"/><path class="cls-2" d="M211.37,73a12,12,0,0,1-8.64-3.56c-2.08-2.18-2.88-5-3.4-7.87-1.16-6.73.91-12.47,5.58-17.28,3.5-3.64,8.06-5.19,12.94-6.21a6.88,6.88,0,0,1,6.88,2.24,23.18,23.18,0,0,1,4.5,5.93c1.35,2.73.35,4.64-2.65,5.08s-5.69-.61-6.08-4.11c-.19-1.8-1.3-2.54-3.12-2.54a5.39,5.39,0,0,0-3.59,1.43,1.76,1.76,0,0,0-.27,2.71c1.07,1.43,2.68,2.26,4,3.42,1,.89,2,1.66,2.4,3.07.53,2.07-.22,3.14-2.37,3.25A19.39,19.39,0,0,1,213.3,58a35.25,35.25,0,0,0-3.78-.58,2.7,2.7,0,0,0-3.07,2.35,5.52,5.52,0,0,0,2.27,5.49,5.31,5.31,0,0,0,3.22.39c1.72-.09,3.43-.56,5.14-.17a4.6,4.6,0,0,1,3.2,2.62c.64,1.3,0,2.73-1.63,3.65C216.75,72.79,214.62,73,211.37,73Z"/><path class="cls-2" d="M269.75,116.68c3.28.33,6.73.11,10,1.3,3.48,1.3,6.46,3.23,8.36,6.54a9.87,9.87,0,0,1,1.11,6.27,16.07,16.07,0,0,1-2.43,7.53,3.53,3.53,0,0,1-3.4,1.83c-1.62-.25-2.54-1.66-2.67-3.54s.47-3.39.74-5.08a14.34,14.34,0,0,0,.22-2c.09-2.26-.77-3.25-3.06-3.56-2.54-.33-2.46-.33-2.68,2.24-.19,2.26-.08,4.55-.83,6.73-.69,2-2.54,2.52-4.05,1.08s-1.85-3.17-2.24-5a5.57,5.57,0,0,0-.94-2.65,4.2,4.2,0,0,0-5.55-.94,4.34,4.34,0,0,0-1.63,5.49,24.34,24.34,0,0,0,3,4.17c.22.3.44.58.63.88,1.6,2.32.8,4.75-1.9,5.8-.83.33-1.36-.19-1.88-.58a17.1,17.1,0,0,1-5.91-8.25c-1.43-4.28-.44-8.09,2.1-11.6a18,18,0,0,1,6.43-5.71C265.25,116.66,267.46,116.82,269.75,116.68Z"/><path class="cls-2" d="M81.6,91.26a12.06,12.06,0,0,1-9.17-3.18,26.42,26.42,0,0,1-9.08-13.8,18.56,18.56,0,0,1-.3-9.36,5.08,5.08,0,0,1,2.68-3.69A38.51,38.51,0,0,1,74.42,58c2.57-.61,4.39,1.87,3.62,4.72A4.06,4.06,0,0,1,73.9,66a18.12,18.12,0,0,0-2.07.2,3.41,3.41,0,0,0-3,2.65,4.33,4.33,0,0,0,1.9,4.58,3.35,3.35,0,0,0,2.87,0,21.14,21.14,0,0,0,4.78-3.28C79.2,69.45,80,69,81,69.76A3.31,3.31,0,0,1,82.23,73a13.51,13.51,0,0,1-2.12,3.42,15,15,0,0,0-1,1.55c-1.3,2.37-.72,4.47,1.52,5.69a4.17,4.17,0,0,0,6-1.77,25.6,25.6,0,0,0,1.74-5.08,6,6,0,0,1,2.54-3.73,2.44,2.44,0,0,1,3.69,1,7,7,0,0,1,.2,5.94,35.39,35.39,0,0,1-5,8.86,5.93,5.93,0,0,1-3.81,2A19.2,19.2,0,0,1,81.6,91.26Z"/><path class="cls-2" d="M62,134.46c-.3,4.61-1.65,9.16-5.8,12.45A9.86,9.86,0,0,1,51,148.76c-4,.5-7.72-.47-11.37-1.91a16.08,16.08,0,0,1-6-4.74,28.92,28.92,0,0,1-4.67-6.9,8.91,8.91,0,0,1,1.14-9.64,16.8,16.8,0,0,1,5.43-5c2.38-1.27,3.92-.31,4,2.34A6.24,6.24,0,0,1,37,128.41a15.53,15.53,0,0,0-2.24,2.13,2.34,2.34,0,0,0-.22,2.84,8.12,8.12,0,0,0,2.65,2.9,1.81,1.81,0,0,0,2.57-.27,26.86,26.86,0,0,0,3.23-4.7,5.69,5.69,0,0,1,2.59-2.45c1.5-.61,2.1-.17,2.27,1.4.22,2-.64,3.73-.91,5.61a3.65,3.65,0,0,0,2.73,4.41,6.29,6.29,0,0,0,2.15.39c2.76,0,4-1.21,3.81-4.25-.14-2.26-.3-4.55-.38-6.82a3.66,3.66,0,0,1,3-3.56c1.05-.17,1.63.58,2.07,1.35A16.55,16.55,0,0,1,62,134.46Z"/><path class="cls-2" d="M256.53,66.88c-.06.83-.09,1.66-.17,2.52a1.78,1.78,0,0,1-1.08,1.54,4,4,0,0,1-4.36-.16l-1.74-1.16c-2.26-1.49-4.06-1.49-6.1.25a52.7,52.7,0,0,0-9.49,10.62,5.42,5.42,0,0,0-.83,2.38,5.22,5.22,0,0,1-1.19,2.56c-1.63,2.08-3.67,2-6.24,0a13.5,13.5,0,0,1-3.92-5.38c-.74-1.77-.16-3.42,1.66-4,4.22-1.27,7-4.38,9.85-7.45A21.22,21.22,0,0,0,236,64.57c.94-1.66,1-3-.27-4.42-2-2.24-.67-6.46,1.13-7.7a1.82,1.82,0,0,1,2.21-.14c2.76,1.57,5.35,3.4,8,5.19s5.33,3.86,8,5.77a2.6,2.6,0,0,1,1.38,2.48C256.44,66.11,256.53,66.5,256.53,66.88Z"/><path class="cls-2" d="M257.66,164.52a61.36,61.36,0,0,1,.33-8.14,4.23,4.23,0,0,1,3.15-3.59,10.16,10.16,0,0,1,3-.47c4.92-.19,9.86-.28,14.77-.36,1.77,0,3.51-.25,5.27-.44a4.25,4.25,0,0,0,2.68-1.35c1.88-1.94,2.93-2,4.94-.17a8.63,8.63,0,0,1,2.9,4.53c.74,3.26-.8,5.27-4.14,5.44a21.59,21.59,0,0,1-3.51-.28c-4.19-.5-8.36-.06-12.53.19-2.37.14-4.77.36-7.15.36-2.18,0-2.84.91-2.12,3.37a11.27,11.27,0,0,0,2.48,3.84,6.39,6.39,0,0,1,.69,7,2,2,0,0,1-1.08,1,7.07,7.07,0,0,1-8.55-1.88c-1.11-1.35-1.11-3-1.16-4.58C257.6,167.61,257.66,166.07,257.66,164.52Z"/><path class="cls-2" d="M38.51,219.56c2.48.67,4.69-.74,6.84-2.15,3.26-2.1,6.52-4.17,9.58-6.57a9.5,9.5,0,0,0,3.26-4.31,10.45,10.45,0,0,1,2.29-3.86c.88-.91,1.44-.86,2.21.17A10.94,10.94,0,0,1,63.93,205c1.11,2.81,3.34,4.77,5.25,7,.44.5.88,1,1.29,1.49.64.83.39,1.41-.33,1.93a10.16,10.16,0,0,1-4.55,1.74,30.23,30.23,0,0,0-7.84,2.43c-3.12,1.41-6.21,2.9-9.22,4.53a5.63,5.63,0,0,0-3.09,4,12.41,12.41,0,0,1-1.08,3.12c-1.27,2.46-3.26,2.93-5.24,1a20.86,20.86,0,0,1-5.58-8.69c-.8-2.49.41-4,3-4Z"/><path class="cls-2" d="M243.25,214.48a4.58,4.58,0,0,1,3.26,2.52c.91,1.51,1.51,3.2,2.53,4.69a78.66,78.66,0,0,0,9,11.21,4.44,4.44,0,0,0,3.28,1.27,8.76,8.76,0,0,1,5.63,1.76,1.85,1.85,0,0,1,.69,2.4,32.67,32.67,0,0,1-3.86,6.24,17.92,17.92,0,0,1-3,3.59,1.22,1.22,0,0,1-1.65.08,4.49,4.49,0,0,1-1.94-2.73,14,14,0,0,0-3.64-5.91,120.21,120.21,0,0,0-10.9-10.26,5.51,5.51,0,0,0-3.65-1.25,9.58,9.58,0,0,1-3.45-.52,1.64,1.64,0,0,1-1.13-2.15,5.07,5.07,0,0,1,1.41-2.43,32,32,0,0,0,5-6.52A3.13,3.13,0,0,1,243.25,214.48Z"/><path class="cls-2" d="M112.16,63.6a9.21,9.21,0,0,1-3.4,7.18,3.08,3.08,0,0,1-2,.77,47.52,47.52,0,0,1-6.32.28,2.79,2.79,0,0,1-1.9-1,10.37,10.37,0,0,1-2.38-4,2.66,2.66,0,0,1,2.32-3.59,17.79,17.79,0,0,0,3.84-.85c1.27-.5,1.49-1.11.85-2.32a41,41,0,0,0-4.77-6.54,49.82,49.82,0,0,0-3.92-4.17,8.18,8.18,0,0,0-2.84-1.8,2.32,2.32,0,0,1-1.47-3,18.62,18.62,0,0,1,5-7.15c1-.91,2-.72,2.38.58,2,6.49,6.59,11.32,10.65,16.48,1.71,2.21,3.4,4.39,3.89,7.26C112.13,62.36,112.05,63,112.16,63.6Z"/><polygon class="cls-3" points="234.14 108.76 164.58 108.76 164.58 64.29 150.5 64.29 150.5 108.76 80.94 108.76 80.94 122.84 150.5 122.84 150.5 253.96 164.58 253.96 164.58 122.84 234.14 122.84 234.14 108.76"/><path class="cls-1" d="M80.94,190.3h153.2s-4.09,55.38-75.14,55.38S80.94,190.3,80.94,190.3Z"/><path class="cls-4" d="M97.53,190.28s4.61-11.05,18-18.78,21.53-12.5,21.53-23.38c0,0,2.57-8.91-12.78-18.21-12.09-7.29-31.55-38.46-31.55-38.46s-11.7,37,7.37,52.64c14.91,12.23-2.29,15.46-5,30C91.78,191.74,97.53,190.28,97.53,190.28Z"/><path class="cls-3" d="M373,117.12v-.29c0-29.67,23.11-54,54.72-54,18.78,0,30.11,5.06,41,14.31L454.25,94.61C446.2,87.9,439.05,84,427,84c-16.7,0-30,14.76-30,32.5v.3c0,19.08,13.12,33.09,31.61,33.09,8.35,0,15.8-2.08,21.62-6.26V128.75H427.12V108.92h45.32v45.33a67.75,67.75,0,0,1-44.58,16.55C395.36,170.8,373,148,373,117.12Z"/><path class="cls-3" d="M494.51,64.64H543c11.93,0,21.32,3.28,27.29,9.25a23.92,23.92,0,0,1,7.15,17.74v.3c0,11.78-6.26,18.34-13.71,22.51,12.07,4.62,19.53,11.63,19.53,25.64v.3c0,19.08-15.51,28.63-39.06,28.63H494.51ZM538,106.84c10.14,0,16.55-3.28,16.55-11v-.29c0-6.86-5.36-10.74-15.05-10.74H516.87v22.07Zm6.12,42c10.14,0,16.25-3.58,16.25-11.33v-.3c0-7-5.22-11.33-17-11.33H516.87v23Z"/><path class="cls-3" d="M603.2,64.64h23V169h-23Z"/><path class="cls-2" d="M692.36,117.12v-.29c0-29.67,23.1-54,54.71-54,18.79,0,30.12,5.06,41,14.31L773.61,94.61C765.56,87.9,758.4,84,746.33,84c-16.7,0-30,14.76-30,32.5v.3c0,19.08,13.12,33.09,31.61,33.09,8.34,0,15.8-2.08,21.61-6.26V128.75H746.47V108.92H791.8v45.33a67.79,67.79,0,0,1-44.58,16.55C714.72,170.8,692.36,148,692.36,117.12Z"/><path class="cls-2" d="M813.87,64.64h47.71c13.26,0,23.55,3.73,30.41,10.59,5.81,5.81,8.94,14,8.94,23.85v.3c0,16.85-9.09,27.43-22.36,32.35L904.07,169H877.23l-22.36-33.4h-18V169h-23Zm46.22,50.69c11.18,0,17.59-6,17.59-14.76v-.29c0-9.84-6.86-14.91-18-14.91H836.83v30Z"/><path class="cls-2" d="M917,117.12v-.29c0-29.67,23.41-54,55.61-54s55.31,24,55.31,53.67v.3c0,29.66-23.41,54-55.61,54S917,146.79,917,117.12Zm86.92,0v-.29c0-17.9-13.12-32.8-31.61-32.8S941,98.64,941,116.53v.3c0,17.89,13.12,32.79,31.61,32.79S1004,135,1004,117.12Z"/><path class="cls-2" d="M1043.77,117.12v-.29c0-29.67,23.11-54,54.71-54,18.79,0,30.12,5.06,41,14.31L1125,94.61C1117,87.9,1109.81,84,1097.74,84c-16.7,0-30,14.76-30,32.5v.3c0,19.08,13.12,33.09,31.61,33.09,8.35,0,15.8-2.08,21.62-6.26V128.75h-23.11V108.92h45.32v45.33a67.75,67.75,0,0,1-44.58,16.55C1066.13,170.8,1043.77,148,1043.77,117.12Z"/><path class="cls-2" d="M1160.66,117.12v-.29c0-29.67,23.4-54,55.61-54s55.31,24,55.31,53.67v.3c0,29.66-23.41,54-55.61,54S1160.66,146.79,1160.66,117.12Zm86.92,0v-.29c0-17.9-13.12-32.8-31.61-32.8s-31.31,14.61-31.31,32.5v.3c0,17.89,13.12,32.79,31.61,32.79S1247.58,135,1247.58,117.12Z"/><path class="cls-2" d="M1292,64.64h23v83.49h52V169h-75Z"/><path class="cls-5" d="M373,202.07h22.44c6.41,0,11.55,1.94,14.83,5.22a14.39,14.39,0,0,1,4,10.29v.14c0,8.65-6,13.72-14.17,15.21l16,21.32h-7.23L393.8,234H378.89v20.28H373Zm21.92,26.61c7.82,0,13.41-4,13.41-10.73v-.15c0-6.41-4.92-10.29-13.34-10.29h-16.1v21.17Z"/><path class="cls-5" d="M461.11,201.7h5.52l23.78,52.55h-6.34L478,240.46h-28.4l-6.19,13.79h-6Zm14.54,33.47L463.8,208.56l-11.93,26.61Z"/><path class="cls-5" d="M523.73,233.6,502,202.07h7.16l17.59,26.09,17.74-26.09h6.86L529.7,233.53v20.72h-6Z"/><path class="cls-5" d="M568.91,228.31v-.15c0-14.39,10.81-27,26.69-27s26.53,12.44,26.53,26.83v.15c0,14.39-10.8,27-26.68,27S568.91,242.7,568.91,228.31Zm47.11,0v-.15c0-11.85-8.65-21.54-20.57-21.54S575,216.16,575,228v.15c0,11.85,8.65,21.54,20.58,21.54S616,240.16,616,228.31Z"/><path class="cls-5" d="M649.49,202.07H655l32.88,41.82V202.07h5.73v52.18h-4.69l-33.7-42.79v42.79h-5.74Z"/><path class="cls-5" d="M766.53,207.81l-9.84,3.06-1.41-4.78L768,201.7h4.33v52.55h-5.82Z"/><path class="cls-5" d="M802.16,202.07h22.22c6,0,10.66,1.71,13.64,4.62a11.61,11.61,0,0,1,3.35,8.35v.15c0,6.78-4.17,10.29-8.27,12.08,6.19,1.86,11.18,5.44,11.18,12.59V240c0,9-7.53,14.24-18.93,14.24H802.16Zm21.25,23.26c7.08,0,12-3.21,12-9.32v-.15c0-5.14-4.1-8.5-11.55-8.5H808v18ZM825.5,249c7.9,0,12.82-3.51,12.82-9.32v-.15c0-5.66-4.77-8.94-13.87-8.94H808V249Z"/></svg>