<svg id="Layer_3" data-name="Layer 3" xmlns="http://www.w3.org/2000/svg" viewBox="0 0 960 960"><defs><style>.cls-1{opacity:0.15;}.cls-2{fill:#fff;}</style></defs><title>Logo Only - Light</title><g class="cls-1"><path class="cls-2" d="M480,124.44c-196.36,0-355.56,159.2-355.56,355.56S283.64,835.56,480,835.56,835.56,676.36,835.56,480,676.36,124.44,480,124.44Zm0,687.35c-183.27,0-331.79-148.52-331.79-331.79S296.73,148.21,480,148.21,811.79,296.73,811.79,480,663.27,811.79,480,811.79Z"/><path class="cls-2" d="M679.07,380.43c-.86-.12-1.79-.24-2.65-.31-2.41-.18-4.51-1-5.43-3.45a7.56,7.56,0,0,1,1.36-8.27c2.71-3,6.29-4.7,9.63-6.8a115.61,115.61,0,0,0,9.62-6.72c3.59-2.9,4.33-6.42,2.1-10.19s-5.61-4.94-9.93-2.84c-3.83,1.85-7.47,4.14-11.24,6.17-7.34,3.89-16.54-1.42-17.1-9.81-.31-4.69,2.66-7.22,6.36-9a179.24,179.24,0,0,0,16.85-9.39c7.9-4.81,14.32-10.92,17.78-19.69a3.94,3.94,0,0,1,4-2.84,86.45,86.45,0,0,1,18.64,1.42,9.92,9.92,0,0,1,4.2,1.92c3.09,2.59,3.46,5.74.87,8.82a15,15,0,0,1-7.35,5.07,35.18,35.18,0,0,0-10.56,5.18,7.33,7.33,0,0,0-3.08,6.11c-.06,6.73,6.05,13.09,12.53,13.09a4.42,4.42,0,0,0,3.15-1.11c3.58-3.34,6.85-6.79,9-11.24,1.17-2.53,2.53-3,4.88-1.42a45.69,45.69,0,0,1,13.39,14.26c3,5,2,9.82-3.27,13A410.66,410.66,0,0,1,702.72,373c-5.68,2.6-11.36,5.25-17.47,6.67A35.91,35.91,0,0,1,679.07,380.43Z"/><path class="cls-2" d="M533.7,742.84c0,11.54-2.34,24.51-4.81,37.47-.25,1.23-.37,2.41-.68,3.64-.62,2.72-2.84,3.46-5.12,1.85-3.09-2.16-5.19-5.24-7.47-8.15-8.34-10.3-16.55-20.74-24.88-31.11a47.85,47.85,0,0,0-3.46-3.52c-2.28-2.16-3.64-1.85-4.75,1.24a57.47,57.47,0,0,0-2.28,11.3c-1.05,7.22-2,14.38-3,21.6-.62,4.2-1.29,4.57-5.55,4a21.71,21.71,0,0,1-9.76-3.82c-1.66-1.18-2.53-2.6-1.85-4.82,3.83-12,4.08-24.32,4.08-36.73a111,111,0,0,0-1-12,7.22,7.22,0,0,0-2.22-4.51c-1.49-1.48-1.49-2.84.18-4.32,4.26-3.77,9.2-6.48,14.26-9,1.79-.87,3,.12,4.07,1.23,4.45,4.39,8.46,9.2,12.54,13.89,4.75,5.56,9.25,11.3,14.5,16.42a11.89,11.89,0,0,0,.87.87c1.17.74,2.34,1.91,3.76,1.23s1.36-2.28,1.42-3.7c.25-6.73.74-13.46.25-20.19a2.63,2.63,0,0,1,1.79-3c3.7-1.67,7-4.26,11.11-5,3.21-.62,3.7-.37,4.44,2.71C532.65,720.49,533.64,730.74,533.7,742.84Z"/><path class="cls-2" d="M561.85,204.51c.56,4.75-1.85,9-5.37,12.59-2.41,2.47-3.39,4.94-2.22,8.39a63.88,63.88,0,0,1,2,8.34c2.29,12.16-5.43,22.47-17.65,23.89-8.21,1-15.49-1.24-22.65-4.76a39,39,0,0,0-13.4-3.7,13.76,13.76,0,0,1-6.3-1.91,4.66,4.66,0,0,1-1.85-5.62c2.1-5.62,5.37-10.68,7-16.48a119.24,119.24,0,0,0,4-26.36c.31-4.69.12-9.32.86-14,1.49-8.71,12.54-14.14,20-9.32,5.07,3.27,10.62,4.75,16.24,6.29,6.36,1.73,12.16,4.26,16.17,9.88C560.93,194.94,561.79,198.09,561.85,204.51Zm-32.34,35.55c7.28-.06,8.58-1.42,8.27-6.91-.19-3.4-2.16-5.8-4.38-8-5.68-5.62-12-4.76-16.12,2.09-1.85,3.09-1.54,5.56,1.12,7.84C522.1,238.27,526.36,240,529.51,240.06Zm3-46.66c-1.6-.07-3.15-.07-4.38,1.17a9.23,9.23,0,0,0-2.66,9.2,4.18,4.18,0,0,0,3.28,3.27,32.84,32.84,0,0,0,13.64.43,4.3,4.3,0,0,0,2.9-2c2.16-3.52,1.48-6.91-2-9.07C540,194.26,536.3,193.64,532.53,193.4Z"/><path class="cls-2" d="M267.78,696.67a18,18,0,0,1-5.13-.5c-2.09-.55-3.08-1.79-2.65-3.95.56-3.08,2-5.86,3.33-8.7,2.84-6,5.93-12.1,8.71-18.15.86-1.85,2.4-4.38.92-6-1.66-1.79-4.26-.31-6.17.56-7.16,3.15-14.26,6.48-21.36,9.75-1.91.87-3.89,1.67-5.8,2.59-2.47,1.24-4.57.56-6.54-1.11-3.52-3-5.19-7.1-6.73-11.23-.62-1.61.8-1.54,1.54-1.85,7.59-3.09,15.19-6.05,22.35-10a114.19,114.19,0,0,0,25.06-18.52c4.38-4.32,8.95-8.46,12.78-13.4,1-1.29,1.66-1.11,2.59,0a151.05,151.05,0,0,1,11.91,15.93c.74,1.17.37,2.1-.18,3.15A88.55,88.55,0,0,0,293,660.86a29.49,29.49,0,0,0-.8,6.55c0,.74-.06,1.6.74,1.91.62.25,1.24-.25,1.73-.68,3.27-2.9,6.54-5.74,9.69-8.76,3.52-3.34,6.85-6.86,10.93-9.51,2.22-1.48,4.57-2.9,7.53-1.85,4.44,1.6,5.93,6.05,3.33,10.06-3.21,4.94-7.28,9.07-11.23,13.33-4.82,5.25-9.94,10.31-14.82,15.5-3.76,4-8.7,5.43-13.7,6.66A89.65,89.65,0,0,1,267.78,696.67Z"/><path class="cls-2" d="M641.6,677.28a22.54,22.54,0,0,0,9.88-1.85c14.26-5.43,31.48,7,28,25.25-2.16,11.36-8.51,19.94-19,24.69-7.59,3.46-15.86,4.2-23.89.86-7.71-3.21-10.8-13-6.11-19.25a14,14,0,0,1,11-5.62c4.2-.19,8.4-.25,12.47-1.24,3.09-.8,4.14-2.16,3.89-4.75s-1.3-3.52-4.51-3.89a166.8,166.8,0,0,0-18.45-.74,52.86,52.86,0,0,1-11.3-.93c-8.64-1.79-14-7.09-15.18-15.8-1.3-9.2,1-17.34,8.58-23.27,3.7-2.9,8.33-3.7,12.77-4.81,6.85-1.67,13.71-3.34,20.81-3.28,8.08.07,13.58,4,11.48,13.65-1.24,5.8-3.27,7.65-9.45,7.71q-8.15.09-16.29.56c-2.29.12-4.57.49-6.24,2.34-1.85,2-1.85,3.71-.18,5.93C632.72,676.6,636.79,677.41,641.6,677.28Z"/><path class="cls-2" d="M283,360.49c-4.38,0-8.52-1.48-12.84-1.91-2.77-.31-5.49-.8-8.33-.86-1.48,0-2,.55-1.85,2.09a6.63,6.63,0,0,0,2.84,4.94c3.82,2.9,8.15,4.82,12.47,6.85,1.6.75,2.4,1.67,2.22,3.52-.43,4.76.49,9.51-.06,14.26-.43,3.83-3,5.43-6.61,4-6.29-2.54-11.6-6.67-17.28-10.25a313.74,313.74,0,0,0-42.47-22.47c-1.54-.68-1.73-1.54-1.85-3-1-14.75,6.42-25.49,16.54-35A24.37,24.37,0,0,1,238,316.17c8.83-1.66,15.44,1.79,20.68,8.71,3.71,4.87,6,10.49,7.72,16.29a2.62,2.62,0,0,0,2.65,2.29c5.43.31,10.8.8,16.18-.19,2.77-.49,4.81-2.71,7.65-3.15a19.93,19.93,0,0,1,2.65-.31c4.39,0,5.74,1.92,4.45,6.12-1.17,3.76-3.34,6.91-5.56,10.06C291.48,360,287.35,360.49,283,360.49ZM247.59,346c0-.5.06-1.55,0-2.66-.37-6.48-4.26-9.07-10.37-7a21.36,21.36,0,0,0-5.55,3c-3.65,2.66-4.39,7.84-1.18,10.93a19.23,19.23,0,0,0,13,5.31,3.14,3.14,0,0,0,3.52-3A30.66,30.66,0,0,0,247.59,346Z"/><path class="cls-2" d="M248.46,476.91c2.53,0,5.12-.12,7.65,0,7.53.5,12.35,9.82,7.9,15.87-3.33,4.5-4.13,9.32-4.5,14.69-.93,11.79-6.67,20.62-17.41,26.11-8.95,4.57-18.46,4.38-28.09,3.83a38,38,0,0,1-20.18-6.67c-9.26-6.54-15.56-15.12-17.53-26.42-.93-5.12-1.05-10.43,3.45-14.32a23.71,23.71,0,0,1,3.89-2.59,6.51,6.51,0,0,0,3.52-5.81c.06-3.45,2.22-5.49,4.75-7.28a2.17,2.17,0,0,1,.93-.37c3.7-.49,10.37,3,12.35,6.48,1.72,3.09,1.6,5.19-.68,7.9-1.49,1.79-3.09,3.4-4.63,5.07-4.82,5.06-4.82,11.17-.13,16.23a24.47,24.47,0,0,0,16.55,7.65c5.61.44,11.35.62,16.85-1a18.27,18.27,0,0,0,8.83-5.55c2.9-3.4,2.53-6.85-1-9.51s-7.66-4.07-11.73-5.55c-5.56-2-9.45-5.37-10.5-11.48-.49-2.91.13-5.25,3.52-5.74a102.27,102.27,0,0,1,10.8-1c5.19-.31,10.38-.5,15.5-.68A.45.45,0,0,0,248.46,476.91Z"/><path class="cls-2" d="M378.09,737c-.07-6.61,3.51-11.24,8.21-15.25,7.71-6.48,15.55-12.84,23.76-18.64a26.69,26.69,0,0,1,7.47-4.14c5.12-1.6,9.2.74,12.22,4.38A103.69,103.69,0,0,1,448.27,736c2.16,6.36,2.41,12.9-1,19-2.09,3.83-5.3,6.67-8.7,9.26-8.15,6.3-16.11,12.9-25.37,17.53-3.21,1.61-6.54,2.41-10.12.8a13.19,13.19,0,0,1-5.31-4.94,167.71,167.71,0,0,1-18.21-33.76A18.9,18.9,0,0,1,378.09,737Zm34.69,23.21a6.5,6.5,0,0,0,2.47-.38,39.26,39.26,0,0,0,14.87-11,7.43,7.43,0,0,0,1.42-6.3A35.92,35.92,0,0,0,423,724.69c-2-2.41-3.64-2.84-6.54-1.48a48.58,48.58,0,0,0-15.25,11.11,7.89,7.89,0,0,0-1.72,8.27,41.22,41.22,0,0,0,9.13,15.87A5.39,5.39,0,0,0,412.78,760.19Z"/><path class="cls-2" d="M712.78,563.58c7.41,0,14.81-.18,22.22.06,3,.13,4.69-1.11,6.17-3.39a14.37,14.37,0,0,1,4.14-4.51c1.73-1.11,3.46-2.41,5.62-1.36a6.69,6.69,0,0,1,4.07,6c0,3.15,1.48,5.19,3.7,7.1,4.45,3.89,4.45,8.27,0,12.28a21,21,0,0,1-7.4,4.2c-11,3.7-17.23,11.67-19.88,22.65a11.9,11.9,0,0,0,1.91,9.57c1.48,2.23,2.9,4.57,4.26,6.92,2,3.33,2,6.66-.43,9.81a9.58,9.58,0,0,1-9.57,3.7,4,4,0,0,1-2.59-1.35c-1.91-2.35-4-2.41-6.42-.81a6.23,6.23,0,0,1-6.54.13c-3.95-2.1-4.94-4.63-4.08-10.5.31-2.28.56-4.56.87-6.79a5.92,5.92,0,0,0-1.36-4.75c-6.73-8.27-13.27-16.67-19.88-25a66.52,66.52,0,0,1-5.86-9c-1.61-3-1.17-5.62.43-8.33l.19-.19c4.13-6.54,4.13-6.54,11.72-6.54C700.25,563.58,706.54,563.58,712.78,563.58Zm-4.45,16.48a18.27,18.27,0,0,0-3.64.37c-1.67.37-2.1,1.3-1.42,2.66A76.81,76.81,0,0,0,714,598.64c1.55,1.79,3.34,1.24,4.63-.37a39.12,39.12,0,0,0,7.41-13.52c.55-1.85.18-2.71-1.85-3C719,580.8,713.64,580.62,708.33,580.06Z"/><path class="cls-2" d="M587.28,689.63c0,1.67.07,2.72,0,3.77-.55,6.54-2,7.83-8.64,8.2a36.58,36.58,0,0,1-7.84-.12c-7-1.17-9.63,5.68-8.15,10.43,1.86,5.87,4.39,8.09,10.81,5.68,4.81-1.85,9.56-3.82,14.87-3.76,4.08.06,6,2.53,5,6.42a11.48,11.48,0,0,1-3.58,6c-2.34,2.1-4.56,4.26-6.73,6.49-3.88,4-3.88,7.34-.24,11.66,2.84,3.34,6.17,5,10.61,4,2.84-.68,4-3,5.38-5.06,2.65-4,4.75-8.33,7.34-12.41s7.59-3.33,11-1.72,4.51,4.81,2.9,8.76c-3.39,8.33-8.76,15.5-15,21.91-6,6.36-6.17,6.42-15,6.42-7.47,0-15.12-.24-21.36-5.18-11.11-8.7-18.64-19.82-21.35-33.89-1.49-7.78-2.35-15.55-.5-23.46a28.17,28.17,0,0,1,5.93-12c3.08-3.58,7.53-4.51,11.91-5.19,6.54-1.05,13.15-1.6,19.69-2.65,1.85-.31,2.29.24,2.72,1.79A24.32,24.32,0,0,1,587.28,689.63Z"/><path class="cls-2" d="M413.52,181.36c5-.25,8,2.47,10.18,6.29a255.86,255.86,0,0,0,20.19,29.82,10.31,10.31,0,0,0,9,4.44,28,28,0,0,1,5.12.44c4.08.61,6.36,6.17,4,9.56-.25.37-.75.87-1.12.87-3.76.31-3.95,3.08-4.07,5.86a15.89,15.89,0,0,1-.8,5.06,6.94,6.94,0,0,1-8.64,4.51c-3.52-.86-6.24-3.21-9.08-5.25a10.76,10.76,0,0,0-5.68-2,92.34,92.34,0,0,0-18.95.18,6.64,6.64,0,0,0-4.63,2.41c-2.16,2.78-4.2,5.68-5.12,9.13-1.11,4.08-3.77,6.79-7,9.08a3.43,3.43,0,0,1-3.45.37,14.41,14.41,0,0,1-6.49-5.43A89.5,89.5,0,0,1,379.38,243c-1.66-3.52-.74-6,2.6-7.9.06-.06.12-.12.18-.12,8.33-2.29,10.74-9,12.65-16.42,2.54-9.63,4.82-19.32,8.4-28.64,1-2.72,2.28-5.31,4.75-7A8.26,8.26,0,0,1,413.52,181.36ZM412.41,227c4.07-.31,8.58-.81,12.71-2.78,1.55-.74,2.23-1.48,1.05-3.15a99.85,99.85,0,0,0-10.74-13.77c-1.85-1.91-2.28-1.79-3.39.74a60.15,60.15,0,0,0-3.83,15C407.78,226.79,408.15,227.1,412.41,227Z"/><path class="cls-2" d="M372.16,708.52c.06.43.12.8.19,1.23-.37.56-.31,1,.3,1.36.07.37.13.8.19,1.17-.31.62-.37,1.24.31,1.67.06.43.12.86.18,1.24a.82.82,0,0,0,.31,1.35,8.85,8.85,0,0,1,.13,1.24c-.31,1.17,0,2.47-1.12,3.58-5.18,5.18-10.18,10.49-15.3,15.68A17.71,17.71,0,0,1,345,742.78c-8.15.37-16.23.06-24.38.24a5.07,5.07,0,0,1-4.08-1.72c-3.58-3.52-6.85-7.29-10.74-10.44l-.06-.06a2.91,2.91,0,0,0-.43-.43l-.06-.06-.44-.43-.06-.07a2.9,2.9,0,0,0-.43-.43l-.06-.06c-.25-1.05-1.11-1.6-1.73-2.28-2.1-2.29-4.38-4.39-6.3-6.85-.92-1.18-1-2,0-3.15,2.29-2.47,4.39-5.06,6.67-7.53q11.3-12,22.72-23.89c.55-.62,1.23-1.11,1.36-2h0l.49-.49h0l.49-.5h0a3.81,3.81,0,0,1,.5-.49h0a5.14,5.14,0,0,0,2.65-3,1.17,1.17,0,0,0,.25-.25c.49.12.49-.19.49-.49l.19-.19a2,2,0,0,0,.31-.37l.12-.12a2.94,2.94,0,0,1,.43-.44v-.06a6.29,6.29,0,0,0,2.59-3.08,1.35,1.35,0,0,0,.25-.31,2.3,2.3,0,0,0,1.48-1.85,1.08,1.08,0,0,0,.19-.25,2,2,0,0,0,1.29-1.79.31.31,0,0,0,.13-.19c.8-.43.86-1.11.8-1.91.8-5.25,3.09-6.05,7.41-2.65.8.67,1.54,1.42,2.34,2.16l.06.12.13-.06c.12.12.31.24.43.37l-.06.12.12-.06.43.43-.06.13.13-.07a2.52,2.52,0,0,0,.43.44l-.06.12.12-.06.37.37-.06.18.18-.06.37.37c-.12.25-.12.31.19.19.12.12.18.24.31.31-.13.24-.13.3.18.18.13.12.19.25.31.31-.12.25-.12.31.19.18.12.13.18.25.3.31-.12.25-.12.31.19.19.12.12.19.25.31.31-.19.31-.06.31.18.18.13.13.19.25.31.31-.06.49.19.74.68.68.06.12.19.18.25.25-.12.43.12.49.49.49l.19.19c.86,1.91,2.59,3.08,3.95,4.63,4.38,4.87,9.57,9.32,9.5,16.72a4.39,4.39,0,0,0,.19,1.24C370.62,700.37,370.8,704.57,372.16,708.52ZM328,724.69a71.74,71.74,0,0,0,11.55-.49,17.3,17.3,0,0,0,15.8-15.13c.74-6.11-1.05-11.72-4.2-16.85-2-3.21-3.39-3.39-6.36-1.05a180.59,180.59,0,0,0-14.75,13.46,169.17,169.17,0,0,0-12.65,13.15c-1.85,2.22-1.36,4.32,1.17,5.55a9,9,0,0,0,2.78.87C323.58,724.44,325.8,724.57,328,724.69Z"/><path class="cls-2" d="M597.1,287.78c-5.8-.13-13.4-1.73-19.32-8-4.63-4.87-6.42-11.17-7.59-17.59-2.6-15.06,2-27.9,12.46-38.64,7.84-8.15,18-11.6,29-13.89,6.49-1.36,11,.62,15.38,5,3.95,4,7.59,8.21,10.06,13.27,3,6.11.8,10.37-5.93,11.36-6.42.93-12.71-1.36-13.58-9.2-.43-4-2.9-5.68-7-5.68a12,12,0,0,0-8,3.21c-2.16,1.86-2.28,3.77-.62,6,2.41,3.21,6,5.07,8.89,7.66,2.16,2,4.57,3.7,5.37,6.85,1.18,4.63-.49,7-5.31,7.28-3.27.19-6.29-.92-9.44-1.42a79.71,79.71,0,0,0-8.46-1.29c-3.76-.25-6,1.6-6.85,5.24-1,4.26,1.3,10.07,5.06,12.29,2.16,1.29,4.69,1.05,7.23.86,3.82-.18,7.65-1.23,11.48-.37a10.28,10.28,0,0,1,7.16,5.87c1.42,2.9-.06,6.11-3.64,8.14C609.14,287.22,604.38,287.78,597.1,287.78Z"/><path class="cls-2" d="M727.65,385.37c7.35.74,15.07.25,22.35,2.9,7.78,2.9,14.44,7.22,18.7,14.63,2.53,4.38,3,9.14,2.47,14-.68,6-2,11.79-5.43,16.86-1.79,2.59-4.32,4.56-7.59,4.07-3.64-.56-5.68-3.7-6-7.9-.31-3.95,1.05-7.59,1.67-11.36a36.23,36.23,0,0,0,.49-4.38c.19-5.06-1.73-7.29-6.85-8-5.68-.74-5.49-.74-6,5-.43,5.07-.18,10.19-1.85,15.07-1.54,4.44-5.68,5.61-9.07,2.4-3.28-3-4.14-7.1-5-11.23-.44-2.1-.68-4.2-2.1-5.93a9.41,9.41,0,0,0-12.41-2.1,9.72,9.72,0,0,0-3.64,12.29c1.66,3.52,4.38,6.29,6.66,9.32.5.68,1,1.3,1.42,2,3.58,5.19,1.79,10.62-4.26,13-1.85.74-3-.43-4.19-1.3a38.16,38.16,0,0,1-13.21-18.46c-3.21-9.56-1-18.08,4.69-25.92a40.47,40.47,0,0,1,14.38-12.78C717.59,385.31,722.53,385.68,727.65,385.37Z"/><path class="cls-2" d="M306.91,328.52c-7.9.8-14.56-2.16-20.49-7.1-9.88-8.27-17-18.27-20.31-30.86-1.79-6.92-2.47-13.89-.68-20.93.87-3.52,2.47-6.54,6-8.27a87.29,87.29,0,0,1,19.44-7.22c5.74-1.36,9.82,4.19,8.09,10.55-1.3,4.75-4.32,7-9.26,7.29a38.13,38.13,0,0,0-4.63.43,7.66,7.66,0,0,0-6.73,5.92c-.68,4.32,1.05,8.65,4.26,10.25a7.55,7.55,0,0,0,6.42-.06c4.08-1.67,7.29-4.69,10.68-7.35,1.85-1.42,3.64-2.47,5.93-.74s3.52,5.19,2.71,7.35c-1.05,2.9-3,5.24-4.75,7.65a33.87,33.87,0,0,0-2.35,3.46c-2.9,5.31-1.6,10,3.4,12.71,5.25,2.84,10.62,1.24,13.39-4a55.52,55.52,0,0,0,3.89-11.35c1-3.4,2.53-6.42,5.68-8.34s6.61-1,8.27,2.29a15.6,15.6,0,0,1,.44,13.27,79.23,79.23,0,0,1-11.18,19.81c-2.22,2.84-5.31,3.71-8.52,4.39A43.4,43.4,0,0,1,306.91,328.52Z"/><path class="cls-2" d="M263,425.12c-.67,10.31-3.7,20.5-13,27.84-3.39,2.72-7.47,3.64-11.6,4.14-8.89,1.11-17.29-1.05-25.44-4.26-5.49-2.16-9.5-6.3-13.33-10.62a64.07,64.07,0,0,1-10.43-15.43c-3.46-7.65-2.53-14.81,2.53-21.54,3.4-4.51,7.16-8.58,12.16-11.24,5.31-2.84,8.77-.68,9,5.25a14,14,0,0,1-5.8,12.34,33.07,33.07,0,0,0-5,4.76,5.21,5.21,0,0,0-.49,6.36,18.15,18.15,0,0,0,5.92,6.48,4.05,4.05,0,0,0,5.74-.62c3-3.09,5-6.91,7.23-10.49,1.48-2.35,3.14-4.39,5.8-5.5,3.33-1.36,4.69-.37,5.06,3.15.49,4.45-1.42,8.33-2,12.53-.74,4.94,1.36,8.27,6.11,9.88a14.31,14.31,0,0,0,4.82.86c6.17-.06,8.95-2.71,8.52-9.5-.31-5.07-.68-10.19-.87-15.25a8.19,8.19,0,0,1,6.67-8c2.35-.37,3.64,1.29,4.63,3C261.73,414,262.72,419.07,263,425.12Z"/><path class="cls-2" d="M698.09,274c-.13,1.85-.19,3.71-.37,5.62a4,4,0,0,1-2.41,3.46c-3.33,1.66-6.61,1.85-9.75-.37l-3.89-2.6c-5.07-3.33-9.08-3.33-13.65.56a118.21,118.21,0,0,0-21.23,23.76,12.22,12.22,0,0,0-1.85,5.31,11.69,11.69,0,0,1-2.66,5.74c-3.64,4.63-8.21,4.57-13.95.07a30.1,30.1,0,0,1-8.76-12c-1.67-3.95-.37-7.66,3.7-8.89,9.45-2.84,15.68-9.82,22-16.67a47.88,47.88,0,0,0,7-9.13c2.1-3.71,2.16-6.73-.61-9.88-4.39-5-1.48-14.44,2.53-17.22a4.09,4.09,0,0,1,4.94-.31c6.17,3.52,12,7.59,17.84,11.6,6,4.2,11.91,8.65,17.9,12.91,2,1.42,3.33,3,3.08,5.55C697.9,272.28,698.09,273.15,698.09,274Z"/><path class="cls-2" d="M700.62,492.35a138.17,138.17,0,0,1,.74-18.21c.62-4.26,3.21-6.73,7-8a22.58,22.58,0,0,1,6.79-1.05c11-.43,22-.62,33-.8,3.95-.06,7.84-.56,11.79-1a9.54,9.54,0,0,0,6-3c4.2-4.32,6.54-4.39,11-.37,3.08,2.77,5.55,6,6.48,10.12,1.67,7.28-1.79,11.79-9.26,12.16a47.56,47.56,0,0,1-7.84-.62c-9.38-1.11-18.7-.12-28,.44-5.31.3-10.68.8-16,.8-4.88,0-6.36,2-4.76,7.53.93,3.39,3.46,5.92,5.56,8.58,3.83,4.94,4,10.18,1.54,15.68a4.44,4.44,0,0,1-2.4,2.34,15.84,15.84,0,0,1-19.14-4.19c-2.47-3-2.47-6.67-2.59-10.25C700.49,499.26,700.62,495.8,700.62,492.35Z"/><path class="cls-2" d="M210.56,615.43c5.55,1.48,10.49-1.66,15.3-4.81,7.29-4.69,14.57-9.32,21.42-14.69a21.17,21.17,0,0,0,7.29-9.63,23.59,23.59,0,0,1,5.12-8.65c2-2,3.21-1.91,4.94.37a25.68,25.68,0,0,1,2.78,4.88c2.47,6.3,7.47,10.68,11.73,15.62,1,1.11,2,2.16,2.9,3.33,1.42,1.85.86,3.15-.74,4.32a22.79,22.79,0,0,1-10.19,3.89,67.4,67.4,0,0,0-17.53,5.43c-7,3.15-13.89,6.49-20.62,10.13a12.59,12.59,0,0,0-6.91,9,28.1,28.1,0,0,1-2.41,7c-2.84,5.5-7.28,6.55-11.73,2.29a46.51,46.51,0,0,1-12.47-19.45c-1.79-5.55.93-9,6.79-9Z"/><path class="cls-2" d="M668.4,604.07c3.45.5,5.61,2.78,7.28,5.62,2,3.4,3.39,7.16,5.68,10.5a175.19,175.19,0,0,0,20.06,25.06,9.89,9.89,0,0,0,7.35,2.84c4.56.06,9,1,12.59,3.95,1.79,1.42,2.53,3.08,1.54,5.37-2.16,5.12-5.49,9.5-8.64,14-2,2.84-4,5.74-6.79,8a2.76,2.76,0,0,1-3.7.19,10,10,0,0,1-4.33-6.11c-1.48-5.25-4.5-9.45-8.14-13.21-7.78-8-15.62-15.93-24.39-23a12.16,12.16,0,0,0-8.14-2.77,21.62,21.62,0,0,1-7.72-1.18c-2.28-.8-3.09-2.47-2.53-4.81a11.47,11.47,0,0,1,3.15-5.43,71.47,71.47,0,0,0,11.11-14.57C664,606.3,665.49,604.32,668.4,604.07Z"/><path class="cls-2" d="M375.25,266.67c.12,6.6-2.84,11.73-7.6,16.05a6.8,6.8,0,0,1-4.44,1.72,107.39,107.39,0,0,1-14.14.62,6.19,6.19,0,0,1-4.26-2.22,23.38,23.38,0,0,1-5.3-9c-1.18-4.14.92-7.35,5.18-8a40,40,0,0,0,8.58-1.91c2.84-1.11,3.33-2.47,1.92-5.19-2.91-5.37-6.86-10-10.68-14.63a115,115,0,0,0-8.77-9.32,17.87,17.87,0,0,0-6.36-4,5.2,5.2,0,0,1-3.27-6.79,41.43,41.43,0,0,1,11.11-16c2.35-2,4.38-1.6,5.31,1.3,4.57,14.51,14.75,25.31,23.83,36.85,3.83,4.94,7.59,9.82,8.7,16.24C375.19,263.89,375,265.25,375.25,266.67Z"/><polygon class="cls-2" points="648.02 367.65 492.47 367.65 492.47 268.21 460.99 268.21 460.99 367.65 305.43 367.65 305.43 399.14 460.99 399.14 460.99 692.35 492.47 692.35 492.47 399.14 648.02 399.14 648.02 367.65"/><path class="cls-2" d="M305.43,550H648s-9.13,123.83-168,123.83S305.43,550,305.43,550Z"/><path class="cls-2" d="M342.53,549.94s10.31-24.69,40.31-42S431,480,431,455.68c0,0,5.74-19.94-28.58-40.74-27-16.3-70.56-86-70.56-86s-26.17,82.78,16.48,117.72c33.34,27.34-5.12,34.56-11.23,67C329.69,553.21,342.53,549.94,342.53,549.94Z"/></g></svg>